<svg width="16" height="15" viewBox="0 0 16 15" fill="none" xmlns="http://www.w3.org/2000/svg">
<path d="M6.04122 8.27568C6.04122 8.08777 5.88881 7.93555 5.70075 7.93555H4.51265C4.32481 7.93555 4.17236 8.08777 4.17236 8.27568V9.46363C4.17236 9.65177 4.32481 9.80406 4.51265 9.80406H5.70075C5.88881 9.80406 6.04122 9.65177 6.04122 9.46363V8.27568ZM9.01045 8.27568C9.01045 8.08777 8.858 7.93555 8.67032 7.93555H7.48206C7.29422 7.93555 7.14178 8.08777 7.14178 8.27568V9.46363C7.14178 9.65177 7.29422 9.80406 7.48206 9.80406H8.67032C8.858 9.80406 9.01045 9.65177 9.01045 9.46363V8.27568ZM11.9798 8.27568C11.9798 8.08777 11.8274 7.93555 11.6395 7.93555H10.4514C10.2634 7.93555 10.111 8.08777 10.111 8.27568V9.46363C10.111 9.65177 10.2634 9.80406 10.4514 9.80406H11.6395C11.8274 9.80406 11.9798 9.65177 11.9798 9.46363V8.27568ZM6.04122 11.2452C6.04122 11.057 5.88881 10.9049 5.70075 10.9049H4.51265C4.32481 10.9049 4.17236 11.057 4.17236 11.2452V12.4329C4.17236 12.621 4.32481 12.7732 4.51265 12.7732H5.70075C5.88881 12.7732 6.04122 12.6209 6.04122 12.4329V11.2452ZM9.01045 11.2452C9.01045 11.057 8.858 10.9049 8.67032 10.9049H7.48206C7.29422 10.9049 7.14178 11.057 7.14178 11.2452V12.4329C7.14178 12.621 7.29422 12.7732 7.48206 12.7732H8.67032C8.858 12.7732 9.01045 12.6209 9.01045 12.4329V11.2452ZM11.9798 11.2452C11.9798 11.057 11.8274 10.9049 11.6397 10.9049H10.4514C10.2634 10.9049 10.111 11.057 10.111 11.2452V12.4329C10.111 12.621 10.2634 12.7732 10.4514 12.7732H11.6397C11.8274 12.7732 11.9798 12.6209 11.9798 12.4329V11.2452Z" fill="#9E9E9E"/>
<path d="M15.0245 2.07594C14.6295 1.67318 14.1041 2.13708 14.1041 2.70117V3.48507C14.1041 4.30521 13.4388 4.96611 12.6188 4.96611H11.6818C10.8617 4.96611 10.1876 4.30521 10.1876 3.48507V2.66406C10.1876 2.11178 9.73984 1.66406 9.18755 1.66406H6.96428C6.41199 1.66406 5.96428 2.11178 5.96428 2.66406V3.48507C5.96428 4.30521 5.29016 4.96611 4.47022 4.96611H3.53304C2.71306 4.96611 2.04776 4.30521 2.04776 3.48507V2.70117C2.04776 2.13708 1.52232 1.67318 1.12737 2.07593C0.889889 2.3181 0.742188 2.64906 0.742188 3.0141V13.6479C0.742188 14.3905 1.34409 15.0004 2.0867 15.0004H14.0651C14.8066 15.0004 15.4096 14.3893 15.4096 13.6479V3.0141C15.4096 2.64907 15.262 2.31811 15.0245 2.07594ZM13.6689 12.9857C13.6689 13.3066 13.4087 13.567 13.0876 13.567H3.03859C2.71754 13.567 2.45734 13.3066 2.45734 12.9857V7.49297C2.45734 7.17193 2.71751 6.91157 3.03859 6.91157H13.0876C13.4087 6.91157 13.6689 7.17193 13.6689 7.49297L13.6689 12.9857Z" fill="#9E9E9E"/>
<path d="M3.52992 3.99297H4.45674C4.73806 3.99297 4.96615 3.76521 4.96615 3.48389V0.509257C4.96615 0.227911 4.73806 0 4.45674 0H3.52992C3.24857 0 3.02051 0.227911 3.02051 0.509257V3.48389C3.02051 3.76521 3.24857 3.99297 3.52992 3.99297ZM11.67 3.99297H12.5968C12.878 3.99297 13.1061 3.76521 13.1061 3.48389V0.509257C13.1061 0.227911 12.878 0 12.5968 0H11.67C11.3887 0 11.1606 0.227911 11.1606 0.509257V3.48389C11.1606 3.76521 11.3887 3.99297 11.67 3.99297Z" fill="#9E9E9E"/>
</svg>
