<svg xmlns="http://www.w3.org/2000/svg" width="15" height="15" fill="none" viewBox="0 0 15 15"><g clip-path="url(#a)"><path fill="#5C5C5C" d="M7.03.047c-1.39 0-2.75.41-3.91 1.18a6.965 6.965 0 0 0-2.59 3.16c-.53 1.29-.67 2.7-.39 4.06.27 1.36.94 2.62 1.92 3.6a7.041 7.041 0 0 0 7.66 1.52 7.07 7.07 0 0 0 3.16-2.59 7.07 7.07 0 0 0 1.18-3.91c0-1.86-.74-3.65-2.06-4.97A7.048 7.048 0 0 0 7.03.047Z"/><path fill="#fff" fill-rule="evenodd" d="M11.06 4.157c.26.26.26.68 0 .94l-4.9 4.9c-.26.26-.68.26-.94 0l-2.23-2.23a.664.664 0 1 1 .94-.94l1.75 1.75 4.42-4.42c.26-.26.68-.26.94 0h.02Z" clip-rule="evenodd"/></g><defs><clipPath id="a"><path fill="#fff" d="M0 .047h14.06v14.06H0z"/></clipPath></defs></svg>