<svg width="20" height="16" viewBox="0 0 20 16" fill="none" xmlns="http://www.w3.org/2000/svg">
<g clip-path="url(#clip0_534_990)">
<path d="M18.8313 4.35325C18.7469 4.09075 18.5875 3.86575 18.3813 3.68762C18.175 3.5095 17.9219 3.397 17.65 3.3595C17.3875 3.322 17.1063 3.3595 16.8532 3.472L13.1782 5.10325L11.0407 1.25012C10.9469 1.08137 10.825 0.931373 10.6657 0.809498C10.5157 0.687623 10.3375 0.603248 10.15 0.546998C9.96253 0.490748 9.76565 0.481373 9.56878 0.509498C9.38128 0.537623 9.1844 0.603248 9.02503 0.696998C8.80003 0.828248 8.61253 1.01575 8.49065 1.25012L6.34378 5.11262L2.66878 3.48137C2.42503 3.36887 2.14378 3.33137 1.88128 3.36887C1.6094 3.40637 1.35628 3.51887 1.15003 3.697C0.94378 3.87512 0.784405 4.10012 0.70003 4.35325C0.615655 4.61575 0.60628 4.88762 0.66253 5.15012L2.60315 14.3751C2.65003 14.5626 2.7344 14.7407 2.8469 14.9001C2.9594 15.0595 3.1094 15.1907 3.27815 15.2939C3.4469 15.397 3.6344 15.4532 3.83128 15.4814C4.01878 15.5095 4.1969 15.5001 4.37503 15.4532H4.41253C7.9094 14.4782 11.6032 14.4782 15.1 15.4532H15.1375C15.25 15.4907 15.3719 15.5095 15.4938 15.5095C15.5594 15.5095 15.625 15.5095 15.6907 15.5001C15.8875 15.472 16.075 15.4064 16.2438 15.3126C16.4125 15.2095 16.5532 15.0782 16.675 14.9189C16.7969 14.7595 16.8719 14.5814 16.9188 14.3845L18.8688 5.17825C18.9344 4.91575 18.925 4.6345 18.8313 4.38137V4.35325ZM2.40628 5.21575L5.85628 6.74387C6.19378 6.89387 6.5594 6.91262 6.90628 6.79075C7.25315 6.67825 7.54378 6.44387 7.7219 6.12512L9.76565 2.43137L11.8094 6.12512C11.9875 6.44387 12.2782 6.67825 12.625 6.79075C12.9719 6.90325 13.3375 6.8845 13.675 6.7345L17.125 5.20637L15.325 13.7376C11.6875 12.772 7.85315 12.772 4.20628 13.7376L2.40628 5.21575Z" fill="white"/>
</g>
<defs>
<clipPath id="clip0_534_990">
<rect width="18.75" height="15" fill="white" transform="translate(0.625 0.5)"/>
</clipPath>
</defs>
</svg>
