<svg width="15" height="16" viewBox="0 0 15 16" fill="none" xmlns="http://www.w3.org/2000/svg">
<g clip-path="url(#clip0_2431_1486)">
<path d="M1.58835 7.81543C1.58835 7.81543 2.18097 8.68605 3.42304 9.42298C3.42304 9.42298 2.52348 1.82038 8.3847 0.5C6.88303 6.01136 10.2949 7.56564 11.5385 4.65389C13.6155 7.42687 12.0385 9.84614 12.0385 9.84614C12.8901 9.96884 13.6055 9.03843 13.6055 9.03843C13.6119 9.15304 13.6155 9.26844 13.6155 9.38466C13.6155 12.7621 10.8776 15.5 7.50014 15.5C4.12271 15.5 1.38477 12.7621 1.38477 9.38463C1.38477 8.84211 1.45578 8.31623 1.58835 7.81543Z" fill="#FF6536"/>
<path d="M13.6054 9.03843C13.6054 9.03843 12.89 9.96884 12.0384 9.84614C12.0384 9.84614 13.6154 7.42687 11.5384 4.65389C10.2947 7.56564 6.88292 6.01136 8.38459 0.5C8.07067 0.570723 7.7763 0.65958 7.5 0.764199V15.5C10.8774 15.5 13.6154 12.7621 13.6154 9.38463C13.6154 9.26841 13.6118 9.15304 13.6054 9.03843Z" fill="#FF421D"/>
<path d="M4.81836 12.8182C4.81836 14.2994 6.01912 15.5001 7.50031 15.5001C8.9815 15.5001 10.1823 14.2994 10.1823 12.8182C10.1823 12.0254 9.83829 11.3129 9.29141 10.8219C8.25447 12.2307 6.7768 10.0937 7.9284 8.5332C7.9284 8.5332 4.81836 8.92294 4.81836 12.8182Z" fill="#FBBF00"/>
<path d="M10.182 12.8182C10.182 12.0254 9.83798 11.3129 9.29109 10.8219C8.25416 12.2307 6.77648 10.0937 7.92809 8.5332C7.92809 8.5332 7.7591 8.55444 7.5 8.63621V15.5001C8.98119 15.5001 10.182 14.2994 10.182 12.8182Z" fill="#FFA900"/>
</g>
<defs>
<clipPath id="clip0_2431_1486">
<rect width="15" height="15" fill="white" transform="translate(0 0.5)"/>
</clipPath>
</defs>
</svg>
