<svg width="12" height="12" viewBox="0 0 13 12" fill="none" xmlns="http://www.w3.org/2000/svg">
<path d="M11.9542 2.32648H11.0807C11.1959 2.14416 11.272 1.93951 11.2936 1.72308C11.3629 1.03138 10.9986 0.411315 10.3783 0.136411C9.80814 -0.116278 9.16743 -0.0129811 8.70607 0.405409L7.6031 1.40487C7.3883 1.16997 7.07951 1.02233 6.73681 1.02233C6.39349 1.02233 6.08421 1.17043 5.86936 1.40606L4.76499 0.405292C4.30287 -0.0130982 3.66242 -0.115997 3.09254 0.136551C2.47243 0.411479 2.10802 1.03175 2.17749 1.72343C2.19922 1.9397 2.2752 2.14426 2.3904 2.32648H1.51942C1.08718 2.32648 0.736816 2.67682 0.736816 3.10896V4.2827C0.736816 4.49876 0.912011 4.67396 1.12813 4.67396H12.3455C12.5616 4.67396 12.7368 4.49879 12.7368 4.2827V3.10896C12.7368 2.67682 12.3864 2.32648 11.9542 2.32648ZM5.56289 2.19607V2.32648H3.72205C3.23567 2.32648 2.85289 1.87313 2.97437 1.36681C3.02787 1.14384 3.18884 0.953764 3.39704 0.857544C3.68293 0.725424 3.99961 0.767839 4.23973 0.985142L5.56322 2.18454C5.56315 2.18841 5.56289 2.1922 5.56289 2.19607ZM10.5171 1.6192C10.488 2.02585 10.1206 2.32653 9.71285 2.32653L7.91072 2.32653V2.19612C7.91072 2.1915 7.91044 2.18693 7.91039 2.18231L9.21337 1.00145C9.41385 0.819769 9.69438 0.734961 9.95369 0.812293C10.3258 0.923277 10.5443 1.23968 10.5171 1.6192ZM1.51942 5.41419L1.51942 11.1947C1.51942 11.6269 1.86978 11.9772 2.30202 11.9772L6.16224 12V5.41419H1.51942ZM7.24608 5.41419V12H11.1716C11.6038 12 11.9542 11.6269 11.9542 11.1947V5.45644L7.24608 5.41419Z" fill="white"/>
</svg>
