<svg width="15" height="10" viewBox="0 0 15 10" fill="none" xmlns="http://www.w3.org/2000/svg">
<path fill-rule="evenodd" clip-rule="evenodd" d="M0.0288086 4.92308C0.0288086 4.45576 0.407642 4.07692 0.874958 4.07692H13.5672C14.0345 4.07692 14.4133 4.45576 14.4133 4.92308C14.4133 5.39039 14.0345 5.76923 13.5672 5.76923H0.874958C0.407642 5.76923 0.0288086 5.39039 0.0288086 4.92308Z" fill="white"/>
<path fill-rule="evenodd" clip-rule="evenodd" d="M9.26697 0.622833C9.59741 0.292389 10.1332 0.292389 10.4636 0.622833L14.1655 4.32476C14.496 4.6552 14.496 5.19095 14.1655 5.5214L10.4636 9.22332C10.1332 9.55376 9.59741 9.55376 9.26697 9.22332C8.93653 8.89288 8.93653 8.35712 9.26697 8.02668L12.3706 4.92308L9.26697 1.81947C8.93653 1.48903 8.93653 0.953276 9.26697 0.622833Z" fill="white"/>
</svg>
