<svg width="80" height="80" viewBox="0 0 80 80" fill="none" xmlns="http://www.w3.org/2000/svg">
<circle cx="40" cy="40" r="40" fill="url(#paint0_linear_816_12641)"/>
<g clip-path="url(#clip0_816_12641)">
<path d="M22.7262 53.6206C22.8915 53.8552 23.1082 54.0487 23.3725 54.2028L23.6436 54.339C23.6436 54.339 59.4421 76.6854 62.9697 74.2062C66.4973 71.727 57.5923 30.4763 57.5923 30.4763L57.5557 30.176C57.5012 29.8749 57.3922 29.606 57.2271 29.3702C55.2512 26.5585 45.925 29.7081 36.3974 36.4048C26.871 43.1017 20.7499 50.8112 22.726 53.6217L22.7262 53.6206Z" fill="url(#paint1_linear_816_12641)"/>
<path d="M24.9303 55.1331C28.2916 57.2012 31.6748 59.2337 35.0786 61.2303C37.8199 62.8378 40.8233 64.5644 43.8152 66.2209C46.4306 67.6688 49.0373 69.0639 51.4526 70.2782C53.464 69.1145 55.4869 67.825 57.4941 66.4145C59.5012 65.0039 61.4001 63.5372 63.1756 62.0381C62.8507 59.355 62.4205 56.4288 61.9444 53.479C61.3989 50.1023 60.7913 46.6921 60.207 43.5691C59.4802 39.6898 58.7139 35.8179 57.9053 31.9553C52.2401 33.8473 45.9823 37.0207 39.8583 41.325C33.7341 45.6305 28.6303 50.4432 24.9314 55.1333L24.9303 55.1331Z" fill="url(#paint2_linear_816_12641)"/>
<path d="M22.7258 53.6193C22.8909 53.8551 23.1078 54.0474 23.3721 54.2016L23.6422 54.3364C23.6422 54.3364 24.1051 54.6247 24.9305 55.1334C28.2918 57.2014 31.6749 59.2339 35.0787 61.2306C37.8201 62.8381 40.8235 64.5647 43.8154 66.2212C46.9526 64.6216 50.1529 62.6976 53.3178 60.4733C56.4827 58.2491 59.3754 55.8885 61.9436 53.4778C61.3981 50.1012 60.7905 46.691 60.2063 43.568C59.4795 39.6887 58.7131 35.8168 57.9045 31.9542C57.7051 31.0051 57.59 30.4724 57.59 30.4724L57.5545 30.1722C57.4989 29.8709 57.3912 29.6011 57.2259 29.3664C55.2501 26.5547 45.9238 29.7043 36.3965 36.3998C26.8699 43.0979 20.7491 50.8051 22.725 53.6168L22.7258 53.6193Z" fill="url(#paint3_linear_816_12641)"/>
<path d="M22.7265 53.6195C22.8916 53.8553 23.1085 54.0477 23.3728 54.2018L23.6429 54.3366C23.6429 54.3366 24.1058 54.6249 24.9312 55.1336C28.2925 57.2017 31.6757 59.2341 35.0795 61.2308C39.4361 59.3481 44.0088 56.7952 48.51 53.6323C53.0111 50.4694 56.9601 47.0299 60.207 43.5682C59.4802 39.6889 58.7138 35.817 57.9052 31.9544C57.7058 31.0054 57.5907 30.4726 57.5907 30.4726L57.5552 30.1724C57.4996 29.8711 57.3919 29.6013 57.2266 29.3667C55.2508 26.555 45.9257 29.7047 36.3983 36.4003C26.8717 43.0983 20.751 50.8055 22.7269 53.6172L22.7265 53.6195Z" fill="url(#paint4_linear_816_12641)"/>
<path d="M22.7257 53.6183C24.7028 56.4302 34.0276 53.2816 43.5552 46.5849C53.0828 39.8882 59.2025 32.1797 57.2268 29.3668C55.2498 26.5549 45.925 29.7035 36.3974 36.4002C26.871 43.0971 20.7489 50.8052 22.7257 53.6183Z" fill="url(#paint5_linear_816_12641)"/>
<path d="M24.6066 51.6914C26.067 53.7683 34.004 50.7059 42.3359 44.8485C50.6678 38.991 56.2373 32.5604 54.7772 30.4824C53.317 28.4043 45.3798 31.4679 37.0481 37.3242C28.7164 43.1805 23.1467 49.6122 24.607 51.6891L24.6066 51.6914Z" fill="url(#paint6_linear_816_12641)"/>
<path d="M22.7272 53.62C20.7514 50.8083 26.8723 43.0999 36.3987 36.403C41.9855 32.4758 47.5014 29.7702 51.5078 28.7695C51.3115 29.0157 51.1025 29.2524 50.8803 29.476C50.5113 29.8482 50.0989 30.1745 49.6507 30.4538L47.2305 32.1606C47.4223 32.2924 47.6203 32.4158 47.8223 32.5302C48.1298 32.7039 48.2625 33.0761 48.1329 33.4045L46.7683 36.8887C46.653 37.1837 46.3929 37.3983 46.0816 37.4569L22.8563 53.7825C22.8105 53.7302 22.7664 53.6758 22.7263 53.6186L22.7272 53.62Z" fill="url(#paint7_linear_816_12641)"/>
<path d="M37.827 44.7101L35.3832 46.7676L24.3161 54.5463C23.6012 54.3999 23.0588 54.0953 22.7265 53.6221C20.9988 51.1648 25.4555 44.9681 32.9643 38.975C34.79 40.1451 36.4581 41.5455 37.927 43.1401C38.3473 43.5953 38.3001 44.3097 37.826 44.7087L37.827 44.7101Z" fill="url(#paint8_linear_816_12641)"/>
<path d="M35.3822 46.7644L37.826 44.707C38.3001 44.3079 38.3461 43.5933 37.9272 43.1372C32.514 37.2585 24.6508 34.2724 16.6652 35.1173C14.6652 35.3285 12.6964 35.7758 10.8019 36.4524C10.218 36.6612 9.92807 37.3161 10.1627 37.8891L11.3725 40.8453C11.5922 41.381 12.1924 41.6493 12.7384 41.4589C14.1921 40.9518 15.6995 40.6143 17.2296 40.4529C23.4733 39.7917 29.6249 42.1057 33.8862 46.6715C34.2811 47.0947 34.9381 47.1353 35.3814 46.7619L35.3822 46.7644Z" fill="url(#paint9_linear_816_12641)"/>
<path d="M57.2427 24.7885L59.4082 23.2255C60.3897 22.517 60.8824 21.1858 60.5815 20.054C60.2327 18.7394 58.9433 18.1453 57.7179 18.7332C56.6621 19.2399 55.9683 20.4782 56.0672 21.6855L56.2848 24.3473C56.3226 24.8174 56.8606 25.0652 57.2437 24.7899L57.2427 24.7885Z" fill="url(#paint10_linear_816_12641)"/>
<path d="M60.1229 27.409L62.7917 27.4902C64.0014 27.5267 65.2038 26.7711 65.6559 25.6908C66.1806 24.4358 65.5205 23.1797 64.1903 22.8986C63.0444 22.6559 61.7402 23.2168 61.0831 24.2334L59.6329 26.4757C59.3767 26.8713 59.6521 27.3965 60.1227 27.4102L60.1229 27.409Z" fill="url(#paint11_linear_816_12641)"/>
<path d="M19.9458 51.5161L17.3681 50.8167C16.1996 50.4995 14.8553 50.9554 14.1652 51.9017C13.3634 53.0003 13.7134 54.3761 14.9415 54.9582C15.9998 55.4602 17.3984 55.2182 18.2745 54.3824L20.2065 52.5381C20.5482 52.2125 20.4021 51.6384 19.946 51.5149L19.9458 51.5161Z" fill="url(#paint12_linear_816_12641)"/>
<path d="M20.1677 47.6284L18.5509 45.5036C17.8176 44.5405 16.4732 44.0824 15.3497 44.4111C14.0446 44.7939 13.4838 46.0975 14.1018 47.3079C14.6348 48.3504 15.892 49.0117 17.0949 48.8833L19.7493 48.5988C20.218 48.5488 20.4525 48.0048 20.1663 47.6294L20.1677 47.6284Z" fill="url(#paint13_linear_816_12641)"/>
<path d="M45.4873 37.3675C45.9702 37.6234 46.569 37.3981 46.7676 36.8884L48.1322 33.4042C48.2617 33.0758 48.1281 32.7022 47.8216 32.5299C47.4618 32.3279 46.9692 32.0117 46.4786 31.5763C48.2368 31.3201 49.7566 30.6073 50.8796 29.4757C52.9955 27.3401 53.6114 24.6198 52.5267 22.2006C51.4545 19.8063 48.9597 18.2912 46.3178 18.4299C43.43 18.5813 41.0533 20.6649 39.9591 24.0045C39.9131 24.1433 39.8706 24.2828 39.8295 24.4213C39.2185 23.9026 38.7561 23.3133 38.5079 22.7021C37.8813 21.1545 38.1657 19.0603 39.2313 17.3667C39.9071 16.2912 40.792 15.5346 41.6932 15.2335C42.0945 15.0988 42.3628 14.722 42.3358 14.2992L42.1087 10.7159C42.074 10.1674 41.5668 9.76498 41.0273 9.87056C38.5376 10.3526 36.2688 12.0001 34.6901 14.51C32.7064 17.6641 32.2641 21.5749 33.5344 24.7161C34.5405 27.2015 36.8286 29.3264 39.6899 30.5585C40.1133 32.0798 40.9006 33.4885 42.0388 34.7298C43.2554 36.0553 44.6071 36.9053 45.4857 37.3696L45.4873 37.3675ZM46.8115 23.8007C47.1568 23.8616 47.4984 24.0986 47.6303 24.3943C47.8273 24.8352 47.362 25.4006 47.067 25.6986C46.6628 26.1076 45.8498 26.3214 44.8768 26.3111C44.9289 26.0969 44.9903 25.8843 45.0595 25.6744C45.4369 24.5236 46.0115 23.8185 46.5989 23.7871C46.6699 23.7841 46.7408 23.7883 46.8115 23.8007Z" fill="url(#paint14_radial_816_12641)"/>
<path d="M35.3733 27.5544L39.831 24.4208C39.831 24.4208 38.9416 28.0486 39.6916 30.5569C38.0039 29.8305 36.5156 28.7927 35.3721 27.5542L35.3733 27.5544Z" fill="url(#paint15_linear_816_12641)"/>
<path d="M47.0679 25.6986C47.2845 25.48 47.5908 25.1183 47.6622 24.7677L52.9551 25.6914C52.7108 27.0293 52.0086 28.3355 50.8794 29.4755C49.7574 30.6085 48.2376 31.3213 46.4784 31.5761C46.4784 31.5761 43.9112 30.2753 44.8766 26.3109C45.8505 26.3226 46.6626 26.1074 47.0668 25.6984L47.0679 25.6986Z" fill="url(#paint16_linear_816_12641)"/>
<path d="M33.7245 35.7557C34.8124 36.7743 35.6732 38.0107 36.2502 39.3859C36.3798 39.6943 36.7922 39.767 37.0185 39.5202C38.0269 38.4222 39.2557 37.5506 40.6237 36.9603C40.9274 36.8299 40.998 36.423 40.7569 36.1977C39.6691 35.1792 38.8083 33.9428 38.2313 32.5676C38.1017 32.2592 37.6893 32.1865 37.463 32.4333C36.4546 33.5313 35.2258 34.4029 33.8578 34.9932C33.5541 35.1236 33.4835 35.5305 33.7245 35.7557Z" fill="url(#paint17_linear_816_12641)"/>
<path d="M11.5488 30.1796C12.6367 31.1981 13.4974 32.4346 14.0744 33.8098C14.204 34.1181 14.6164 34.1909 14.8427 33.9441C15.8511 32.846 17.0799 31.9744 18.4479 31.3841C18.7516 31.2537 18.8222 30.8468 18.5812 30.6216C17.4933 29.6031 16.6326 28.3666 16.0555 26.9914C15.9259 26.683 15.5135 26.6103 15.2872 26.8571C14.2789 27.9552 13.05 28.8268 11.682 29.417C11.3783 29.5474 11.3078 29.9543 11.5488 30.1796Z" fill="url(#paint18_linear_816_12641)"/>
<path d="M25.2324 14.0936C26.3203 15.1121 27.181 16.3486 27.758 17.7238C27.8876 18.0322 28.3 18.1049 28.5263 17.8581C29.5347 16.7601 30.7635 15.8884 32.1315 15.2982C32.4352 15.1678 32.5058 14.7609 32.2648 14.5356C31.1769 13.5171 30.3162 12.2807 29.7391 10.9054C29.6095 10.5971 29.1971 10.5244 28.9708 10.7712C27.9624 11.8692 26.7336 12.7408 25.3656 13.3311C25.0619 13.4615 24.9913 13.8684 25.2324 14.0936Z" fill="url(#paint19_linear_816_12641)"/>
<path d="M24.1877 26.6651C24.9815 27.4071 25.6084 28.3097 26.0292 29.3109C26.1234 29.5354 26.4235 29.5883 26.5888 29.4096C27.3235 28.6098 28.2194 27.9733 29.2174 27.5436C29.4384 27.4488 29.4907 27.1522 29.3155 26.9875C28.5217 26.2454 27.8948 25.3429 27.474 24.3416C27.3798 24.1172 27.0798 24.0642 26.9144 24.243C26.1797 25.0428 25.2838 25.6793 24.2858 26.109C24.0648 26.2038 24.0125 26.5004 24.1877 26.6651Z" fill="url(#paint20_linear_816_12641)"/>
<path d="M21.7658 19.0737C22.5596 19.8158 23.1865 20.7184 23.6072 21.7196C23.7013 21.9452 24.0015 21.997 24.1668 21.8182C24.9016 21.0184 25.7975 20.3819 26.7955 19.9522C27.0165 19.8574 27.0688 19.5608 26.8936 19.3961C26.0998 18.6541 25.4729 17.7515 25.0521 16.7503C24.9581 16.5246 24.6578 16.4729 24.4925 16.6516C23.7577 17.4515 22.8618 18.0879 21.8638 18.5176C21.6428 18.6124 21.5905 18.909 21.7658 19.0737Z" fill="url(#paint21_linear_816_12641)"/>
</g>
<defs>
<linearGradient id="paint0_linear_816_12641" x1="40" y1="-11.4286" x2="40" y2="63.4286" gradientUnits="userSpaceOnUse">
<stop stop-color="#EDEDED"/>
<stop offset="1" stop-color="#EDEDED" stop-opacity="0"/>
</linearGradient>
<linearGradient id="paint1_linear_816_12641" x1="61.0074" y1="43.171" x2="39.505" y2="64.8352" gradientUnits="userSpaceOnUse">
<stop stop-color="#FFE548"/>
<stop offset="0.18" stop-color="#FFDE50"/>
<stop offset="0.45" stop-color="#FFCA65"/>
<stop offset="0.77" stop-color="#FFAA87"/>
<stop offset="1" stop-color="#FF90A4"/>
</linearGradient>
<linearGradient id="paint2_linear_816_12641" x1="44.2" y1="60.0552" x2="45.4313" y2="72.2998" gradientUnits="userSpaceOnUse">
<stop stop-color="#FBA5C2" stop-opacity="0"/>
<stop offset="0.39" stop-color="#FCA0BA" stop-opacity="0.39"/>
<stop offset="0.97" stop-color="#FF91A5" stop-opacity="0.97"/>
<stop offset="1" stop-color="#FF90A4"/>
</linearGradient>
<linearGradient id="paint3_linear_816_12641" x1="42.105" y1="52.5136" x2="43.5813" y2="67.9491" gradientUnits="userSpaceOnUse">
<stop stop-color="#FBA5C2" stop-opacity="0"/>
<stop offset="0.39" stop-color="#FCA0BA" stop-opacity="0.39"/>
<stop offset="0.97" stop-color="#FF91A5" stop-opacity="0.97"/>
<stop offset="1" stop-color="#FF90A4"/>
</linearGradient>
<linearGradient id="paint4_linear_816_12641" x1="40.7983" y1="44.0416" x2="42.9328" y2="61.6921" gradientUnits="userSpaceOnUse">
<stop stop-color="#FBA5C2" stop-opacity="0"/>
<stop offset="0.39" stop-color="#FCA0BA" stop-opacity="0.39"/>
<stop offset="0.97" stop-color="#FF91A5" stop-opacity="0.97"/>
<stop offset="1" stop-color="#FF90A4"/>
</linearGradient>
<linearGradient id="paint5_linear_816_12641" x1="38.9592" y1="37.3728" x2="42.2083" y2="50.5381" gradientUnits="userSpaceOnUse">
<stop stop-color="#FFE548"/>
<stop offset="0.18" stop-color="#FFDE50"/>
<stop offset="0.45" stop-color="#FFCA65"/>
<stop offset="0.77" stop-color="#FFAA87"/>
<stop offset="1" stop-color="#FF90A4"/>
</linearGradient>
<linearGradient id="paint6_linear_816_12641" x1="42.4174" y1="47.5029" x2="36.8552" y2="34.4136" gradientUnits="userSpaceOnUse">
<stop stop-color="#FFD00D" stop-opacity="0"/>
<stop offset="1" stop-color="#DB722B"/>
</linearGradient>
<linearGradient id="paint7_linear_816_12641" x1="36.2912" y1="41.1386" x2="43.6933" y2="27.3092" gradientUnits="userSpaceOnUse">
<stop stop-color="#FFD00D" stop-opacity="0"/>
<stop offset="1" stop-color="#DB722B"/>
</linearGradient>
<linearGradient id="paint8_linear_816_12641" x1="29.1673" y1="48.2531" x2="34.1599" y2="42.5941" gradientUnits="userSpaceOnUse">
<stop stop-color="#A34A9E" stop-opacity="0"/>
<stop offset="1" stop-color="#343168"/>
</linearGradient>
<linearGradient id="paint9_linear_816_12641" x1="23.4229" y1="45.2839" x2="24.95" y2="35.5701" gradientUnits="userSpaceOnUse">
<stop stop-color="#A34A9E"/>
<stop offset="1" stop-color="#343168"/>
</linearGradient>
<linearGradient id="paint10_linear_816_12641" x1="58.8335" y1="21.431" x2="56.5427" y2="21.9822" gradientUnits="userSpaceOnUse">
<stop stop-color="#3FA9F5"/>
<stop offset="1" stop-color="#666AD6"/>
</linearGradient>
<linearGradient id="paint11_linear_816_12641" x1="63.331" y1="25.6729" x2="61.179" y2="24.7133" gradientUnits="userSpaceOnUse">
<stop stop-color="#A34A9E"/>
<stop offset="1" stop-color="#343168"/>
</linearGradient>
<linearGradient id="paint12_linear_816_12641" x1="16.4759" y1="52.4083" x2="21.44" y2="56.7551" gradientUnits="userSpaceOnUse">
<stop stop-color="#FF4974"/>
<stop offset="0.45" stop-color="#FE4773"/>
<stop offset="0.63" stop-color="#FC406D"/>
<stop offset="0.76" stop-color="#F73464"/>
<stop offset="0.87" stop-color="#F12257"/>
<stop offset="0.96" stop-color="#E80C46"/>
<stop offset="1" stop-color="#E4003D"/>
</linearGradient>
<linearGradient id="paint13_linear_816_12641" x1="16.7643" y1="45.3045" x2="18.0366" y2="53.1971" gradientUnits="userSpaceOnUse">
<stop stop-color="#C4F8B6"/>
<stop offset="1" stop-color="#3B8EAC"/>
</linearGradient>
<radialGradient id="paint14_radial_816_12641" cx="0" cy="0" r="1" gradientUnits="userSpaceOnUse" gradientTransform="translate(53.7392 16.4628) rotate(-170) scale(23.6187 23.6188)">
<stop stop-color="#FF4974"/>
<stop offset="0.45" stop-color="#FE4773"/>
<stop offset="0.63" stop-color="#FC406D"/>
<stop offset="0.76" stop-color="#F73464"/>
<stop offset="0.87" stop-color="#F12257"/>
<stop offset="0.96" stop-color="#E80C46"/>
<stop offset="1" stop-color="#E4003D"/>
</radialGradient>
<linearGradient id="paint15_linear_816_12641" x1="34.253" y1="30.1475" x2="43.7158" y2="25.5801" gradientUnits="userSpaceOnUse">
<stop stop-color="#E4003D" stop-opacity="0"/>
<stop offset="0.34" stop-color="#CD0E2D" stop-opacity="0.34"/>
<stop offset="1" stop-color="#972E07"/>
</linearGradient>
<linearGradient id="paint16_linear_816_12641" x1="47.7449" y1="28.0722" x2="45.0134" y2="29.8305" gradientUnits="userSpaceOnUse">
<stop stop-color="#E4003D" stop-opacity="0"/>
<stop offset="0.34" stop-color="#CD0E2D" stop-opacity="0.34"/>
<stop offset="1" stop-color="#972E07"/>
</linearGradient>
<linearGradient id="paint17_linear_816_12641" x1="38.7292" y1="34.5811" x2="33.9426" y2="39.065" gradientUnits="userSpaceOnUse">
<stop stop-color="#3FA9F5"/>
<stop offset="1" stop-color="#666AD6"/>
</linearGradient>
<linearGradient id="paint18_linear_816_12641" x1="16.5792" y1="28.9808" x2="11.7926" y2="33.4647" gradientUnits="userSpaceOnUse">
<stop stop-color="#3FA9F5"/>
<stop offset="1" stop-color="#666AD6"/>
</linearGradient>
<linearGradient id="paint19_linear_816_12641" x1="30.2655" y1="12.8929" x2="25.4791" y2="17.3757" gradientUnits="userSpaceOnUse">
<stop stop-color="#A34A9E"/>
<stop offset="1" stop-color="#343168"/>
</linearGradient>
<linearGradient id="paint20_linear_816_12641" x1="27.8581" y1="25.788" x2="24.3693" y2="29.0565" gradientUnits="userSpaceOnUse">
<stop stop-color="#C4F8B6"/>
<stop offset="1" stop-color="#3B8EAC"/>
</linearGradient>
<linearGradient id="paint21_linear_816_12641" x1="25.4461" y1="18.1876" x2="21.9573" y2="21.4561" gradientUnits="userSpaceOnUse">
<stop stop-color="#FFE548"/>
<stop offset="0.18" stop-color="#FFDE50"/>
<stop offset="0.45" stop-color="#FFCA65"/>
<stop offset="0.77" stop-color="#FFAA87"/>
<stop offset="1" stop-color="#FF90A4"/>
</linearGradient>
<clipPath id="clip0_816_12641">
<rect width="58.8785" height="60" fill="white" transform="matrix(-0.984808 -0.173648 -0.173648 0.984808 73.7012 15.5684)"/>
</clipPath>
</defs>
</svg>
