<svg width="14" height="14" viewBox="0 0 14 14" fill="none" xmlns="http://www.w3.org/2000/svg">
<path d="M7.00012 0.470703C5.70876 0.470703 4.4464 0.85363 3.37267 1.57106C2.29895 2.28849 1.46208 3.3082 0.967897 4.50125C0.473715 5.69429 0.344415 7.00708 0.596347 8.27361C0.848278 9.54013 1.47013 10.7035 2.38326 11.6166C3.29639 12.5297 4.45978 13.1516 5.72633 13.4035C6.99288 13.6554 8.30569 13.5261 9.49875 13.032C10.6918 12.5378 11.7115 11.7009 12.429 10.6272C13.1464 9.55352 13.5293 8.29118 13.5293 6.99984C13.5273 5.26883 12.8387 3.60931 11.6147 2.3853C10.3907 1.1613 8.73115 0.472751 7.00012 0.470703ZM10.6091 5.89714L9.08851 7.11301C9.02575 7.16297 8.9794 7.23058 8.95544 7.30713C8.93147 7.38368 8.93099 7.46565 8.95405 7.54248L9.65147 9.86685C9.67581 9.94786 9.67394 10.0345 9.64612 10.1144C9.61831 10.1942 9.56597 10.2633 9.49658 10.3117C9.42718 10.36 9.34429 10.3853 9.25971 10.3837C9.17514 10.3822 9.09322 10.354 9.02563 10.3031L7.24098 8.96438C7.17149 8.91227 7.08698 8.8841 7.00012 8.8841C6.91326 8.8841 6.82875 8.91227 6.75926 8.96438L4.97461 10.3031C4.90702 10.354 4.8251 10.3822 4.74053 10.3837C4.65595 10.3853 4.57306 10.36 4.50367 10.3117C4.43427 10.2633 4.38194 10.1942 4.35412 10.1144C4.3263 10.0345 4.32443 9.94786 4.34877 9.86685L5.04522 7.54248C5.06839 7.46575 5.06806 7.38384 5.04427 7.30729C5.02048 7.23075 4.97432 7.16308 4.91173 7.11301L3.39212 5.89714C3.32714 5.84513 3.27993 5.77421 3.25703 5.6942C3.23413 5.61418 3.23666 5.52902 3.26428 5.45051C3.29191 5.372 3.34325 5.30402 3.41121 5.25597C3.47917 5.20792 3.56038 5.18218 3.64361 5.18232H5.38474C5.46344 5.18239 5.54043 5.15931 5.60613 5.11598C5.67183 5.07264 5.72333 5.01094 5.75425 4.93856L6.63158 2.8918C6.66237 2.81927 6.71383 2.75741 6.77953 2.71393C6.84524 2.67044 6.92229 2.64725 7.00109 2.64725C7.07988 2.64725 7.15693 2.67044 7.22264 2.71393C7.28835 2.75741 7.3398 2.81927 7.37059 2.8918L8.24793 4.93856C8.27878 5.01079 8.33013 5.07238 8.39564 5.11571C8.46115 5.15904 8.53793 5.1822 8.61647 5.18232H10.3595C10.443 5.18193 10.5245 5.20757 10.5927 5.25566C10.6609 5.30376 10.7125 5.37192 10.7401 5.45067C10.7678 5.52942 10.7702 5.61483 10.7471 5.69502C10.724 5.77522 10.6764 5.8462 10.611 5.8981L10.6091 5.89714Z" fill="#EB581F"/>
</svg>
