<svg width="13" height="16" viewBox="0 0 13 16" fill="none" xmlns="http://www.w3.org/2000/svg">
<path d="M0.58835 7.81543C0.58835 7.81543 1.18097 8.68605 2.42304 9.42298C2.42304 9.42298 1.52348 1.82038 7.3847 0.5C5.88303 6.01136 9.29485 7.56564 10.5385 4.65389C12.6155 7.42687 11.0385 9.84614 11.0385 9.84614C11.8901 9.96884 12.6055 9.03843 12.6055 9.03843C12.6119 9.15304 12.6155 9.26844 12.6155 9.38466C12.6155 12.7621 9.87757 15.5 6.50014 15.5C3.12271 15.5 0.384766 12.7621 0.384766 9.38463C0.384766 8.84211 0.455781 8.31623 0.58835 7.81543Z" fill="#FFB446"/>
<path d="M12.6054 9.03843C12.6054 9.03843 11.89 9.96884 11.0384 9.84614C11.0384 9.84614 12.6154 7.42687 10.5384 4.65389C9.29475 7.56564 5.88292 6.01136 7.38459 0.5C7.07067 0.570723 6.7763 0.65958 6.5 0.764199V15.5C9.87743 15.5 12.6154 12.7621 12.6154 9.38463C12.6154 9.26841 12.6118 9.15304 12.6054 9.03843Z" fill="#FFC979"/>
<path d="M3.81836 12.8182C3.81836 14.2994 5.01912 15.5001 6.50031 15.5001C7.9815 15.5001 9.18227 14.2994 9.18227 12.8182C9.18227 12.0254 8.83829 11.3129 8.29141 10.8219C7.25447 12.2307 5.7768 10.0937 6.9284 8.5332C6.9284 8.5332 3.81836 8.92294 3.81836 12.8182Z" fill="white"/>
<path d="M9.18195 12.8182C9.18195 12.0254 8.83798 11.3129 8.29109 10.8219C7.25416 12.2307 5.77648 10.0937 6.92809 8.5332C6.92809 8.5332 6.7591 8.55444 6.5 8.63621V15.5001C7.98119 15.5001 9.18195 14.2994 9.18195 12.8182Z" fill="#7B7B7B" fill-opacity="0.08"/>
</svg>
