<svg width="80" height="66" viewBox="0 0 80 66" fill="none" xmlns="http://www.w3.org/2000/svg">
<path d="M71.6217 11.0041C70.7565 10.0931 69.5389 9.56672 68.28 9.56672C67.0211 9.56672 65.8034 10.0931 64.9887 10.9538L58.8959 17.0053L57.5592 15.6916C56.694 14.7806 55.4764 14.2542 54.2175 14.2542C52.9586 14.2542 51.7409 14.7806 50.9673 15.6C50.0564 16.4652 49.53 17.6828 49.53 18.9417C49.53 20.2006 50.0564 21.4183 50.9215 22.2377L55.5175 26.8291C56.3643 27.7766 57.5957 28.3167 58.905 28.3167C60.2142 28.3167 61.4456 27.7766 62.2009 26.9252L71.5301 17.5959C72.4411 16.7308 72.9675 15.5131 72.9675 14.2542C72.9675 12.9953 72.4411 11.7777 71.6217 11.0041ZM26.9746 27.2502C28.9178 25.4047 28.8293 22.3348 27.0296 20.6217L25.3679 18.9417L26.9746 17.312C28.9084 15.4755 28.8332 12.3936 27.057 10.7156C25.2115 8.7725 22.1417 8.86094 20.4286 10.6606L18.7487 12.3223L17.119 10.7156C15.2825 8.78188 12.2006 8.85703 10.5226 10.6333C8.57949 12.4788 8.66793 15.5486 10.4676 17.2617L12.1293 18.9417L10.5226 20.5714C8.57528 22.4208 8.69043 25.5227 10.399 27.122C12.1947 29.1227 15.4592 29.0186 17.0687 27.2228L18.7487 25.5609L20.3372 27.1219C22.1615 29.1545 25.4428 28.9772 26.9746 27.2502ZM56.3873 32.1436C55.1926 31.6905 53.8284 32.3175 53.3798 33.5306L46.113 51.9925C45.6644 53.2056 46.2869 54.5559 47.5 55C48.6619 55.4408 50.0483 54.8639 50.5075 53.613L57.7743 35.1511C58.2229 33.938 57.6003 32.5877 56.3873 32.1436ZM26.6176 33.5306C26.169 32.313 24.8186 31.6905 23.6101 32.1436C22.397 32.5877 21.7745 33.938 22.2231 35.1511L29.4925 53.613C29.9517 54.8637 31.338 55.4408 32.5 55C33.7131 54.5559 34.3356 53.2056 33.887 51.9925L26.6176 33.5306Z" fill="url(#paint0_linear_809_11455)"/>
<path d="M18.75 0.1875C8.39047 0.1875 0 8.57797 0 18.9375C0 29.2967 8.39047 37.6875 18.75 37.6875C29.1095 37.6875 37.5 29.2967 37.5 18.9375C37.5 8.57797 29.1095 0.1875 18.75 0.1875ZM25.3592 22.2655C26.2967 23.1561 26.2967 24.6561 25.3592 25.5467C24.5161 26.4842 22.9217 26.4845 22.0781 25.5467L18.7498 22.2655L15.4216 25.5467C14.5784 26.4842 12.9841 26.4845 12.1405 25.5467C11.203 24.6561 11.203 23.1561 12.1405 22.2655L15.4216 18.9375L12.1405 15.6092C11.203 14.7186 11.203 13.2186 12.1405 12.328C13.0311 11.3906 14.5308 11.3906 15.4216 12.328L18.7498 15.6092L22.0781 12.328C22.9688 11.3906 24.4684 11.3906 25.3592 12.328C26.2967 13.2186 26.2967 14.7186 25.3592 15.6092L22.0781 18.9375L25.3592 22.2655ZM61.25 0.1875C50.8905 0.1875 42.5 8.57797 42.5 18.9375C42.5 29.2967 50.8905 37.6875 61.25 37.6875C71.6095 37.6875 80 29.2967 80 18.9375C80 8.57797 71.6095 0.1875 61.25 0.1875ZM69.9217 15.8905L60.5467 25.2655C60.125 25.7344 59.5156 25.9688 58.9062 25.9688C58.2969 25.9688 57.6875 25.7344 57.2658 25.2655L52.5783 20.578C51.6408 19.6873 51.6408 18.1873 52.5783 17.2967C53.4689 16.3594 54.9686 16.3594 55.8594 17.2967L58.9064 20.2967L66.6409 12.6092C67.5316 11.6719 69.0313 11.6719 69.922 12.6092C70.8594 13.4998 70.8594 14.9998 69.9217 15.8905Z" fill="url(#paint1_linear_809_11455)"/>
<defs>
<linearGradient id="paint0_linear_809_11455" x1="41.0287" y1="65.817" x2="41.0287" y2="9.28328" gradientUnits="userSpaceOnUse">
<stop stop-color="#FFE59A"/>
<stop offset="1" stop-color="#FFFFD5"/>
</linearGradient>
<linearGradient id="paint1_linear_809_11455" x1="40" y1="37.6875" x2="40" y2="0.1875" gradientUnits="userSpaceOnUse">
<stop stop-color="#FD5900"/>
<stop offset="1" stop-color="#FFDE00"/>
</linearGradient>
</defs>
</svg>
