<svg id="Layer_1" enable-background="new 0 0 512 512" height="512" viewBox="0 0 512 512" width="512" xmlns="http://www.w3.org/2000/svg"><g><path d="m470.431 128.069c-17.23 17.57-26.88 41.2-26.88 65.81v71.83l-77.15-.33-124.44-.54-37.76-.16-148.1-.63v-49.95c-.5-22.49.53-101.78 57.88-156.99 8.46-8.14 17.54-15.16 27.11-21.15 7.76-4.85 15.84-9.03 24.16-12.56 62.41-26.53 138.69-17.34 197.66 9.12 2.49 1.11 2.42 4.67-.1 5.71l-19.97 8.21c-2.98 1.23-2.35 5.62.86 5.96l9.69 1.04c52.17 5.57 95.56 36.65 117.2 73.5.2.35.14.82-.16 1.13z" fill="#823931"/><path d="m470.431 128.069c-17.23 17.57-26.88 41.2-26.88 65.81v71.83l-77.15-.33-124.44-.54c-30.93-46.72-49.69-80.51-37.76-78.62 65.44 10.37 82.11 20.35 127.63 20.35 51.58 0 80.84-15.57 80.84-15.57 0-24.61 4.39-39.16 21.62-56.73-21.64-36.85-66.61-68.14-118.78-73.71l-9.69-1.04c-3.21-.33-3.84-4.73-.86-5.96l19.97-8.21c2.52-1.04 2.59-4.6.1-5.71-50.91-22.84-159.69-12.65-159.69-12.65-2.6-.37-2.5-1.62-.09-3.59 62.41-26.53 138.69-17.34 197.66 9.12 2.49 1.11 2.42 4.67-.1 5.71l-19.97 8.21c-2.98 1.23-2.35 5.62.86 5.96l9.69 1.04c52.17 5.57 95.56 36.65 117.2 73.5.2.35.14.82-.16 1.13z" fill="#6d201b"/><path d="m470.431 128.069c-17.23 17.57-26.88 41.2-26.88 65.81v71.83l-77.15-.33v-40.9s1.14-8.83 4.98-21.16c7.27-23.37 24.22-59.32 61.42-71.51 10.76-3.53 23.22-5.07 37.63-3.74z" fill="#aa5d57"/><path d="m204.201 186.219v78.46l-148.1-.63v-49.95c-.5-22.49.53-101.78 57.88-156.99 8.46-8.14 17.54-15.16 27.11-21.15h.02c-62.67 41.69-23.02 119.3 63.09 150.26z" fill="#aa5d57"/><path d="m470.431 128.069c-17.23 17.57-26.88 41.2-26.88 65.81v71.83l-77.15-.33v-40.9s1.14-8.83 4.98-21.16c26.71-4.56 41.29-12.32 41.29-12.32 0-24.61 4.39-39.16 21.62-56.73-.48-.82-.98-1.64-1.49-2.46 10.76-3.53 23.22-5.07 37.63-3.74z" fill="#8e4542"/><g fill="#fab684"><path d="m93.644 336.017c-3.427.913-7.027 1.4-10.742 1.4-22.979 0-41.608-18.629-41.608-41.608s18.629-41.608 41.608-41.608c4.059 0 7.983.581 11.692 1.665z"/><path d="m405.151 336.283c3.108.741 6.352 1.134 9.687 1.134 22.979 0 41.608-18.629 41.608-41.608s-18.629-41.608-41.608-41.608c-4.059 0-7.983.581-11.692 1.665z"/></g><path d="m405.891 350.199c0 37.26-31.73 81.78-94.34 132.35-17.55 14.24-39.5 22.01-62.14 21.95-10.52.02-20.89-1.64-30.74-4.86h-.01c-11.37-3.71-22.05-9.49-31.46-17.14-62.57-50.53-94.3-95.05-94.3-132.3 0-3.96.15-7.92.49-11.72.4-4.1 1.34-11.76 1.61-21.69-.02-20.42-.2-37.27-.32-51.35-.03-3.37-.05-6.58-.07-9.64-.31-48.26 44.43-85.99 93.75-74.18 44.15 10.58 59.47 31.76 113.59 43.51 30.75 6.67 60.02 1.7 85.1-6 7.98-2.46 16.05 3.54 16.06 11.88.01 13.21-.02 37.78-.02 84.8.18 9.91 1.92 18.53 2.32 22.57.32 3.9.48 7.86.48 11.82z" fill="#ffe8c8"/><g><path d="m218.661 298.479c0 10.14-5.3 19.22-13.65 25.31-6.77 4.95-15.54 7.93-25.13 7.93-21.41 0-38.77-14.89-38.77-33.24 0-18.36 17.36-33.24 38.77-33.24 9.58 0 18.35 2.98 25.12 7.92 8.36 6.09 13.66 15.17 13.66 25.32z" fill="#fff"/><path d="m218.661 298.479c0 10.14-5.3 19.22-13.65 25.31h-.81c-13.98 0-25.32-11.33-25.32-25.31s11.34-25.32 25.32-25.32h.8c8.36 6.09 13.66 15.17 13.66 25.32z" fill="#003343"/></g><g><path d="m357.689 298.476c0 10.14-5.3 19.22-13.65 25.31-6.77 4.95-15.54 7.93-25.13 7.93-21.41 0-38.77-14.89-38.77-33.24 0-18.36 17.36-33.24 38.77-33.24 9.58 0 18.35 2.98 25.12 7.92 8.36 6.09 13.66 15.17 13.66 25.32z" fill="#fff"/><path d="m357.689 298.476c0 10.14-5.3 19.22-13.65 25.31h-.81c-13.98 0-25.32-11.33-25.32-25.31s11.34-25.32 25.32-25.32h.8c8.36 6.09 13.66 15.17 13.66 25.32z" fill="#003343"/></g><path d="m405.891 350.199c0 37.26-31.73 81.78-94.34 132.35-17.55 14.24-39.5 22.01-62.14 21.95-10.52.02-20.89-1.64-30.74-4.86 16.89-2.9 53.28-14.86 66.71-25.77 64.06-51.73 93.52-84.28 93.52-122.4 0-4.05-.16-8.1-.49-12.09-.41-4.13-2.19-12.96-2.37-23.09 0-20.54 0-36.89.01-49.94 0-12.47-11.03-21.98-23.38-20.26-16.81 2.34-34.7 2.42-53.11-1.58-55.36-12.01-65.04-29.68-110.21-40.51-45.42-10.87-87.03 19.31-94.67 61.44-.03-3.37-.05-6.58-.07-9.64-.31-48.26 44.43-85.99 93.75-74.18 44.15 10.58 59.47 31.76 113.59 43.51 30.75 6.67 60.02 1.7 85.1-6 7.98-2.46 16.05 3.54 16.06 11.88.01 13.21-.02 37.78-.02 84.8.18 9.91 1.92 18.53 2.32 22.57.32 3.9.48 7.86.48 11.82z" fill="#fdd9b4"/></g><g><path d="m475.785 133.322c2.667-2.719 3.191-6.903 1.271-10.182-23.577-40.15-67.426-68.884-115.652-76.224l4.257-1.75c3.93-1.615 6.513-5.405 6.58-9.654.067-4.243-2.39-8.106-6.259-9.841-41.622-18.675-88.369-27.662-131.639-25.3-50.092 2.731-93.51 20.482-125.559 51.333-20.557 19.788-36.174 44.48-46.417 73.388-1.383 3.904.66 8.191 4.564 9.574 3.904 1.381 8.191-.66 9.574-4.564 6.607-18.648 15.608-35.367 26.865-49.943-.555 4.928-.528 9.992.1 15.158 2.352 19.351 12.849 38.844 30.357 56.374 7.603 7.612 16.32 14.627 25.945 20.919-14.857 1.869-29.02 7.738-41.054 17.294-17.896 14.211-28.974 34.634-31.194 57.013-1.532-.143-3.074-.216-4.622-.216-6.849 0-13.374 1.41-19.302 3.954v-36.558c0-.055 0-.111-.002-.166-.375-16.943.98-33.898 4.028-50.393.753-4.073-1.939-7.985-6.012-8.738-4.071-.757-7.985 1.939-8.738 6.012-3.229 17.473-4.667 35.429-4.276 53.366v46.52c-9.13 8.922-14.806 21.366-14.806 35.11 0 27.079 22.03 49.109 49.108 49.109.865 0 1.729-.023 2.59-.068-.06 1.74-.09 3.524-.09 5.346 0 33.866 23.874 72.82 70.957 115.778 1.438 1.312 3.249 1.96 5.053 1.96 2.035 0 4.063-.823 5.542-2.445 2.792-3.06 2.574-7.804-.485-10.596-43.839-39.997-66.067-75.222-66.067-104.697 0-3.935.154-7.65.45-10.976.06-.612.133-1.305.213-2.074.477-4.557 1.2-11.639 1.436-20.346l-.389-61.045c-.137-21.188 9.316-40.908 25.934-54.104 16.455-13.066 37.802-17.71 58.569-12.737 19.649 4.71 33.417 11.648 47.994 18.994 17.616 8.876 35.831 18.056 65.754 24.551 3.453.749 6.991 1.379 10.518 1.873 4.104.577 7.893-2.287 8.467-6.389.574-4.103-2.287-7.893-6.389-8.467-3.158-.442-6.326-1.006-9.415-1.676-28.058-6.091-45.407-14.834-62.185-23.288-10.58-5.331-21.419-10.793-34.621-15.344l.002-.005c-48.768-17.535-84.285-51.958-88.38-85.655-2.436-20.049 6.686-37.66 26.387-50.965 60.615-38.045 142.253-32.744 205.51-7.262l-10.267 4.221c-4.495 1.849-7.155 6.499-6.468 11.309.687 4.811 4.542 8.531 9.375 9.048l9.7 1.04c23.576 2.517 46.657 10.764 66.748 23.847 15.011 9.776 27.898 21.87 37.81 35.408-33.634 1.028-60.81 17.845-79.142 49.209-11.409 19.519-16.315 39.432-18.132 48.754-4.051.73-8.033 1.307-11.972 1.735-4.118.447-7.093 4.148-6.646 8.266.448 4.118 4.15 7.096 8.266 6.646 12.661-1.375 25.656-4.145 39.729-8.468 2.048-.629 3.601.196 4.343.745 1.276.941 2.008 2.389 2.009 3.972l-.016 84.936c.14 7.625 1.145 14.558 1.811 19.146.234 1.617.438 3.018.534 3.972.302 3.655.456 7.4.456 11.131 0 34.886-30.804 77.453-91.568 126.529-16.183 13.129-36.538 20.333-57.428 20.275-20.86.008-41.29-7.174-57.469-20.316-3.216-2.611-7.938-2.123-10.55 1.092s-2.123 7.939 1.092 10.55c18.799 15.27 42.496 23.673 66.716 23.673h.479c24.177-.001 47.824-8.386 66.598-23.617 64.451-52.054 97.131-98.547 97.131-138.188 0-1.767-.031-3.537-.093-5.302.512.016 1.024.024 1.536.024 27.079 0 49.108-22.03 49.108-49.109 0-12.758-4.891-24.395-12.896-33.136v-68.792c-.001-22.79 8.783-44.297 24.734-60.558zm-426.991 162.487c0-18.807 15.301-34.108 34.108-34.108 1.427 0 2.847.088 4.252.262.026 3.431.058 7.034.091 10.821.11 12.645.235 26.973.256 43.916-.138 4.984-.449 9.367-.774 13.005-1.266.141-2.543.212-3.825.212-18.807 0-34.108-15.3-34.108-34.108zm336.059-83.854c-2.986.917-5.916 1.759-8.799 2.528 2.326-9.44 6.81-23.694 14.909-37.552 15.191-25.99 36.568-39.952 63.689-41.655-12.082 17.024-18.601 37.339-18.601 58.605v57.642c-6.424-3.089-13.62-4.822-21.212-4.822-1.415 0-2.825.061-4.227.181.002-6.604.003-11.788 0-15.882-.005-6.389-2.957-12.231-8.1-16.028-5.133-3.789-11.568-4.887-17.659-3.017zm29.985 117.962c-1.016 0-2.029-.045-3.037-.134-.548-3.996-1.108-8.847-1.208-14.04 0-22.779.006-40.286.012-53.783 1.399-.173 2.812-.26 4.233-.26 18.808 0 34.108 15.301 34.108 34.108 0 18.809-15.3 34.109-34.108 34.109z"/><path d="m248.861 345.758c-12.634 0-22.913 10.279-22.913 22.913 0 4.142 3.358 7.5 7.5 7.5s7.5-3.358 7.5-7.5c0-4.363 3.55-7.913 7.913-7.913s7.913 3.55 7.913 7.913c0 4.142 3.358 7.5 7.5 7.5s7.5-3.358 7.5-7.5c0-12.634-10.278-22.913-22.913-22.913z"/><path d="m198.869 395.021c-2.032-3.609-6.604-4.889-10.215-2.857-3.609 2.032-4.889 6.605-2.857 10.215 12.807 22.755 36.973 36.891 63.066 36.891s50.259-14.136 63.066-36.891c2.031-3.61.752-8.183-2.857-10.215-3.608-2.03-8.182-.751-10.215 2.857-10.154 18.041-29.31 29.249-49.994 29.249s-39.84-11.208-49.994-29.249z"/><path d="m179.886 257.738c-25.518 0-46.278 18.275-46.278 40.738s20.76 40.738 46.278 40.738 46.278-18.275 46.278-40.738-20.76-40.738-46.278-40.738zm-31.278 40.738c0-14.192 14.031-25.738 31.278-25.738 1.269 0 2.52.063 3.749.184-7.466 6.02-12.249 15.239-12.249 25.554s4.784 19.534 12.249 25.554c-1.23.121-2.481.184-3.749.184-17.247.001-31.278-11.545-31.278-25.738zm53.922 17.738c-9.043-.845-16.144-8.478-16.144-17.738s7.101-16.892 16.144-17.738c5.347 4.62 8.634 10.869 8.634 17.738s-3.287 13.118-8.634 17.738z"/><path d="m365.189 298.476c0-22.463-20.76-40.738-46.278-40.738s-46.278 18.275-46.278 40.738 20.76 40.738 46.278 40.738 46.278-18.274 46.278-40.738zm-23.591 17.701c-8.869-1.013-15.781-8.564-15.781-17.701s6.912-16.688 15.781-17.701c5.322 4.616 8.591 10.85 8.591 17.701s-3.269 13.084-8.591 17.701zm-53.966-17.701c0-14.192 14.031-25.738 31.278-25.738 1.393 0 2.764.076 4.109.222-7.439 6.021-12.204 15.223-12.204 25.517s4.764 19.496 12.204 25.517c-1.345.146-2.717.222-4.109.222-17.246-.001-31.278-11.547-31.278-25.74z"/></g></svg>