<svg id="icon" height="512" viewBox="0 0 128 128" width="512" xmlns="http://www.w3.org/2000/svg"><rect fill="#707583" height="7.706" rx="1.963" width="11.13" x="115.87" y="36.481"/><path d="m125.037 45.186h-7.2a2.967 2.967 0 0 1 -2.963-2.963v-3.779a2.967 2.967 0 0 1 2.963-2.963h7.2a2.967 2.967 0 0 1 2.963 2.963v3.779a2.967 2.967 0 0 1 -2.963 2.963zm-7.2-7.706a.964.964 0 0 0 -.963.963v3.779a.964.964 0 0 0 .963.963h7.2a.964.964 0 0 0 .963-.963v-3.778a.964.964 0 0 0 -.963-.963z" fill="#2f3a5a"/><path d="m107.633 50.808a1 1 0 0 1 -.576-1.818l8.807-6.191a1 1 0 0 1 1.15 1.636l-8.807 6.191a.994.994 0 0 1 -.574.182z" fill="#2f3a5a"/><rect fill="#707583" height="7.706" rx="1.963" transform="matrix(-1 0 0 -1 13.13 80.667)" width="11.13" x="1" y="36.481"/><path d="m10.167 45.186h-7.2a2.967 2.967 0 0 1 -2.967-2.963v-3.779a2.967 2.967 0 0 1 2.963-2.964h7.2a2.967 2.967 0 0 1 2.963 2.963v3.779a2.967 2.967 0 0 1 -2.959 2.964zm-7.2-7.706a.964.964 0 0 0 -.967.964v3.779a.964.964 0 0 0 .963.963h7.2a.964.964 0 0 0 .963-.963v-3.779a.964.964 0 0 0 -.963-.963z" fill="#2f3a5a"/><path d="m20.367 50.808a.994.994 0 0 1 -.574-.182l-8.807-6.191a1 1 0 1 1 1.15-1.636l8.807 6.191a1 1 0 0 1 -.576 1.818z" fill="#2f3a5a"/><rect fill="#3a556a" height="28.735" rx="3.707" transform="matrix(1 -.002 .002 1 -.16 .18)" width="18.151" x="99.479" y="81.896"/><path d="m103.2 111.641a4.707 4.707 0 0 1 -4.707-4.7l-.032-21.321a4.707 4.707 0 0 1 4.7-4.715l10.737-.018h.008a4.707 4.707 0 0 1 4.707 4.7l.035 21.321a4.706 4.706 0 0 1 -4.7 4.714l-10.737.018zm10.7-28.753-10.737.018a2.707 2.707 0 0 0 -2.7 2.712l.035 21.321a2.708 2.708 0 0 0 2.707 2.7l10.737-.018a2.707 2.707 0 0 0 2.7-2.711l-.035-21.321a2.707 2.707 0 0 0 -2.707-2.7z" fill="#2f3a5a"/><rect fill="#3a556a" height="28.735" rx="3.707" transform="matrix(1 -.002 .002 1 -.16 .032)" width="18.151" x="10.37" y="81.896"/><path d="m14.095 111.641a4.707 4.707 0 0 1 -4.707-4.7l-.035-21.321a4.707 4.707 0 0 1 4.7-4.715l10.737-.018h.01a4.712 4.712 0 0 1 4.707 4.7l.035 21.321a4.706 4.706 0 0 1 -4.7 4.714l-10.737.018zm10.7-28.753-10.737.018a2.707 2.707 0 0 0 -2.7 2.712l.035 21.321a2.708 2.708 0 0 0 2.707 2.7l10.737-.018a2.707 2.707 0 0 0 2.7-2.711l-.037-21.32a2.707 2.707 0 0 0 -2.707-2.7z" fill="#2f3a5a"/><path d="m123.1 75.643a76.689 76.689 0 0 1 -2.441 16.078 8.258 8.258 0 0 1 -7.989 6.128l-48.57.064h-.109l-48.591.087a8.217 8.217 0 0 1 -7.991-6.088 76.771 76.771 0 0 1 -2.521-16.612c-.1-2.645-.033-4.963.084-6.9a24.948 24.948 0 0 1 2.962-10.214l6.1-11.4s10.769-24.8 15.331-26.794c2.213-.972 10.342-1.619 18.2-2.021 7.828-.4 15.355-.588 16.282-.612h.109c1.882.035 30.075.593 34.485 2.494 4.572 2.01 15.428 26.763 15.428 26.763l6.141 11.37a24.97 24.97 0 0 1 2.983 10.239 63.408 63.408 0 0 1 .107 7.418z" fill="#f14253"/><path d="m15.371 99a9.194 9.194 0 0 1 -8.932-6.836 77.716 77.716 0 0 1 -2.55-16.833c-.086-2.332-.059-4.62.085-7a26.117 26.117 0 0 1 3.08-10.628l6.1-11.4c1.083-2.5 11.028-25.143 15.812-27.238 1.974-.867 8.214-1.575 18.547-2.1 6.953-.357 13.683-.547 16.253-.612h.134c5.119.1 30.512.669 34.935 2.575 4.8 2.109 14.821 24.709 15.948 27.279l6.1 11.3a25.852 25.852 0 0 1 3.1 10.65 64.155 64.155 0 0 1 .1 7.522 77.692 77.692 0 0 1 -2.472 16.288 9.256 9.256 0 0 1 -8.955 6.878l-48.556.069h-.115l-48.585.086zm48.477-81.641-.03 1c-2.563.064-9.272.253-16.2.609-13.231.678-16.86 1.505-17.846 1.938-3.062 1.341-10.713 16.829-14.816 26.277l-6.14 11.475a24.1 24.1 0 0 0 -2.845 9.807c-.14 2.3-.167 4.529-.083 6.8a75.689 75.689 0 0 0 2.486 16.4 7.2 7.2 0 0 0 7 5.342h.026l48.6-.091h.115l48.561-.064a7.254 7.254 0 0 0 7.023-5.38 75.7 75.7 0 0 0 2.401-15.872 62.31 62.31 0 0 0 -.1-7.3 23.882 23.882 0 0 0 -2.867-9.841l-6.14-11.369c-4.173-9.505-11.88-24.972-14.951-26.322-3.377-1.455-23.025-2.2-34.1-2.409z" fill="#2f3a5a"/><path d="m105.232 44.881-41.063.069h-.1l-11.36.014-5.328.014h-3.364l-2.788.014h-.014l-18.206.028 8.64-19.241a2.861 2.861 0 0 1 2.526-1.67l22-.621h.014l2.816-.083 3.437-.1 1.642-.041h.041l3.616.083 26.259.653a2.849 2.849 0 0 1 2.526 1.684z" fill="#3dbce9"/><g fill="#fff" opacity=".75"><path d="m59.007 23.404-14.99 21.573-2.788.014 14.948-21.504h.014z"/><path d="m72.479 23.349-13.472 21.615-11.622.013 15.059-21.67 1.642-.041h.042z"/></g><path d="m23 46.019a1 1 0 0 1 -.912-1.41l8.652-19.236a3.871 3.871 0 0 1 3.4-2.269l29.912-.842a.993.993 0 0 1 .1 0l29.87.738a3.874 3.874 0 0 1 3.41 2.257l8.712 19.208a1 1 0 0 1 -.909 1.413zm41.088-21.758-29.888.839a1.86 1.86 0 0 0 -1.635 1.09l-8.014 17.827 79.133-.132-8.073-17.8a1.861 1.861 0 0 0 -1.638-1.085l-29.867-.741z" fill="#2f3a5a"/><path d="m83.041 72.378h-38.082a1 1 0 0 1 0-2h38.082a1 1 0 0 1 0 2z" fill="#2f3a5a"/><path d="m83.041 76.789h-38.082a1 1 0 0 1 0-2h38.082a1 1 0 0 1 0 2z" fill="#2f3a5a"/><path d="m46.838 83.17h34.324v8.791h-34.324z" fill="#f0f5f9"/><path d="m81.162 92.96h-34.324a1 1 0 0 1 -1-1v-8.79a1 1 0 0 1 1-1h34.324a1 1 0 0 1 1 1v8.79a1 1 0 0 1 -1 1zm-33.324-2h32.324v-6.79h-32.324z" fill="#2f3a5a"/><path d="m114.423 64.313s-24.511 1.73-25.376 14.13h25.376a13.386 13.386 0 0 0 0-14.13z" fill="#f0f5f9"/><path d="m114.423 79.443h-25.377a1 1 0 0 1 -1-1.07c.915-13.116 25.268-14.984 26.3-15.058a1.017 1.017 0 0 1 .939.5 14.383 14.383 0 0 1 0 15.121 1 1 0 0 1 -.862.507zm-24.233-2h23.642a12.188 12.188 0 0 0 .029-12.075c-3.639.364-21.745 2.645-23.672 12.075z" fill="#2f3a5a"/><path d="m13.577 64.313s24.511 1.73 25.376 14.13h-25.376a13.386 13.386 0 0 1 0-14.13z" fill="#f0f5f9"/><path d="m38.954 79.443h-25.377a1 1 0 0 1 -.869-.5 14.383 14.383 0 0 1 0-15.121 1.011 1.011 0 0 1 .939-.5c1.036.073 25.389 1.942 26.3 15.058a1 1 0 0 1 -1 1.07zm-24.785-2h23.642c-1.927-9.43-20.033-11.711-23.671-12.075a12.188 12.188 0 0 0 .028 12.075z" fill="#2f3a5a"/><g fill="#c1cdd3"><circle cx="109.114" cy="71.925" r="3.28"/><circle cx="100.524" cy="72.705" r="2.238"/><circle cx="19.229" cy="71.925" r="3.28"/><circle cx="27.819" cy="72.705" r="2.238"/></g></svg>