<svg width="38" height="36" viewBox="0 0 38 36" fill="none" xmlns="http://www.w3.org/2000/svg">
<g clip-path="url(#clip0_829_235)">
<path d="M16.5964 35.1122C16.907 35.1278 17.202 35.1433 17.5125 35.1433C21.9999 35.1433 26.332 33.3732 29.5307 30.2056C30.1207 29.6311 30.4312 28.8082 30.3847 27.9852C30.3381 27.1623 29.9499 26.3859 29.2977 25.8735L20.6335 19.0105C20.4919 18.8982 20.3775 18.7554 20.2989 18.5928C20.2203 18.4301 20.1794 18.2517 20.1794 18.0711C20.1794 17.8904 20.2203 17.712 20.2989 17.5494C20.3775 17.3867 20.4919 17.2439 20.6335 17.1317L29.3443 10.2997C29.9965 9.78725 30.3847 9.02642 30.4468 8.20347C30.4933 7.38052 30.1828 6.57311 29.6083 5.98307C25.5091 1.86834 19.6708 0.113759 13.7084 1.387C11.9538 1.75965 10.2613 2.44285 8.72409 3.39001C3.30507 6.77496 0.308299 12.4269 0.463572 18.4981C0.680954 27.3331 7.77693 34.6309 16.5964 35.1122ZM20.4938 5.87438C21.7825 5.87438 22.8229 6.91471 22.8229 8.20347C22.8229 9.47671 21.7825 10.5326 20.4938 10.5326C19.2205 10.5326 18.1647 9.47671 18.1647 8.20347C18.1647 6.91471 19.2205 5.87438 20.4938 5.87438Z" fill="white"/>
<path d="M23.9252 16.759C22.9967 17.4966 23.1132 18.5726 23.6923 19.1502C24.155 19.6161 24.9066 19.7962 25.6488 19.3521C26.5742 18.731 26.4888 17.509 25.8817 16.9609C25.4345 16.4951 24.7715 16.3367 23.9252 16.759ZM29.2977 16.9609C29.0754 17.1748 28.9236 17.4514 28.8626 17.7538C28.8016 18.0562 28.8342 18.37 28.9561 18.6534C29.0437 18.8658 29.1775 19.0562 29.3476 19.2107C29.5177 19.3652 29.7201 19.48 29.9399 19.5468C30.1598 19.6137 30.3918 19.6308 30.6192 19.5971C30.8465 19.5634 31.0635 19.4797 31.2546 19.3519C31.4456 19.2242 31.6059 19.0556 31.7239 18.8584C31.8419 18.6611 31.9147 18.4402 31.9369 18.2114C31.9591 17.9827 31.9303 17.7519 31.8525 17.5356C31.7747 17.3193 31.6499 17.123 31.487 16.9609C30.9405 16.4097 29.7821 16.3522 29.2977 16.9609ZM37.0784 16.9609C36.6794 16.4609 35.5723 16.273 34.8891 16.9609C34.5995 17.2516 34.4369 17.6452 34.4369 18.0556C34.4369 18.4659 34.5995 18.8595 34.8891 19.1502C35.4636 19.7915 36.6281 19.7139 37.0784 19.1502C37.2254 19.0083 37.3423 18.8382 37.4221 18.6502C37.502 18.4621 37.5431 18.2599 37.5431 18.0556C37.5431 17.8512 37.502 17.649 37.4221 17.4609C37.3423 17.2729 37.2254 17.1028 37.0784 16.9609Z" fill="white"/>
</g>
<defs>
<clipPath id="clip0_829_235">
<rect width="37.1429" height="35" fill="white" transform="translate(0.428589 0.5)"/>
</clipPath>
</defs>
</svg>
