<svg width="46" height="46" viewBox="0 0 46 46" fill="none" xmlns="http://www.w3.org/2000/svg">
<path d="M33.1989 9.41046H32.0745V6.95369C33.6236 6.40637 34.5531 4.82187 34.2751 3.20248C33.997 1.58266 32.5929 0.398926 30.9496 0.398926C29.3063 0.398926 27.9023 1.58266 27.6242 3.20248C27.3463 4.82198 28.2758 6.40637 29.8248 6.95369V9.41036H16.3289V6.95369C17.8784 6.40637 18.8075 4.82187 18.5299 3.20248C18.2522 1.58266 16.848 0.398926 15.2047 0.398926C13.5614 0.398926 12.1569 1.58266 11.8793 3.20248C11.6014 4.82198 12.5305 6.40637 14.0799 6.95369V9.41036H12.9551C9.85105 9.41373 7.33534 11.9293 7.33197 15.0336V34.1526C7.33534 37.2571 9.85094 39.7728 12.9551 39.7761H16.3291V44.2744C16.3292 44.4752 16.3831 44.6723 16.485 44.8452C16.587 45.0181 16.7334 45.1606 16.909 45.258C17.0845 45.3552 17.2828 45.4037 17.4835 45.3985C17.6841 45.3932 17.8796 45.3343 18.0498 45.2279L26.7739 39.7761H33.1989C36.3035 39.7732 38.8197 37.2572 38.8224 34.1526V15.0335C38.8196 11.9292 36.3035 9.41331 33.1989 9.41046ZM17.4538 16.1584C19.3164 16.1605 20.8257 17.6699 20.8278 19.5323C20.8278 20.1534 20.3246 20.6567 19.703 20.6567C19.082 20.6567 18.5786 20.1534 18.5786 19.5323C18.5786 18.9113 18.0751 18.4074 17.4538 18.4074C16.8328 18.4074 16.3291 18.9111 16.3291 19.5322C16.3291 20.1534 15.8258 20.6566 15.2047 20.6566C14.5836 20.6566 14.0799 20.1533 14.0799 19.5322C14.082 17.6698 15.5914 16.1605 17.4538 16.1584ZM31.4526 30.0978C28.8351 31.3323 25.9708 31.9543 23.077 31.9166C20.1833 31.9545 17.3192 31.3325 14.7014 30.0978C14.1458 29.8202 13.921 29.1443 14.1985 28.5887C14.4765 28.033 15.152 27.8078 15.7076 28.0858C19.9086 30.1855 26.2467 30.1855 30.4469 28.0858C31.0025 27.8078 31.6779 28.033 31.9559 28.5887C32.2335 29.1443 32.0083 29.8202 31.4526 30.0978ZM30.9497 20.6567C30.6515 20.6571 30.3653 20.5385 30.1544 20.3277C29.9435 20.1168 29.8249 19.8305 29.8249 19.5323C29.8249 18.9113 29.3216 18.4076 28.7005 18.4076C28.0794 18.4076 27.5757 18.9112 27.5757 19.5323C27.5757 20.1535 27.0725 20.6567 26.4509 20.6567C25.8299 20.6567 25.3266 20.1534 25.3266 19.5323C25.3266 17.6687 26.8369 16.1584 28.7005 16.1584C30.5638 16.1584 32.0745 17.6687 32.0745 19.5323C32.0745 19.8305 31.9564 20.1168 31.745 20.3277C31.5341 20.5385 31.248 20.6572 30.9497 20.6567ZM42.1964 18.4074H41.0716V29.6543H42.1964C44.0588 29.6522 45.5682 28.1428 45.5703 26.2804V21.7814C45.5682 19.919 44.0588 18.4096 42.1964 18.4074ZM0.584045 21.7814V26.2803C0.586154 28.1427 2.09558 29.6521 3.95801 29.6542H5.0828V18.4074H3.95801C2.09558 18.4096 0.586154 19.919 0.584045 21.7814Z" fill="white"/>
</svg>
