<svg width="41" height="40" viewBox="0 0 41 40" fill="none" xmlns="http://www.w3.org/2000/svg">
<g clip-path="url(#clip0_832_268)">
<path d="M5.26562 32.9688V35.3125H3.20312L0.5 40H16.9844L14.2812 35.3125H12.2969V32.9688H9.95312V6.81539C11.3142 6.33 12.2969 5.04141 12.2969 3.51562C12.2969 1.57703 10.7198 0 8.78125 0C6.84266 0 5.26562 1.57703 5.26562 3.51562C5.26562 5.04141 6.24828 6.33 7.60938 6.81539V32.9688H5.26562Z" fill="white"/>
<path d="M26.6614 4.94619C22.9845 5.71635 20.8582 6.86651 19.1507 7.79119C17.4421 8.71471 16.1638 9.38651 14.026 9.37158C13.4735 9.3669 12.8823 9.21979 12.2968 9.02057V23.3417C13.3446 23.4726 14.425 23.5555 15.5251 23.5555C19.431 23.5555 23.4914 22.6606 26.4645 20.3821C29.0051 18.2317 29.9266 18.5773 31.9671 19.4093L33.9 20.1978L33.5659 18.1367C33.1574 15.6202 32.4386 13.6038 31.3275 11.8814C32.7809 10.5974 35.1223 9.49416 37.6229 8.5958L40.5 7.56002L37.6675 6.4076C33.8086 4.83518 29.8349 4.3408 26.6614 4.94619Z" fill="white"/>
</g>
<defs>
<clipPath id="clip0_832_268">
<rect width="40" height="40" fill="white" transform="translate(0.5)"/>
</clipPath>
</defs>
</svg>
