<svg width="17" height="13" viewBox="0 0 17 13" fill="none" xmlns="http://www.w3.org/2000/svg">
<path d="M16.6927 9.94923C16.6543 7.81153 16.4019 5.64984 15.9878 3.46798C15.6505 1.95207 14.437 0.601927 12.498 0.503043C11.0666 0.44416 10.7897 1.25956 9.16791 1.24388C8.72373 1.241 8.27987 1.241 7.83568 1.24388C6.21353 1.25956 5.93607 0.44416 4.50529 0.503043C2.56599 0.601927 1.31474 1.94855 1.01424 3.46798C0.599822 5.64984 0.34733 7.81121 0.309248 9.94891C0.299967 11.4373 1.76948 12.4274 2.73912 12.4953C4.61217 12.6367 6.10024 9.33384 7.23406 9.33352C8.07922 9.33832 8.92406 9.33864 9.76922 9.33352C10.9033 9.33352 12.3901 12.637 14.2645 12.4956C15.2338 12.4277 16.7414 11.4309 16.6931 9.94923H16.6927ZM6.41834 5.77816H5.5447V6.6518C5.5447 7.02046 5.2458 7.31935 4.87714 7.31935C4.50849 7.31935 4.20959 7.02046 4.20959 6.6518V5.77816H3.33595C2.96729 5.77816 2.6684 5.47927 2.6684 5.11061C2.6684 4.74195 2.96729 4.44306 3.33595 4.44306H4.20959V3.56942C4.20959 3.20076 4.50849 2.90187 4.87714 2.90187C5.2458 2.90187 5.5447 3.20076 5.5447 3.56942V4.44306H6.41834C6.78699 4.44306 7.08589 4.74195 7.08589 5.11061C7.08589 5.47927 6.78699 5.77816 6.41834 5.77816ZM11.8128 7.31903C11.2902 7.33311 10.8557 6.92029 10.8416 6.39803C10.8278 5.87385 11.241 5.43863 11.7632 5.42519C12.2861 5.41206 12.7214 5.82456 12.7348 6.34747C12.7479 6.87037 12.3354 7.30559 11.8128 7.31903ZM13.3889 4.79572C12.8663 4.81044 12.4308 4.3973 12.4164 3.87472C12.4033 3.35117 12.8158 2.91659 13.3387 2.90219C13.8622 2.88843 14.2968 3.30157 14.3109 3.82447C14.3246 4.34706 13.9112 4.7826 13.3889 4.79572Z" fill="white"/>
</svg>
