<svg width="15" height="13" viewBox="0 0 15 13" fill="none" xmlns="http://www.w3.org/2000/svg">
<path d="M8.75358 8.19017C8.3804 8.43896 7.94692 8.57047 7.5 8.57047C7.05311 8.57047 6.61963 8.43896 6.24645 8.19017L0.099873 4.09232C0.0659415 4.06964 0.032638 4.04603 0 4.02151L0 10.7363C0 11.5061 0.624756 12.1171 1.38085 12.1171H13.6191C14.389 12.1171 15 11.4924 15 10.7363V4.02148C14.9673 4.04606 14.9339 4.06972 14.8999 4.09244L8.75358 8.19017Z" fill="#B1CDD7"/>
<path d="M0.587403 3.36109L6.73398 7.45896C6.96665 7.61409 7.23331 7.69164 7.49997 7.69164C7.76666 7.69164 8.03335 7.61406 8.26603 7.45896L14.4126 3.36109C14.7804 3.11603 15 2.70587 15 2.26319C15 1.50203 14.3808 0.882812 13.6196 0.882812H1.38038C0.619249 0.882842 7.26593e-07 1.50206 7.26593e-07 2.26393C-0.000227455 2.48108 0.0532919 2.69491 0.155785 2.88635C0.258279 3.07779 0.40656 3.24089 0.587403 3.36109Z" fill="#B1CDD7"/>
</svg>
