<svg width="15" height="15" viewBox="0 0 15 15" fill="none" xmlns="http://www.w3.org/2000/svg">
<path d="M14.0789 10.5938C14.0405 10.5633 11.25 8.55188 10.4841 8.69625C10.1184 8.76094 9.90938 9.01031 9.48984 9.50953C9.42234 9.59016 9.26016 9.78328 9.13406 9.92062C8.86894 9.83415 8.61031 9.72888 8.36016 9.60563C7.06899 8.97704 6.02578 7.93382 5.39719 6.64266C5.27384 6.39254 5.16857 6.13391 5.08219 5.86875C5.22 5.74219 5.41313 5.58 5.49563 5.51062C5.9925 5.09344 6.24234 4.88437 6.30703 4.51781C6.43969 3.75844 4.42969 0.94875 4.40859 0.923438C4.3174 0.793158 4.19838 0.684779 4.06016 0.606142C3.92194 0.527505 3.76796 0.480576 3.60938 0.46875C2.79469 0.46875 0.46875 3.48609 0.46875 3.99422C0.46875 4.02375 0.511406 7.02562 4.21312 10.7911C7.97484 14.4886 10.9762 14.5312 11.0058 14.5312C11.5144 14.5312 14.5312 12.2053 14.5312 11.3906C14.5196 11.2326 14.4729 11.0791 14.3947 10.9413C14.3165 10.8035 14.2086 10.6848 14.0789 10.5938Z" fill="#B1CDD7"/>
</svg>
