<svg width="95" height="17.42" viewBox="0 0 109 20" fill="none" xmlns="http://www.w3.org/2000/svg">
<path d="M98.6629 6.69496H101.178V19H98.6629V6.69496ZM93.7723 6.06625C91.6923 6.06625 90 7.75852 90 9.83857V19H92.5149V15.1378H95.0298V19H97.5447V9.8386C97.5446 7.75852 95.8524 6.06625 93.7723 6.06625ZM95.0298 12.6229H92.5149V9.83857C92.5149 9.14522 93.079 8.58114 93.7723 8.58114C94.4657 8.58114 95.0297 9.14522 95.0297 9.83857L95.0298 12.6229ZM106.012 2.98791L104.378 0L102.744 2.98791L99.7558 4.62207L102.744 6.25624L104.378 9.24415L106.012 6.25624L109 4.62207L106.012 2.98791Z" fill="white"/>
<path d="M0.135986 7.608H4.53599C5.78399 7.608 6.85599 7.832 7.75199 8.28C8.64799 8.728 9.33065 9.37867 9.79999 10.232C10.28 11.0853 10.52 12.104 10.52 13.288C10.52 14.4827 10.2853 15.5067 9.81599 16.36C9.34665 17.2133 8.66399 17.8693 7.76799 18.328C6.87199 18.776 5.79465 19 4.53599 19H0.135986V7.608ZM4.37599 16.984C6.80799 16.984 8.02399 15.752 8.02399 13.288C8.02399 10.8453 6.80799 9.624 4.37599 9.624H2.63199V16.984H4.37599Z" fill="white"/>
<path d="M12.3197 10.888H14.7357V19H12.3197V10.888ZM14.8157 7.08V9.352H12.2397V7.08H14.8157Z" fill="white"/>
<path d="M19.8144 19.128C18.2784 19.128 17.0677 18.7973 16.1824 18.136L16.8224 16.456C17.249 16.7653 17.7237 17.0053 18.2464 17.176C18.769 17.336 19.3024 17.416 19.8464 17.416C20.2624 17.416 20.5824 17.352 20.8064 17.224C21.0304 17.096 21.1424 16.9093 21.1424 16.664C21.1424 16.4613 21.0624 16.3013 20.9024 16.184C20.7424 16.0667 20.4597 15.9653 20.0544 15.88L18.7264 15.576C17.9477 15.4053 17.3717 15.1333 16.9984 14.76C16.6357 14.3867 16.4544 13.8907 16.4544 13.272C16.4544 12.7707 16.5984 12.3227 16.8864 11.928C17.185 11.5333 17.5957 11.2293 18.1184 11.016C18.641 10.792 19.2437 10.68 19.9264 10.68C20.5024 10.68 21.0677 10.7707 21.6224 10.952C22.177 11.1227 22.673 11.368 23.1104 11.688L22.4384 13.304C22.0224 13.016 21.5957 12.7973 21.1584 12.648C20.7317 12.4987 20.3157 12.424 19.9104 12.424C19.5157 12.424 19.2064 12.4933 18.9824 12.632C18.7584 12.7707 18.6464 12.9627 18.6464 13.208C18.6464 13.3893 18.7104 13.5387 18.8384 13.656C18.977 13.7627 19.217 13.8533 19.5584 13.928L20.9184 14.232C21.7504 14.424 22.353 14.712 22.7264 15.096C23.0997 15.48 23.2864 15.992 23.2864 16.632C23.2864 17.4 22.977 18.008 22.3584 18.456C21.7397 18.904 20.8917 19.128 19.8144 19.128Z" fill="white"/>
<path d="M28.5972 19.128C27.2746 19.128 26.2346 18.7547 25.4772 18.008C24.7306 17.2613 24.3572 16.2427 24.3572 14.952C24.3572 14.1093 24.5386 13.368 24.9012 12.728C25.2639 12.0773 25.7706 11.576 26.4212 11.224C27.0826 10.8613 27.8452 10.68 28.7092 10.68C29.2959 10.68 29.8666 10.7707 30.4212 10.952C30.9759 11.1333 31.4186 11.3787 31.7492 11.688L31.1092 13.368C30.7892 13.112 30.4372 12.9147 30.0532 12.776C29.6692 12.6267 29.2959 12.552 28.9332 12.552C28.2719 12.552 27.7546 12.7547 27.3812 13.16C27.0186 13.5547 26.8372 14.136 26.8372 14.904C26.8372 15.6827 27.0186 16.2747 27.3812 16.68C27.7439 17.0747 28.2612 17.272 28.9332 17.272C29.2959 17.272 29.6692 17.2027 30.0532 17.064C30.4372 16.9147 30.7892 16.712 31.1092 16.456L31.7492 18.136C31.3972 18.4453 30.9386 18.6907 30.3732 18.872C29.8079 19.0427 29.2159 19.128 28.5972 19.128Z" fill="white"/>
<path d="M36.7699 19.128C35.9059 19.128 35.1485 18.9573 34.4979 18.616C33.8579 18.2747 33.3619 17.784 33.0099 17.144C32.6685 16.504 32.4979 15.7573 32.4979 14.904C32.4979 14.0507 32.6685 13.304 33.0099 12.664C33.3619 12.024 33.8579 11.5333 34.4979 11.192C35.1485 10.8507 35.9059 10.68 36.7699 10.68C37.6232 10.68 38.3699 10.8507 39.0099 11.192C39.6499 11.5333 40.1405 12.024 40.4819 12.664C40.8339 13.304 41.0099 14.0507 41.0099 14.904C41.0099 15.7573 40.8339 16.504 40.4819 17.144C40.1405 17.784 39.6499 18.2747 39.0099 18.616C38.3699 18.9573 37.6232 19.128 36.7699 19.128ZM36.7699 17.288C37.3672 17.288 37.8205 17.0907 38.1299 16.696C38.4499 16.3013 38.6099 15.704 38.6099 14.904C38.6099 14.1147 38.4499 13.5227 38.1299 13.128C37.8205 12.7227 37.3672 12.52 36.7699 12.52C36.1619 12.52 35.6979 12.7227 35.3779 13.128C35.0579 13.5227 34.8979 14.1147 34.8979 14.904C34.8979 16.4933 35.5219 17.288 36.7699 17.288Z" fill="white"/>
<path d="M50.3979 10.904L46.8299 19H44.7819L41.2619 10.904H43.7899L45.8699 16.152L48.0139 10.904H50.3979Z" fill="white"/>
<path d="M58.3185 15.144H52.9745C53.0172 15.9013 53.2145 16.456 53.5665 16.808C53.9185 17.1493 54.4412 17.32 55.1345 17.32C55.5505 17.32 55.9665 17.2507 56.3825 17.112C56.7985 16.9733 57.1825 16.7707 57.5345 16.504L58.1745 18.136C57.7905 18.4453 57.3105 18.6907 56.7345 18.872C56.1692 19.0427 55.5985 19.128 55.0225 19.128C53.6572 19.128 52.5852 18.7547 51.8065 18.008C51.0278 17.2507 50.6385 16.2213 50.6385 14.92C50.6385 14.0987 50.8038 13.368 51.1345 12.728C51.4758 12.0773 51.9505 11.576 52.5585 11.224C53.1665 10.8613 53.8545 10.68 54.6225 10.68C55.7638 10.68 56.6652 11.0533 57.3265 11.8C57.9878 12.536 58.3185 13.5333 58.3185 14.792V15.144ZM54.6865 12.376C54.2278 12.376 53.8545 12.5093 53.5665 12.776C53.2892 13.0427 53.1078 13.432 53.0225 13.944H56.2385C56.1105 12.8987 55.5932 12.376 54.6865 12.376Z" fill="white"/>
<path d="M64.5554 10.696C64.8967 10.696 65.1847 10.7493 65.4194 10.856L65.4034 13.064C65.0087 12.8827 64.614 12.792 64.2194 12.792C63.5794 12.792 63.0887 12.968 62.7474 13.32C62.4167 13.6613 62.2514 14.1413 62.2514 14.76V19H59.8354V13.208C59.8354 12.344 59.7927 11.5707 59.7074 10.888H61.9794L62.1394 12.28C62.342 11.768 62.6567 11.3787 63.0834 11.112C63.5207 10.8347 64.0114 10.696 64.5554 10.696Z" fill="white"/>
<path d="M73.5216 15.144H68.1776C68.2203 15.9013 68.4176 16.456 68.7696 16.808C69.1216 17.1493 69.6443 17.32 70.3376 17.32C70.7536 17.32 71.1696 17.2507 71.5856 17.112C72.0016 16.9733 72.3856 16.7707 72.7376 16.504L73.3776 18.136C72.9936 18.4453 72.5136 18.6907 71.9376 18.872C71.3723 19.0427 70.8016 19.128 70.2256 19.128C68.8603 19.128 67.7883 18.7547 67.0096 18.008C66.2309 17.2507 65.8416 16.2213 65.8416 14.92C65.8416 14.0987 66.0069 13.368 66.3376 12.728C66.6789 12.0773 67.1536 11.576 67.7616 11.224C68.3696 10.8613 69.0576 10.68 69.8256 10.68C70.9669 10.68 71.8683 11.0533 72.5296 11.8C73.1909 12.536 73.5216 13.5333 73.5216 14.792V15.144ZM69.8896 12.376C69.4309 12.376 69.0576 12.5093 68.7696 12.776C68.4923 13.0427 68.3109 13.432 68.2256 13.944H71.4416C71.3136 12.8987 70.7963 12.376 69.8896 12.376Z" fill="white"/>
<path d="M83.1665 7.224V19H80.7825V17.8C80.5372 18.216 80.1905 18.5413 79.7425 18.776C79.2945 19.0107 78.7878 19.128 78.2225 19.128C77.5292 19.128 76.9105 18.952 76.3665 18.6C75.8225 18.2373 75.3958 17.736 75.0865 17.096C74.7878 16.4453 74.6385 15.704 74.6385 14.872C74.6385 14.04 74.7878 13.3093 75.0865 12.68C75.3958 12.04 75.8172 11.5493 76.3505 11.208C76.8945 10.856 77.5185 10.68 78.2225 10.68C78.7665 10.68 79.2625 10.7973 79.7105 11.032C80.1585 11.256 80.5052 11.5707 80.7505 11.976V7.224H83.1665ZM78.9265 17.288C79.5238 17.288 79.9825 17.0853 80.3025 16.68C80.6225 16.264 80.7825 15.672 80.7825 14.904C80.7825 14.1467 80.6171 13.5653 80.2865 13.16C79.9665 12.744 79.5132 12.536 78.9265 12.536C78.3291 12.536 77.8652 12.7387 77.5345 13.144C77.2038 13.5493 77.0385 14.1253 77.0385 14.872C77.0385 15.64 77.2038 16.2373 77.5345 16.664C77.8652 17.08 78.3291 17.288 78.9265 17.288Z" fill="white"/>
</svg>
