<svg 
 xmlns="http://www.w3.org/2000/svg"
 xmlns:xlink="http://www.w3.org/1999/xlink"
 width="14px" height="17px">
<path fill-rule="evenodd"  fill="rgb(177, 177, 185)"
 d="M12.939,16.319 C12.802,16.396 12.671,16.424 12.553,16.424 C12.279,16.424 12.70,16.271 11.984,16.207 L9.851,14.640 C8.869,13.920 7.888,13.200 6.907,12.477 C5.766,13.319 4.616,14.162 3.466,15.4 L1.820,16.212 C1.645,16.340 1.375,16.499 1.25,16.383 C0.656,16.262 0.444,15.948 0.443,15.522 L0.442,11.367 L0.443,2.689 C0.443,1.409 1.269,0.549 2.497,0.549 L11.345,0.548 C12.314,0.548 13.84,1.148 13.307,2.76 C13.348,2.244 13.368,2.431 13.368,2.646 L13.373,15.477 C13.373,15.879 13.231,16.153 12.939,16.319 ZM11.726,2.686 C11.726,2.307 11.600,2.243 11.319,2.243 L2.490,2.243 C2.224,2.243 2.89,2.309 2.89,2.673 L2.89,13.935 L6.331,10.824 C6.757,10.512 7.59,10.512 7.486,10.824 L11.726,13.933 L11.726,2.686 ZM5.815,4.606 C5.574,4.604 5.354,4.514 5.195,4.354 C5.37,4.194 4.953,3.979 4.956,3.746 C4.962,3.272 5.331,2.913 5.814,2.912 C6.541,2.909 7.270,2.910 7.997,2.913 C8.483,2.914 8.853,3.272 8.858,3.746 C8.860,3.980 8.775,4.197 8.618,4.355 C8.460,4.515 8.240,4.604 8.0,4.606 C7.854,4.607 7.708,4.608 7.561,4.608 C7.452,4.608 7.343,4.608 7.234,4.607 L5.815,4.606 Z"/>
</svg>