<svg 
 xmlns="http://www.w3.org/2000/svg"
 xmlns:xlink="http://www.w3.org/1999/xlink"
 width="17px" height="16px">
<path fill-rule="evenodd"  fill="rgb(177, 177, 185)"
 d="M11.804,9.922 C12.247,10.390 12.82,11.133 11.497,11.321 C11.207,11.414 10.933,11.360 10.716,11.135 C9.899,10.293 9.89,9.445 8.279,8.596 C8.122,8.432 8.58,8.225 8.59,7.992 C8.61,6.905 8.58,5.818 8.60,4.731 C8.61,4.232 8.406,3.858 8.857,3.856 C9.297,3.855 9.650,4.222 9.660,4.709 C9.669,5.184 9.662,5.660 9.662,6.134 C9.663,6.590 9.667,7.46 9.660,7.501 C9.657,7.637 9.700,7.730 9.791,7.824 C10.465,8.519 11.137,9.217 11.804,9.922 ZM10.67,15.421 C7.137,15.957 4.126,14.494 2.651,11.819 C2.488,11.522 2.470,11.225 2.640,10.932 C2.802,10.653 3.51,10.516 3.363,10.532 C3.659,10.548 3.878,10.706 4.29,10.972 C4.492,11.787 5.106,12.451 5.872,12.961 C9.189,15.170 13.686,13.113 14.361,9.78 C14.909,5.804 12.846,2.788 9.694,2.255 C7.9,1.801 4.284,3.588 3.513,6.311 C3.502,6.346 3.496,6.383 3.477,6.463 C3.967,6.172 4.413,5.899 4.867,5.641 C5.389,5.344 5.987,5.664 6.55,6.278 C6.92,6.610 5.968,6.891 5.691,7.59 C4.737,7.638 3.780,8.211 2.815,8.770 C2.442,8.985 1.976,8.838 1.778,8.444 C1.222,7.339 0.676,6.227 0.141,5.111 C0.52,4.707 0.125,4.232 0.508,4.31 C0.890,3.831 1.348,3.969 1.560,4.366 C1.742,4.706 1.904,5.58 2.94,5.444 C2.132,5.354 2.156,5.293 2.181,5.233 C3.281,2.614 5.167,1.14 7.888,0.607 C11.667,0.40 15.173,2.674 15.921,6.572 C16.712,10.696 14.72,14.688 10.67,15.421 Z"/>
</svg>