<svg xmlns="http://www.w3.org/2000/svg" viewBox="0 0 21 20.75" width="13" height="13"><path fill-rule="evenodd"  fill="rgb(177, 177, 185)" d="M17.92 13.08a10.38 10.38 0 00-3.17-2.18 6.278 6.278 0 002.02-4.62c0-3.46-2.82-6.28-6.28-6.28S4.22 2.82 4.22 6.28c0 1.76.74 3.43 2.02 4.62a10.38 10.38 0 00-3.17 2.18c-1.98 1.98-3.08 4.87-3.08 7.67h2.57c0-4.38 3.56-8.19 7.94-8.19s7.94 3.81 7.94 8.19H21c0-2.8-1.09-5.69-3.08-7.67zm-3.71-6.79c0 2.05-1.67 3.72-3.72 3.72S6.77 8.34 6.77 6.29s1.67-3.72 3.72-3.72 3.72 1.67 3.72 3.72z"></path></svg>