<svg 
 xmlns="http://www.w3.org/2000/svg"
 xmlns:xlink="http://www.w3.org/1999/xlink"
 width="20px" height="17px">
<path fill-rule="evenodd"  fill="rgb(255, 255, 255)"
 d="M19.418,16.479 C18.906,16.994 18.834,17.1 18.376,16.543 C17.107,15.270 16.756,14.917 15.465,13.621 C14.218,14.477 12.853,14.736 11.395,14.363 C10.224,14.63 9.297,13.386 8.610,12.385 C7.282,10.450 7.570,7.735 9.273,6.114 C11.37,4.433 13.686,4.301 15.610,5.779 C17.214,7.11 18.371,9.717 16.594,12.512 C17.879,13.802 18.233,14.153 19.501,15.427 C19.938,15.867 19.928,15.966 19.418,16.479 ZM12.641,6.378 C10.867,6.371 9.417,7.823 9.403,9.621 C9.388,11.424 10.813,12.881 12.600,12.891 C14.411,12.900 15.891,11.432 15.879,9.637 C15.867,7.849 14.412,6.385 12.641,6.378 ZM0.949,0.813 C5.20,0.813 9.151,0.813 13.236,0.813 C13.236,1.125 13.236,2.367 13.236,2.692 C9.171,2.692 5.50,2.692 0.949,2.692 C0.949,2.370 0.949,1.138 0.949,0.813 ZM5.739,7.417 C5.676,7.474 5.524,7.509 5.413,7.509 C3.940,7.515 2.467,7.513 0.924,7.513 C0.924,7.175 0.924,5.946 0.924,5.631 C2.807,5.631 4.678,5.631 6.594,5.631 C6.296,5.928 6.30,7.151 5.739,7.417 ZM4.658,12.339 C3.413,12.339 2.187,12.339 0.928,12.339 C0.928,12.27 0.928,10.783 0.928,10.446 C2.183,10.446 3.437,10.446 4.712,10.446 C4.694,10.772 4.677,12.16 4.658,12.339 Z"/>
</svg>