<svg 
 xmlns="http://www.w3.org/2000/svg"
 xmlns:xlink="http://www.w3.org/1999/xlink"
 width="13px" height="17px">
<path fill-rule="evenodd"  fill="rgb(255, 255, 255)"
 d="M12.502,16.431 C12.155,16.808 11.646,17.7 11.31,17.7 L6.493,17.8 L1.956,17.7 C1.337,17.7 0.825,16.805 0.475,16.424 C0.129,16.46 0.39,15.510 0.13,14.875 C0.102,12.23 0.236,8.982 0.395,5.576 C0.446,4.458 1.211,3.702 2.297,3.694 C2.447,3.692 2.593,3.691 2.752,3.692 L3.72,3.692 C3.72,2.517 3.457,1.592 4.247,0.867 C4.885,0.283 5.636,0.12 6.480,0.12 C7.501,0.8 8.358,0.391 9.40,1.178 C9.626,1.855 9.913,2.679 9.914,3.692 L10.223,3.692 C10.379,3.691 10.535,3.692 10.689,3.694 C11.772,3.701 12.537,4.457 12.591,5.575 C12.652,6.812 12.706,8.51 12.760,9.289 L12.909,12.681 C12.945,13.420 12.978,14.144 13.1,14.877 C13.22,15.518 12.850,16.55 12.502,16.431 ZM7.381,1.861 C6.704,1.467 6.14,1.520 5.383,2.11 C4.863,2.416 4.622,2.963 4.647,3.680 L8.341,3.680 C8.348,2.834 8.33,2.238 7.381,1.861 ZM11.386,13.705 L11.232,10.240 C11.164,8.719 11.97,7.198 11.27,5.677 C11.14,5.385 10.938,5.309 10.659,5.309 C7.885,5.313 5.112,5.318 2.338,5.325 C2.55,5.326 1.974,5.404 1.960,5.687 C1.820,8.764 1.684,11.841 1.551,14.918 C1.544,15.116 1.564,15.243 1.612,15.297 C1.661,15.351 1.789,15.378 1.992,15.379 L11.37,15.378 C11.250,15.378 11.336,15.335 11.369,15.299 C11.404,15.261 11.443,15.167 11.436,14.939 C11.423,14.528 11.405,14.116 11.386,13.705 ZM6.510,10.380 C5.247,10.373 4.183,9.528 3.848,8.277 C3.780,8.21 3.793,7.794 3.886,7.622 C3.962,7.482 4.87,7.383 4.248,7.337 C4.412,7.291 4.570,7.304 4.703,7.380 C4.870,7.473 4.995,7.656 5.65,7.908 C5.260,8.613 5.839,9.86 6.507,9.86 C7.191,9.81 7.751,8.619 7.946,7.909 C8.28,7.612 8.207,7.400 8.437,7.328 C8.634,7.268 8.838,7.320 9.8,7.475 C9.309,7.750 9.214,8.117 9.173,8.274 C8.852,9.514 7.757,10.380 6.510,10.380 Z"/>
</svg>