<svg 
 xmlns="http://www.w3.org/2000/svg"
 xmlns:xlink="http://www.w3.org/1999/xlink"
 width="30px" height="26px">
<path fill-rule="evenodd"  fill="rgb(182, 182, 182)"
 d="M29.373,14.863 C29.035,18.801 25.709,21.945 21.806,22.008 C20.906,22.023 20.005,22.016 19.104,22.010 C18.324,22.005 17.856,21.611 17.870,20.987 C17.884,20.386 18.332,20.029 19.078,20.007 C20.322,19.972 21.590,20.072 22.806,19.859 C25.792,19.335 27.781,16.600 27.553,13.537 C27.329,10.528 24.949,8.172 21.975,8.014 C21.118,7.969 20.833,7.723 20.645,6.869 C20.001,3.942 17.722,2.004 14.932,2.011 C12.162,2.018 9.904,3.965 9.250,6.911 C9.067,7.735 8.789,7.973 7.967,8.013 C4.700,8.170 2.270,10.841 2.336,14.202 C2.399,17.422 4.982,19.980 8.201,20.007 C9.079,20.015 9.957,20.004 10.834,20.010 C11.583,20.016 12.025,20.380 12.039,20.988 C12.054,21.610 11.584,22.002 10.804,22.011 C10.296,22.017 9.788,22.012 9.073,22.012 C7.421,22.105 5.649,21.838 4.033,20.786 C1.315,19.015 -0.066,15.755 0.548,12.466 C1.143,9.273 3.589,6.742 6.698,6.174 C7.259,6.071 7.495,5.829 7.671,5.289 C8.694,2.159 11.691,-0.001 14.942,-0.000 C18.216,0.000 21.190,2.128 22.225,5.268 C22.411,5.833 22.653,6.080 23.243,6.200 C27.169,6.996 29.735,10.657 29.373,14.863 ZM13.979,13.658 C13.914,13.629 13.849,13.601 13.784,13.572 C12.849,14.558 11.935,15.566 10.966,16.515 C10.712,16.764 10.275,16.981 9.945,16.950 C9.133,16.873 8.896,15.875 9.523,15.207 C10.679,13.976 11.866,12.776 13.041,11.564 C13.433,11.160 13.815,10.744 14.224,10.360 C14.742,9.875 15.186,9.858 15.689,10.367 C17.287,11.984 18.867,13.621 20.441,15.263 C20.856,15.695 20.894,16.195 20.492,16.668 C20.116,17.112 19.555,17.126 19.081,16.660 C18.212,15.807 17.375,14.918 16.523,14.046 C16.366,13.885 16.200,13.733 15.927,13.468 C15.927,13.867 15.927,14.117 15.927,14.368 C15.927,18.057 15.927,20.746 15.926,24.436 C15.926,24.626 15.937,24.818 15.921,25.007 C15.872,25.599 15.461,26.036 14.945,26.000 C14.351,25.959 14.030,25.594 13.987,24.986 C13.983,24.937 13.981,24.925 13.979,24.925 C13.979,21.399 13.979,17.873 13.979,14.347 C13.979,14.118 13.979,13.888 13.979,13.658 ZM13.979,24.925 C13.979,24.993 13.979,25.061 13.979,25.130 C13.979,25.366 13.971,24.925 13.979,24.925 Z"/>
</svg>