<?xml version="1.0" encoding="utf-8"?>
<!-- Generator: Adobe Illustrator 24.0.1, SVG Export Plug-In . SVG Version: 6.00 Build 0)  -->
<svg version="1.1" id="Layer_1" xmlns="http://www.w3.org/2000/svg" xmlns:xlink="http://www.w3.org/1999/xlink" x="0px" y="0px"
	 viewBox="0 0 187 187" style="enable-background:new 0 0 187 187;" xml:space="preserve">
<style type="text/css">
	.st0{fill:#383838;}
</style>
<path class="st0" d="M96.3,93.4c0,1.6-1.3,2.9-2.9,2.9c-1.6,0-2.9-1.3-2.9-2.9c0-1.6,1.3-2.9,2.9-2.9C95,90.4,96.3,91.7,96.3,93.4z"
	/>
<path class="st0" d="M111.4,93.4c0,1.6-1.3,2.9-2.9,2.9c-1.6,0-2.9-1.3-2.9-2.9c0-1.6,1.3-2.9,2.9-2.9
	C110.1,90.4,111.4,91.7,111.4,93.4z"/>
<path class="st0" d="M126.5,93.4c0,1.6-1.3,2.9-2.9,2.9c-1.6,0-2.9-1.3-2.9-2.9c0-1.6,1.3-2.9,2.9-2.9
	C125.2,90.4,126.5,91.7,126.5,93.4z"/>
<path class="st0" d="M141.7,93.4c0,1.6-1.3,2.9-2.9,2.9c-1.6,0-2.9-1.3-2.9-2.9c0-1.6,1.3-2.9,2.9-2.9
	C140.3,90.4,141.7,91.7,141.7,93.4z"/>
<path class="st0" d="M156.8,93.4c0,1.6-1.3,2.9-2.9,2.9c-1.6,0-2.9-1.3-2.9-2.9c0-1.6,1.3-2.9,2.9-2.9
	C155.5,90.4,156.8,91.7,156.8,93.4z"/>
<path class="st0" d="M171.9,93.4c0,1.6-1.3,2.9-2.9,2.9c-1.6,0-2.9-1.3-2.9-2.9c0-1.6,1.3-2.9,2.9-2.9
	C170.6,90.4,171.9,91.7,171.9,93.4z"/>
<path class="st0" d="M96.3,108.5c0,1.6-1.3,2.9-2.9,2.9c-1.6,0-2.9-1.3-2.9-2.9c0-1.6,1.3-2.9,2.9-2.9
	C95,105.5,96.3,106.9,96.3,108.5z"/>
<path class="st0" d="M111.4,108.5c0,1.6-1.3,2.9-2.9,2.9c-1.6,0-2.9-1.3-2.9-2.9c0-1.6,1.3-2.9,2.9-2.9
	C110.1,105.5,111.4,106.9,111.4,108.5z"/>
<path class="st0" d="M126.5,108.5c0,1.6-1.3,2.9-2.9,2.9c-1.6,0-2.9-1.3-2.9-2.9c0-1.6,1.3-2.9,2.9-2.9
	C125.2,105.5,126.5,106.9,126.5,108.5z"/>
<path class="st0" d="M141.7,108.5c0,1.6-1.3,2.9-2.9,2.9c-1.6,0-2.9-1.3-2.9-2.9c0-1.6,1.3-2.9,2.9-2.9
	C140.3,105.5,141.7,106.9,141.7,108.5z"/>
<path class="st0" d="M156.8,108.5c0,1.6-1.3,2.9-2.9,2.9c-1.6,0-2.9-1.3-2.9-2.9c0-1.6,1.3-2.9,2.9-2.9
	C155.5,105.5,156.8,106.9,156.8,108.5z"/>
<path class="st0" d="M171.9,108.5c0,1.6-1.3,2.9-2.9,2.9c-1.6,0-2.9-1.3-2.9-2.9c0-1.6,1.3-2.9,2.9-2.9
	C170.6,105.5,171.9,106.9,171.9,108.5z"/>
<path class="st0" d="M96.3,123.6c0,1.6-1.3,2.9-2.9,2.9c-1.6,0-2.9-1.3-2.9-2.9c0-1.6,1.3-2.9,2.9-2.9C95,120.7,96.3,122,96.3,123.6
	z"/>
<path class="st0" d="M111.4,123.6c0,1.6-1.3,2.9-2.9,2.9c-1.6,0-2.9-1.3-2.9-2.9c0-1.6,1.3-2.9,2.9-2.9
	C110.1,120.7,111.4,122,111.4,123.6z"/>
<path class="st0" d="M126.5,123.6c0,1.6-1.3,2.9-2.9,2.9c-1.6,0-2.9-1.3-2.9-2.9c0-1.6,1.3-2.9,2.9-2.9
	C125.2,120.7,126.5,122,126.5,123.6z"/>
<path class="st0" d="M141.7,123.6c0,1.6-1.3,2.9-2.9,2.9c-1.6,0-2.9-1.3-2.9-2.9c0-1.6,1.3-2.9,2.9-2.9
	C140.3,120.7,141.7,122,141.7,123.6z"/>
<path class="st0" d="M156.8,123.6c0,1.6-1.3,2.9-2.9,2.9c-1.6,0-2.9-1.3-2.9-2.9c0-1.6,1.3-2.9,2.9-2.9
	C155.5,120.7,156.8,122,156.8,123.6z"/>
<path class="st0" d="M171.9,123.6c0,1.6-1.3,2.9-2.9,2.9c-1.6,0-2.9-1.3-2.9-2.9c0-1.6,1.3-2.9,2.9-2.9
	C170.6,120.7,171.9,122,171.9,123.6z"/>
<path class="st0" d="M96.3,138.7c0,1.6-1.3,2.9-2.9,2.9c-1.6,0-2.9-1.3-2.9-2.9c0-1.6,1.3-2.9,2.9-2.9
	C95,135.8,96.3,137.1,96.3,138.7z"/>
<path class="st0" d="M111.4,138.7c0,1.6-1.3,2.9-2.9,2.9c-1.6,0-2.9-1.3-2.9-2.9c0-1.6,1.3-2.9,2.9-2.9
	C110.1,135.8,111.4,137.1,111.4,138.7z"/>
<path class="st0" d="M126.5,138.7c0,1.6-1.3,2.9-2.9,2.9c-1.6,0-2.9-1.3-2.9-2.9c0-1.6,1.3-2.9,2.9-2.9
	C125.2,135.8,126.5,137.1,126.5,138.7z"/>
<path class="st0" d="M141.7,138.7c0,1.6-1.3,2.9-2.9,2.9c-1.6,0-2.9-1.3-2.9-2.9c0-1.6,1.3-2.9,2.9-2.9
	C140.3,135.8,141.7,137.1,141.7,138.7z"/>
<path class="st0" d="M156.8,138.7c0,1.6-1.3,2.9-2.9,2.9c-1.6,0-2.9-1.3-2.9-2.9c0-1.6,1.3-2.9,2.9-2.9
	C155.5,135.8,156.8,137.1,156.8,138.7z"/>
<path class="st0" d="M171.9,138.7c0,1.6-1.3,2.9-2.9,2.9c-1.6,0-2.9-1.3-2.9-2.9c0-1.6,1.3-2.9,2.9-2.9
	C170.6,135.8,171.9,137.1,171.9,138.7z"/>
<path class="st0" d="M96.3,153.8c0,1.6-1.3,2.9-2.9,2.9c-1.6,0-2.9-1.3-2.9-2.9c0-1.6,1.3-2.9,2.9-2.9
	C95,150.9,96.3,152.2,96.3,153.8z"/>
<path class="st0" d="M111.4,153.8c0,1.6-1.3,2.9-2.9,2.9c-1.6,0-2.9-1.3-2.9-2.9c0-1.6,1.3-2.9,2.9-2.9
	C110.1,150.9,111.4,152.2,111.4,153.8z"/>
<path class="st0" d="M126.5,153.8c0,1.6-1.3,2.9-2.9,2.9c-1.6,0-2.9-1.3-2.9-2.9c0-1.6,1.3-2.9,2.9-2.9
	C125.2,150.9,126.5,152.2,126.5,153.8z"/>
<path class="st0" d="M141.7,153.8c0,1.6-1.3,2.9-2.9,2.9c-1.6,0-2.9-1.3-2.9-2.9c0-1.6,1.3-2.9,2.9-2.9
	C140.3,150.9,141.7,152.2,141.7,153.8z"/>
<path class="st0" d="M156.8,153.8c0,1.6-1.3,2.9-2.9,2.9c-1.6,0-2.9-1.3-2.9-2.9c0-1.6,1.3-2.9,2.9-2.9
	C155.5,150.9,156.8,152.2,156.8,153.8z"/>
<path class="st0" d="M171.9,153.8c0,1.6-1.3,2.9-2.9,2.9c-1.6,0-2.9-1.3-2.9-2.9c0-1.6,1.3-2.9,2.9-2.9
	C170.6,150.9,171.9,152.2,171.9,153.8z"/>
<path class="st0" d="M96.3,168.9c0,1.6-1.3,2.9-2.9,2.9c-1.6,0-2.9-1.3-2.9-2.9c0-1.6,1.3-2.9,2.9-2.9C95,166,96.3,167.3,96.3,168.9
	z"/>
<path class="st0" d="M111.4,168.9c0,1.6-1.3,2.9-2.9,2.9c-1.6,0-2.9-1.3-2.9-2.9c0-1.6,1.3-2.9,2.9-2.9
	C110.1,166,111.4,167.3,111.4,168.9z"/>
<path class="st0" d="M126.5,168.9c0,1.6-1.3,2.9-2.9,2.9c-1.6,0-2.9-1.3-2.9-2.9c0-1.6,1.3-2.9,2.9-2.9
	C125.2,166,126.5,167.3,126.5,168.9z"/>
<path class="st0" d="M141.7,168.9c0,1.6-1.3,2.9-2.9,2.9c-1.6,0-2.9-1.3-2.9-2.9c0-1.6,1.3-2.9,2.9-2.9
	C140.3,166,141.7,167.3,141.7,168.9z"/>
<path class="st0" d="M156.8,168.9c0,1.6-1.3,2.9-2.9,2.9c-1.6,0-2.9-1.3-2.9-2.9c0-1.6,1.3-2.9,2.9-2.9
	C155.5,166,156.8,167.3,156.8,168.9z"/>
<path class="st0" d="M171.9,168.9c0,1.6-1.3,2.9-2.9,2.9c-1.6,0-2.9-1.3-2.9-2.9c0-1.6,1.3-2.9,2.9-2.9
	C170.6,166,171.9,167.3,171.9,168.9z"/>
<path class="st0" d="M187,93.4c0,1.6-1.3,2.9-2.9,2.9c-1.6,0-2.9-1.3-2.9-2.9c0-1.6,1.3-2.9,2.9-2.9C185.7,90.4,187,91.7,187,93.4z"
	/>
<path class="st0" d="M187,108.5c0,1.6-1.3,2.9-2.9,2.9c-1.6,0-2.9-1.3-2.9-2.9c0-1.6,1.3-2.9,2.9-2.9
	C185.7,105.5,187,106.9,187,108.5z"/>
<path class="st0" d="M187,123.6c0,1.6-1.3,2.9-2.9,2.9c-1.6,0-2.9-1.3-2.9-2.9c0-1.6,1.3-2.9,2.9-2.9C185.7,120.7,187,122,187,123.6
	z"/>
<path class="st0" d="M187,138.7c0,1.6-1.3,2.9-2.9,2.9c-1.6,0-2.9-1.3-2.9-2.9c0-1.6,1.3-2.9,2.9-2.9
	C185.7,135.8,187,137.1,187,138.7z"/>
<path class="st0" d="M187,153.8c0,1.6-1.3,2.9-2.9,2.9c-1.6,0-2.9-1.3-2.9-2.9c0-1.6,1.3-2.9,2.9-2.9
	C185.7,150.9,187,152.2,187,153.8z"/>
<path class="st0" d="M187,168.9c0,1.6-1.3,2.9-2.9,2.9c-1.6,0-2.9-1.3-2.9-2.9c0-1.6,1.3-2.9,2.9-2.9C185.7,166,187,167.3,187,168.9
	z"/>
<path class="st0" d="M96.3,184.1c0,1.6-1.3,2.9-2.9,2.9c-1.6,0-2.9-1.3-2.9-2.9c0-1.6,1.3-2.9,2.9-2.9
	C95,181.1,96.3,182.4,96.3,184.1z"/>
<path class="st0" d="M111.4,184.1c0,1.6-1.3,2.9-2.9,2.9c-1.6,0-2.9-1.3-2.9-2.9c0-1.6,1.3-2.9,2.9-2.9
	C110.1,181.1,111.4,182.4,111.4,184.1z"/>
<path class="st0" d="M126.5,184.1c0,1.6-1.3,2.9-2.9,2.9c-1.6,0-2.9-1.3-2.9-2.9c0-1.6,1.3-2.9,2.9-2.9
	C125.2,181.1,126.5,182.4,126.5,184.1z"/>
<path class="st0" d="M141.7,184.1c0,1.6-1.3,2.9-2.9,2.9c-1.6,0-2.9-1.3-2.9-2.9c0-1.6,1.3-2.9,2.9-2.9
	C140.3,181.1,141.7,182.4,141.7,184.1z"/>
<path class="st0" d="M156.8,184.1c0,1.6-1.3,2.9-2.9,2.9c-1.6,0-2.9-1.3-2.9-2.9c0-1.6,1.3-2.9,2.9-2.9
	C155.5,181.1,156.8,182.4,156.8,184.1z"/>
<path class="st0" d="M171.9,184.1c0,1.6-1.3,2.9-2.9,2.9c-1.6,0-2.9-1.3-2.9-2.9c0-1.6,1.3-2.9,2.9-2.9
	C170.6,181.1,171.9,182.4,171.9,184.1z"/>
<path class="st0" d="M187,184.1c0,1.6-1.3,2.9-2.9,2.9c-1.6,0-2.9-1.3-2.9-2.9c0-1.6,1.3-2.9,2.9-2.9
	C185.7,181.1,187,182.4,187,184.1z"/>
<path class="st0" d="M96.3,2.9c0,1.6-1.3,2.9-2.9,2.9c-1.6,0-2.9-1.3-2.9-2.9c0-1.6,1.3-2.9,2.9-2.9C95,0,96.3,1.3,96.3,2.9z"/>
<path class="st0" d="M111.4,2.9c0,1.6-1.3,2.9-2.9,2.9c-1.6,0-2.9-1.3-2.9-2.9c0-1.6,1.3-2.9,2.9-2.9C110.1,0,111.4,1.3,111.4,2.9z"
	/>
<path class="st0" d="M126.5,2.9c0,1.6-1.3,2.9-2.9,2.9c-1.6,0-2.9-1.3-2.9-2.9c0-1.6,1.3-2.9,2.9-2.9C125.2,0,126.5,1.3,126.5,2.9z"
	/>
<path class="st0" d="M141.7,2.9c0,1.6-1.3,2.9-2.9,2.9c-1.6,0-2.9-1.3-2.9-2.9c0-1.6,1.3-2.9,2.9-2.9C140.3,0,141.7,1.3,141.7,2.9z"
	/>
<path class="st0" d="M156.8,2.9c0,1.6-1.3,2.9-2.9,2.9c-1.6,0-2.9-1.3-2.9-2.9c0-1.6,1.3-2.9,2.9-2.9C155.5,0,156.8,1.3,156.8,2.9z"
	/>
<path class="st0" d="M171.9,2.9c0,1.6-1.3,2.9-2.9,2.9c-1.6,0-2.9-1.3-2.9-2.9c0-1.6,1.3-2.9,2.9-2.9C170.6,0,171.9,1.3,171.9,2.9z"
	/>
<path class="st0" d="M96.3,18.1c0,1.6-1.3,2.9-2.9,2.9c-1.6,0-2.9-1.3-2.9-2.9c0-1.6,1.3-2.9,2.9-2.9C95,15.1,96.3,16.4,96.3,18.1z"
	/>
<path class="st0" d="M111.4,18.1c0,1.6-1.3,2.9-2.9,2.9c-1.6,0-2.9-1.3-2.9-2.9c0-1.6,1.3-2.9,2.9-2.9
	C110.1,15.1,111.4,16.4,111.4,18.1z"/>
<path class="st0" d="M126.5,18.1c0,1.6-1.3,2.9-2.9,2.9c-1.6,0-2.9-1.3-2.9-2.9c0-1.6,1.3-2.9,2.9-2.9
	C125.2,15.1,126.5,16.4,126.5,18.1z"/>
<path class="st0" d="M141.7,18.1c0,1.6-1.3,2.9-2.9,2.9c-1.6,0-2.9-1.3-2.9-2.9c0-1.6,1.3-2.9,2.9-2.9
	C140.3,15.1,141.7,16.4,141.7,18.1z"/>
<path class="st0" d="M156.8,18.1c0,1.6-1.3,2.9-2.9,2.9c-1.6,0-2.9-1.3-2.9-2.9c0-1.6,1.3-2.9,2.9-2.9
	C155.5,15.1,156.8,16.4,156.8,18.1z"/>
<path class="st0" d="M171.9,18.1c0,1.6-1.3,2.9-2.9,2.9c-1.6,0-2.9-1.3-2.9-2.9c0-1.6,1.3-2.9,2.9-2.9
	C170.6,15.1,171.9,16.4,171.9,18.1z"/>
<path class="st0" d="M96.3,33.2c0,1.6-1.3,2.9-2.9,2.9c-1.6,0-2.9-1.3-2.9-2.9c0-1.6,1.3-2.9,2.9-2.9C95,30.2,96.3,31.5,96.3,33.2z"
	/>
<path class="st0" d="M111.4,33.2c0,1.6-1.3,2.9-2.9,2.9c-1.6,0-2.9-1.3-2.9-2.9c0-1.6,1.3-2.9,2.9-2.9
	C110.1,30.2,111.4,31.5,111.4,33.2z"/>
<path class="st0" d="M126.5,33.2c0,1.6-1.3,2.9-2.9,2.9c-1.6,0-2.9-1.3-2.9-2.9c0-1.6,1.3-2.9,2.9-2.9
	C125.2,30.2,126.5,31.5,126.5,33.2z"/>
<path class="st0" d="M141.7,33.2c0,1.6-1.3,2.9-2.9,2.9c-1.6,0-2.9-1.3-2.9-2.9c0-1.6,1.3-2.9,2.9-2.9
	C140.3,30.2,141.7,31.5,141.7,33.2z"/>
<path class="st0" d="M156.8,33.2c0,1.6-1.3,2.9-2.9,2.9c-1.6,0-2.9-1.3-2.9-2.9c0-1.6,1.3-2.9,2.9-2.9
	C155.5,30.2,156.8,31.5,156.8,33.2z"/>
<path class="st0" d="M171.9,33.2c0,1.6-1.3,2.9-2.9,2.9c-1.6,0-2.9-1.3-2.9-2.9c0-1.6,1.3-2.9,2.9-2.9
	C170.6,30.2,171.9,31.5,171.9,33.2z"/>
<path class="st0" d="M96.3,48.3c0,1.6-1.3,2.9-2.9,2.9c-1.6,0-2.9-1.3-2.9-2.9c0-1.6,1.3-2.9,2.9-2.9C95,45.3,96.3,46.7,96.3,48.3z"
	/>
<path class="st0" d="M111.4,48.3c0,1.6-1.3,2.9-2.9,2.9c-1.6,0-2.9-1.3-2.9-2.9c0-1.6,1.3-2.9,2.9-2.9
	C110.1,45.3,111.4,46.7,111.4,48.3z"/>
<path class="st0" d="M126.5,48.3c0,1.6-1.3,2.9-2.9,2.9c-1.6,0-2.9-1.3-2.9-2.9c0-1.6,1.3-2.9,2.9-2.9
	C125.2,45.3,126.5,46.7,126.5,48.3z"/>
<path class="st0" d="M141.7,48.3c0,1.6-1.3,2.9-2.9,2.9c-1.6,0-2.9-1.3-2.9-2.9c0-1.6,1.3-2.9,2.9-2.9
	C140.3,45.3,141.7,46.7,141.7,48.3z"/>
<path class="st0" d="M156.8,48.3c0,1.6-1.3,2.9-2.9,2.9c-1.6,0-2.9-1.3-2.9-2.9c0-1.6,1.3-2.9,2.9-2.9
	C155.5,45.3,156.8,46.7,156.8,48.3z"/>
<path class="st0" d="M171.9,48.3c0,1.6-1.3,2.9-2.9,2.9c-1.6,0-2.9-1.3-2.9-2.9c0-1.6,1.3-2.9,2.9-2.9
	C170.6,45.3,171.9,46.7,171.9,48.3z"/>
<path class="st0" d="M96.3,63.4c0,1.6-1.3,2.9-2.9,2.9c-1.6,0-2.9-1.3-2.9-2.9c0-1.6,1.3-2.9,2.9-2.9C95,60.5,96.3,61.8,96.3,63.4z"
	/>
<path class="st0" d="M111.4,63.4c0,1.6-1.3,2.9-2.9,2.9c-1.6,0-2.9-1.3-2.9-2.9c0-1.6,1.3-2.9,2.9-2.9
	C110.1,60.5,111.4,61.8,111.4,63.4z"/>
<path class="st0" d="M126.5,63.4c0,1.6-1.3,2.9-2.9,2.9c-1.6,0-2.9-1.3-2.9-2.9c0-1.6,1.3-2.9,2.9-2.9
	C125.2,60.5,126.5,61.8,126.5,63.4z"/>
<path class="st0" d="M141.7,63.4c0,1.6-1.3,2.9-2.9,2.9c-1.6,0-2.9-1.3-2.9-2.9c0-1.6,1.3-2.9,2.9-2.9
	C140.3,60.5,141.7,61.8,141.7,63.4z"/>
<path class="st0" d="M156.8,63.4c0,1.6-1.3,2.9-2.9,2.9c-1.6,0-2.9-1.3-2.9-2.9c0-1.6,1.3-2.9,2.9-2.9
	C155.5,60.5,156.8,61.8,156.8,63.4z"/>
<path class="st0" d="M171.9,63.4c0,1.6-1.3,2.9-2.9,2.9c-1.6,0-2.9-1.3-2.9-2.9c0-1.6,1.3-2.9,2.9-2.9
	C170.6,60.5,171.9,61.8,171.9,63.4z"/>
<path class="st0" d="M96.3,78.5c0,1.6-1.3,2.9-2.9,2.9c-1.6,0-2.9-1.3-2.9-2.9c0-1.6,1.3-2.9,2.9-2.9C95,75.6,96.3,76.9,96.3,78.5z"
	/>
<path class="st0" d="M111.4,78.5c0,1.6-1.3,2.9-2.9,2.9c-1.6,0-2.9-1.3-2.9-2.9c0-1.6,1.3-2.9,2.9-2.9
	C110.1,75.6,111.4,76.9,111.4,78.5z"/>
<path class="st0" d="M126.5,78.5c0,1.6-1.3,2.9-2.9,2.9c-1.6,0-2.9-1.3-2.9-2.9c0-1.6,1.3-2.9,2.9-2.9
	C125.2,75.6,126.5,76.9,126.5,78.5z"/>
<path class="st0" d="M141.7,78.5c0,1.6-1.3,2.9-2.9,2.9c-1.6,0-2.9-1.3-2.9-2.9c0-1.6,1.3-2.9,2.9-2.9
	C140.3,75.6,141.7,76.9,141.7,78.5z"/>
<path class="st0" d="M156.8,78.5c0,1.6-1.3,2.9-2.9,2.9c-1.6,0-2.9-1.3-2.9-2.9c0-1.6,1.3-2.9,2.9-2.9
	C155.5,75.6,156.8,76.9,156.8,78.5z"/>
<path class="st0" d="M171.9,78.5c0,1.6-1.3,2.9-2.9,2.9c-1.6,0-2.9-1.3-2.9-2.9c0-1.6,1.3-2.9,2.9-2.9
	C170.6,75.6,171.9,76.9,171.9,78.5z"/>
<path class="st0" d="M187,2.9c0,1.6-1.3,2.9-2.9,2.9c-1.6,0-2.9-1.3-2.9-2.9c0-1.6,1.3-2.9,2.9-2.9C185.7,0,187,1.3,187,2.9z"/>
<path class="st0" d="M187,18.1c0,1.6-1.3,2.9-2.9,2.9c-1.6,0-2.9-1.3-2.9-2.9c0-1.6,1.3-2.9,2.9-2.9C185.7,15.1,187,16.4,187,18.1z"
	/>
<path class="st0" d="M187,33.2c0,1.6-1.3,2.9-2.9,2.9c-1.6,0-2.9-1.3-2.9-2.9c0-1.6,1.3-2.9,2.9-2.9C185.7,30.2,187,31.5,187,33.2z"
	/>
<path class="st0" d="M187,48.3c0,1.6-1.3,2.9-2.9,2.9c-1.6,0-2.9-1.3-2.9-2.9c0-1.6,1.3-2.9,2.9-2.9C185.7,45.3,187,46.7,187,48.3z"
	/>
<path class="st0" d="M187,63.4c0,1.6-1.3,2.9-2.9,2.9c-1.6,0-2.9-1.3-2.9-2.9c0-1.6,1.3-2.9,2.9-2.9C185.7,60.5,187,61.8,187,63.4z"
	/>
<path class="st0" d="M187,78.5c0,1.6-1.3,2.9-2.9,2.9c-1.6,0-2.9-1.3-2.9-2.9c0-1.6,1.3-2.9,2.9-2.9C185.7,75.6,187,76.9,187,78.5z"
	/>
<path class="st0" d="M5.9,93.4c0,1.6-1.3,2.9-2.9,2.9C1.3,96.3,0,95,0,93.4c0-1.6,1.3-2.9,2.9-2.9C4.6,90.4,5.9,91.7,5.9,93.4z"/>
<path class="st0" d="M21,93.4c0,1.6-1.3,2.9-2.9,2.9c-1.6,0-2.9-1.3-2.9-2.9c0-1.6,1.3-2.9,2.9-2.9C19.7,90.4,21,91.7,21,93.4z"/>
<path class="st0" d="M36.1,93.4c0,1.6-1.3,2.9-2.9,2.9c-1.6,0-2.9-1.3-2.9-2.9c0-1.6,1.3-2.9,2.9-2.9C34.8,90.4,36.1,91.7,36.1,93.4
	z"/>
<path class="st0" d="M51.2,93.4c0,1.6-1.3,2.9-2.9,2.9c-1.6,0-2.9-1.3-2.9-2.9c0-1.6,1.3-2.9,2.9-2.9C49.9,90.4,51.2,91.7,51.2,93.4
	z"/>
<path class="st0" d="M66.3,93.4c0,1.6-1.3,2.9-2.9,2.9c-1.6,0-2.9-1.3-2.9-2.9c0-1.6,1.3-2.9,2.9-2.9C65,90.4,66.3,91.7,66.3,93.4z"
	/>
<path class="st0" d="M81.5,93.4c0,1.6-1.3,2.9-2.9,2.9c-1.6,0-2.9-1.3-2.9-2.9c0-1.6,1.3-2.9,2.9-2.9C80.1,90.4,81.5,91.7,81.5,93.4
	z"/>
<path class="st0" d="M5.9,108.5c0,1.6-1.3,2.9-2.9,2.9c-1.6,0-2.9-1.3-2.9-2.9c0-1.6,1.3-2.9,2.9-2.9C4.6,105.5,5.9,106.9,5.9,108.5
	z"/>
<path class="st0" d="M21,108.5c0,1.6-1.3,2.9-2.9,2.9c-1.6,0-2.9-1.3-2.9-2.9c0-1.6,1.3-2.9,2.9-2.9C19.7,105.5,21,106.9,21,108.5z"
	/>
<path class="st0" d="M36.1,108.5c0,1.6-1.3,2.9-2.9,2.9c-1.6,0-2.9-1.3-2.9-2.9c0-1.6,1.3-2.9,2.9-2.9
	C34.8,105.5,36.1,106.9,36.1,108.5z"/>
<path class="st0" d="M51.2,108.5c0,1.6-1.3,2.9-2.9,2.9c-1.6,0-2.9-1.3-2.9-2.9c0-1.6,1.3-2.9,2.9-2.9
	C49.9,105.5,51.2,106.9,51.2,108.5z"/>
<path class="st0" d="M66.3,108.5c0,1.6-1.3,2.9-2.9,2.9c-1.6,0-2.9-1.3-2.9-2.9c0-1.6,1.3-2.9,2.9-2.9
	C65,105.5,66.3,106.9,66.3,108.5z"/>
<path class="st0" d="M81.5,108.5c0,1.6-1.3,2.9-2.9,2.9c-1.6,0-2.9-1.3-2.9-2.9c0-1.6,1.3-2.9,2.9-2.9
	C80.1,105.5,81.5,106.9,81.5,108.5z"/>
<path class="st0" d="M5.9,123.6c0,1.6-1.3,2.9-2.9,2.9c-1.6,0-2.9-1.3-2.9-2.9c0-1.6,1.3-2.9,2.9-2.9C4.6,120.7,5.9,122,5.9,123.6z"
	/>
<path class="st0" d="M21,123.6c0,1.6-1.3,2.9-2.9,2.9c-1.6,0-2.9-1.3-2.9-2.9c0-1.6,1.3-2.9,2.9-2.9C19.7,120.7,21,122,21,123.6z"/>
<path class="st0" d="M36.1,123.6c0,1.6-1.3,2.9-2.9,2.9c-1.6,0-2.9-1.3-2.9-2.9c0-1.6,1.3-2.9,2.9-2.9
	C34.8,120.7,36.1,122,36.1,123.6z"/>
<path class="st0" d="M51.2,123.6c0,1.6-1.3,2.9-2.9,2.9c-1.6,0-2.9-1.3-2.9-2.9c0-1.6,1.3-2.9,2.9-2.9
	C49.9,120.7,51.2,122,51.2,123.6z"/>
<path class="st0" d="M66.3,123.6c0,1.6-1.3,2.9-2.9,2.9c-1.6,0-2.9-1.3-2.9-2.9c0-1.6,1.3-2.9,2.9-2.9C65,120.7,66.3,122,66.3,123.6
	z"/>
<path class="st0" d="M81.5,123.6c0,1.6-1.3,2.9-2.9,2.9c-1.6,0-2.9-1.3-2.9-2.9c0-1.6,1.3-2.9,2.9-2.9
	C80.1,120.7,81.5,122,81.5,123.6z"/>
<path class="st0" d="M5.9,138.7c0,1.6-1.3,2.9-2.9,2.9c-1.6,0-2.9-1.3-2.9-2.9c0-1.6,1.3-2.9,2.9-2.9C4.6,135.8,5.9,137.1,5.9,138.7
	z"/>
<path class="st0" d="M21,138.7c0,1.6-1.3,2.9-2.9,2.9c-1.6,0-2.9-1.3-2.9-2.9c0-1.6,1.3-2.9,2.9-2.9C19.7,135.8,21,137.1,21,138.7z"
	/>
<path class="st0" d="M36.1,138.7c0,1.6-1.3,2.9-2.9,2.9c-1.6,0-2.9-1.3-2.9-2.9c0-1.6,1.3-2.9,2.9-2.9
	C34.8,135.8,36.1,137.1,36.1,138.7z"/>
<path class="st0" d="M51.2,138.7c0,1.6-1.3,2.9-2.9,2.9c-1.6,0-2.9-1.3-2.9-2.9c0-1.6,1.3-2.9,2.9-2.9
	C49.9,135.8,51.2,137.1,51.2,138.7z"/>
<path class="st0" d="M66.3,138.7c0,1.6-1.3,2.9-2.9,2.9c-1.6,0-2.9-1.3-2.9-2.9c0-1.6,1.3-2.9,2.9-2.9
	C65,135.8,66.3,137.1,66.3,138.7z"/>
<path class="st0" d="M81.5,138.7c0,1.6-1.3,2.9-2.9,2.9c-1.6,0-2.9-1.3-2.9-2.9c0-1.6,1.3-2.9,2.9-2.9
	C80.1,135.8,81.5,137.1,81.5,138.7z"/>
<path class="st0" d="M5.9,153.8c0,1.6-1.3,2.9-2.9,2.9c-1.6,0-2.9-1.3-2.9-2.9c0-1.6,1.3-2.9,2.9-2.9C4.6,150.9,5.9,152.2,5.9,153.8
	z"/>
<path class="st0" d="M21,153.8c0,1.6-1.3,2.9-2.9,2.9c-1.6,0-2.9-1.3-2.9-2.9c0-1.6,1.3-2.9,2.9-2.9C19.7,150.9,21,152.2,21,153.8z"
	/>
<path class="st0" d="M36.1,153.8c0,1.6-1.3,2.9-2.9,2.9c-1.6,0-2.9-1.3-2.9-2.9c0-1.6,1.3-2.9,2.9-2.9
	C34.8,150.9,36.1,152.2,36.1,153.8z"/>
<path class="st0" d="M51.2,153.8c0,1.6-1.3,2.9-2.9,2.9c-1.6,0-2.9-1.3-2.9-2.9c0-1.6,1.3-2.9,2.9-2.9
	C49.9,150.9,51.2,152.2,51.2,153.8z"/>
<path class="st0" d="M66.3,153.8c0,1.6-1.3,2.9-2.9,2.9c-1.6,0-2.9-1.3-2.9-2.9c0-1.6,1.3-2.9,2.9-2.9
	C65,150.9,66.3,152.2,66.3,153.8z"/>
<path class="st0" d="M81.5,153.8c0,1.6-1.3,2.9-2.9,2.9c-1.6,0-2.9-1.3-2.9-2.9c0-1.6,1.3-2.9,2.9-2.9
	C80.1,150.9,81.5,152.2,81.5,153.8z"/>
<path class="st0" d="M5.9,168.9c0,1.6-1.3,2.9-2.9,2.9c-1.6,0-2.9-1.3-2.9-2.9c0-1.6,1.3-2.9,2.9-2.9C4.6,166,5.9,167.3,5.9,168.9z"
	/>
<path class="st0" d="M21,168.9c0,1.6-1.3,2.9-2.9,2.9c-1.6,0-2.9-1.3-2.9-2.9c0-1.6,1.3-2.9,2.9-2.9C19.7,166,21,167.3,21,168.9z"/>
<path class="st0" d="M36.1,168.9c0,1.6-1.3,2.9-2.9,2.9c-1.6,0-2.9-1.3-2.9-2.9c0-1.6,1.3-2.9,2.9-2.9
	C34.8,166,36.1,167.3,36.1,168.9z"/>
<path class="st0" d="M51.2,168.9c0,1.6-1.3,2.9-2.9,2.9c-1.6,0-2.9-1.3-2.9-2.9c0-1.6,1.3-2.9,2.9-2.9
	C49.9,166,51.2,167.3,51.2,168.9z"/>
<path class="st0" d="M66.3,168.9c0,1.6-1.3,2.9-2.9,2.9c-1.6,0-2.9-1.3-2.9-2.9c0-1.6,1.3-2.9,2.9-2.9C65,166,66.3,167.3,66.3,168.9
	z"/>
<path class="st0" d="M81.5,168.9c0,1.6-1.3,2.9-2.9,2.9c-1.6,0-2.9-1.3-2.9-2.9c0-1.6,1.3-2.9,2.9-2.9
	C80.1,166,81.5,167.3,81.5,168.9z"/>
<path class="st0" d="M5.9,184.1c0,1.6-1.3,2.9-2.9,2.9c-1.6,0-2.9-1.3-2.9-2.9c0-1.6,1.3-2.9,2.9-2.9C4.6,181.1,5.9,182.4,5.9,184.1
	z"/>
<path class="st0" d="M21,184.1c0,1.6-1.3,2.9-2.9,2.9c-1.6,0-2.9-1.3-2.9-2.9c0-1.6,1.3-2.9,2.9-2.9C19.7,181.1,21,182.4,21,184.1z"
	/>
<path class="st0" d="M36.1,184.1c0,1.6-1.3,2.9-2.9,2.9c-1.6,0-2.9-1.3-2.9-2.9c0-1.6,1.3-2.9,2.9-2.9
	C34.8,181.1,36.1,182.4,36.1,184.1z"/>
<path class="st0" d="M51.2,184.1c0,1.6-1.3,2.9-2.9,2.9c-1.6,0-2.9-1.3-2.9-2.9c0-1.6,1.3-2.9,2.9-2.9
	C49.9,181.1,51.2,182.4,51.2,184.1z"/>
<path class="st0" d="M66.3,184.1c0,1.6-1.3,2.9-2.9,2.9c-1.6,0-2.9-1.3-2.9-2.9c0-1.6,1.3-2.9,2.9-2.9
	C65,181.1,66.3,182.4,66.3,184.1z"/>
<path class="st0" d="M81.5,184.1c0,1.6-1.3,2.9-2.9,2.9c-1.6,0-2.9-1.3-2.9-2.9c0-1.6,1.3-2.9,2.9-2.9
	C80.1,181.1,81.5,182.4,81.5,184.1z"/>
<path class="st0" d="M5.9,2.9c0,1.6-1.3,2.9-2.9,2.9C1.3,5.9,0,4.6,0,2.9C0,1.3,1.3,0,2.9,0C4.6,0,5.9,1.3,5.9,2.9z"/>
<path class="st0" d="M21,2.9c0,1.6-1.3,2.9-2.9,2.9c-1.6,0-2.9-1.3-2.9-2.9c0-1.6,1.3-2.9,2.9-2.9C19.7,0,21,1.3,21,2.9z"/>
<path class="st0" d="M36.1,2.9c0,1.6-1.3,2.9-2.9,2.9c-1.6,0-2.9-1.3-2.9-2.9c0-1.6,1.3-2.9,2.9-2.9C34.8,0,36.1,1.3,36.1,2.9z"/>
<path class="st0" d="M51.2,2.9c0,1.6-1.3,2.9-2.9,2.9c-1.6,0-2.9-1.3-2.9-2.9c0-1.6,1.3-2.9,2.9-2.9C49.9,0,51.2,1.3,51.2,2.9z"/>
<path class="st0" d="M66.3,2.9c0,1.6-1.3,2.9-2.9,2.9c-1.6,0-2.9-1.3-2.9-2.9c0-1.6,1.3-2.9,2.9-2.9C65,0,66.3,1.3,66.3,2.9z"/>
<path class="st0" d="M81.5,2.9c0,1.6-1.3,2.9-2.9,2.9c-1.6,0-2.9-1.3-2.9-2.9c0-1.6,1.3-2.9,2.9-2.9C80.1,0,81.5,1.3,81.5,2.9z"/>
<path class="st0" d="M5.9,18.1c0,1.6-1.3,2.9-2.9,2.9C1.3,21,0,19.7,0,18.1c0-1.6,1.3-2.9,2.9-2.9C4.6,15.1,5.9,16.4,5.9,18.1z"/>
<path class="st0" d="M21,18.1c0,1.6-1.3,2.9-2.9,2.9c-1.6,0-2.9-1.3-2.9-2.9c0-1.6,1.3-2.9,2.9-2.9C19.7,15.1,21,16.4,21,18.1z"/>
<path class="st0" d="M36.1,18.1c0,1.6-1.3,2.9-2.9,2.9c-1.6,0-2.9-1.3-2.9-2.9c0-1.6,1.3-2.9,2.9-2.9C34.8,15.1,36.1,16.4,36.1,18.1
	z"/>
<path class="st0" d="M51.2,18.1c0,1.6-1.3,2.9-2.9,2.9c-1.6,0-2.9-1.3-2.9-2.9c0-1.6,1.3-2.9,2.9-2.9C49.9,15.1,51.2,16.4,51.2,18.1
	z"/>
<path class="st0" d="M66.3,18.1c0,1.6-1.3,2.9-2.9,2.9c-1.6,0-2.9-1.3-2.9-2.9c0-1.6,1.3-2.9,2.9-2.9C65,15.1,66.3,16.4,66.3,18.1z"
	/>
<path class="st0" d="M81.5,18.1c0,1.6-1.3,2.9-2.9,2.9c-1.6,0-2.9-1.3-2.9-2.9c0-1.6,1.3-2.9,2.9-2.9C80.1,15.1,81.5,16.4,81.5,18.1
	z"/>
<path class="st0" d="M5.9,33.2c0,1.6-1.3,2.9-2.9,2.9c-1.6,0-2.9-1.3-2.9-2.9c0-1.6,1.3-2.9,2.9-2.9C4.6,30.2,5.9,31.5,5.9,33.2z"/>
<path class="st0" d="M21,33.2c0,1.6-1.3,2.9-2.9,2.9c-1.6,0-2.9-1.3-2.9-2.9c0-1.6,1.3-2.9,2.9-2.9C19.7,30.2,21,31.5,21,33.2z"/>
<path class="st0" d="M36.1,33.2c0,1.6-1.3,2.9-2.9,2.9c-1.6,0-2.9-1.3-2.9-2.9c0-1.6,1.3-2.9,2.9-2.9C34.8,30.2,36.1,31.5,36.1,33.2
	z"/>
<path class="st0" d="M51.2,33.2c0,1.6-1.3,2.9-2.9,2.9c-1.6,0-2.9-1.3-2.9-2.9c0-1.6,1.3-2.9,2.9-2.9C49.9,30.2,51.2,31.5,51.2,33.2
	z"/>
<path class="st0" d="M66.3,33.2c0,1.6-1.3,2.9-2.9,2.9c-1.6,0-2.9-1.3-2.9-2.9c0-1.6,1.3-2.9,2.9-2.9C65,30.2,66.3,31.5,66.3,33.2z"
	/>
<path class="st0" d="M81.5,33.2c0,1.6-1.3,2.9-2.9,2.9c-1.6,0-2.9-1.3-2.9-2.9c0-1.6,1.3-2.9,2.9-2.9C80.1,30.2,81.5,31.5,81.5,33.2
	z"/>
<path class="st0" d="M5.9,48.3c0,1.6-1.3,2.9-2.9,2.9c-1.6,0-2.9-1.3-2.9-2.9c0-1.6,1.3-2.9,2.9-2.9C4.6,45.3,5.9,46.7,5.9,48.3z"/>
<path class="st0" d="M21,48.3c0,1.6-1.3,2.9-2.9,2.9c-1.6,0-2.9-1.3-2.9-2.9c0-1.6,1.3-2.9,2.9-2.9C19.7,45.3,21,46.7,21,48.3z"/>
<path class="st0" d="M36.1,48.3c0,1.6-1.3,2.9-2.9,2.9c-1.6,0-2.9-1.3-2.9-2.9c0-1.6,1.3-2.9,2.9-2.9C34.8,45.3,36.1,46.7,36.1,48.3
	z"/>
<path class="st0" d="M51.2,48.3c0,1.6-1.3,2.9-2.9,2.9c-1.6,0-2.9-1.3-2.9-2.9c0-1.6,1.3-2.9,2.9-2.9C49.9,45.3,51.2,46.7,51.2,48.3
	z"/>
<path class="st0" d="M66.3,48.3c0,1.6-1.3,2.9-2.9,2.9c-1.6,0-2.9-1.3-2.9-2.9c0-1.6,1.3-2.9,2.9-2.9C65,45.3,66.3,46.7,66.3,48.3z"
	/>
<path class="st0" d="M81.5,48.3c0,1.6-1.3,2.9-2.9,2.9c-1.6,0-2.9-1.3-2.9-2.9c0-1.6,1.3-2.9,2.9-2.9C80.1,45.3,81.5,46.7,81.5,48.3
	z"/>
<path class="st0" d="M5.9,63.4c0,1.6-1.3,2.9-2.9,2.9C1.3,66.3,0,65,0,63.4c0-1.6,1.3-2.9,2.9-2.9C4.6,60.5,5.9,61.8,5.9,63.4z"/>
<path class="st0" d="M21,63.4c0,1.6-1.3,2.9-2.9,2.9c-1.6,0-2.9-1.3-2.9-2.9c0-1.6,1.3-2.9,2.9-2.9C19.7,60.5,21,61.8,21,63.4z"/>
<path class="st0" d="M36.1,63.4c0,1.6-1.3,2.9-2.9,2.9c-1.6,0-2.9-1.3-2.9-2.9c0-1.6,1.3-2.9,2.9-2.9C34.8,60.5,36.1,61.8,36.1,63.4
	z"/>
<path class="st0" d="M51.2,63.4c0,1.6-1.3,2.9-2.9,2.9c-1.6,0-2.9-1.3-2.9-2.9c0-1.6,1.3-2.9,2.9-2.9C49.9,60.5,51.2,61.8,51.2,63.4
	z"/>
<path class="st0" d="M66.3,63.4c0,1.6-1.3,2.9-2.9,2.9c-1.6,0-2.9-1.3-2.9-2.9c0-1.6,1.3-2.9,2.9-2.9C65,60.5,66.3,61.8,66.3,63.4z"
	/>
<path class="st0" d="M81.5,63.4c0,1.6-1.3,2.9-2.9,2.9c-1.6,0-2.9-1.3-2.9-2.9c0-1.6,1.3-2.9,2.9-2.9C80.1,60.5,81.5,61.8,81.5,63.4
	z"/>
<path class="st0" d="M5.9,78.5c0,1.6-1.3,2.9-2.9,2.9c-1.6,0-2.9-1.3-2.9-2.9c0-1.6,1.3-2.9,2.9-2.9C4.6,75.6,5.9,76.9,5.9,78.5z"/>
<path class="st0" d="M21,78.5c0,1.6-1.3,2.9-2.9,2.9c-1.6,0-2.9-1.3-2.9-2.9c0-1.6,1.3-2.9,2.9-2.9C19.7,75.6,21,76.9,21,78.5z"/>
<path class="st0" d="M36.1,78.5c0,1.6-1.3,2.9-2.9,2.9c-1.6,0-2.9-1.3-2.9-2.9c0-1.6,1.3-2.9,2.9-2.9C34.8,75.6,36.1,76.9,36.1,78.5
	z"/>
<path class="st0" d="M51.2,78.5c0,1.6-1.3,2.9-2.9,2.9c-1.6,0-2.9-1.3-2.9-2.9c0-1.6,1.3-2.9,2.9-2.9C49.9,75.6,51.2,76.9,51.2,78.5
	z"/>
<path class="st0" d="M66.3,78.5c0,1.6-1.3,2.9-2.9,2.9c-1.6,0-2.9-1.3-2.9-2.9c0-1.6,1.3-2.9,2.9-2.9C65,75.6,66.3,76.9,66.3,78.5z"
	/>
<path class="st0" d="M81.5,78.5c0,1.6-1.3,2.9-2.9,2.9c-1.6,0-2.9-1.3-2.9-2.9c0-1.6,1.3-2.9,2.9-2.9C80.1,75.6,81.5,76.9,81.5,78.5
	z"/>
</svg>
