<svg 
 xmlns="http://www.w3.org/2000/svg"
 xmlns:xlink="http://www.w3.org/1999/xlink"
 width="13px" height="20px">
<path fill-rule="evenodd"  fill="rgb(255, 255, 255)"
 d="M12.690,17.10 C12.689,18.388 11.799,19.269 10.420,19.270 C7.807,19.272 5.195,19.271 2.582,19.270 C1.202,19.269 0.311,18.388 0.309,17.12 C0.306,14.672 0.308,12.332 0.308,9.991 C0.308,7.675 0.307,5.359 0.309,3.43 C0.310,1.592 1.179,0.729 2.634,0.728 C5.222,0.728 7.810,0.727 10.399,0.728 C11.806,0.729 12.689,1.602 12.690,3.4 C12.692,7.672 12.692,12.341 12.690,17.10 ZM11.145,3.185 C11.145,2.612 10.873,2.305 10.345,2.270 C9.617,2.222 9.291,2.451 9.204,3.71 C9.135,3.556 8.876,3.817 8.391,3.821 C7.133,3.833 5.874,3.832 4.616,3.822 C4.128,3.818 3.887,3.553 3.785,3.81 C3.735,2.850 3.628,2.574 3.454,2.438 C3.107,2.165 2.671,2.203 2.280,2.369 C1.923,2.519 1.850,2.848 1.850,3.213 C1.855,7.738 1.853,12.264 1.854,16.789 C1.854,17.444 2.142,17.728 2.811,17.729 C5.267,17.731 7.723,17.731 10.179,17.729 C10.865,17.728 11.145,17.445 11.146,16.761 C11.146,14.517 11.146,12.272 11.146,10.27 C11.146,7.747 11.147,5.466 11.145,3.185 ZM6.499,15.995 C5.125,15.995 4.11,15.549 4.11,14.999 C4.11,14.450 5.125,14.4 6.499,14.4 C7.874,14.4 8.988,14.450 8.988,14.999 C8.988,15.549 7.874,15.995 6.499,15.995 Z"/>
</svg>