<svg xmlns="http://www.w3.org/2000/svg" width="15" height="14.969" viewBox="0 0 15 14.969"><path fill-rule="evenodd" fill="rgb(255 255 255)" d="M1544.52,161.183c-1.36,0-2.72,0-4.09,0a3.244,3.244,0,0,1-3.4-3.385V155.18a0.677,0.677,0,0,1,.67-0.8,0.686,0.686,0,0,1,.69.806v2.682a1.9,1.9,0,0,0,1.96,1.955q4.185,0,8.37,0a1.9,1.9,0,0,0,1.95-1.933c0-.937-0.01-1.873,0-2.81a0.678,0.678,0,0,1,1.3-.294,0.978,0.978,0,0,1,.05.342c0.01,0.947.02,1.895,0,2.842a3.22,3.22,0,0,1-3.22,3.209c-1.42.02-2.85,0-4.28,0h0Zm0.7-12.641v7.285a2.055,2.055,0,0,1-.02.351,0.671,0.671,0,0,1-.67.6,0.683,0.683,0,0,1-.68-0.6c-0.01-.115-0.01-0.233-0.01-0.35v-7.285c-0.13.126-.21,0.2-0.29,0.277l-2.58,2.573a0.666,0.666,0,0,1-.78.192,0.583,0.583,0,0,1-.41-0.586,0.923,0.923,0,0,1,.21-0.538q2.01-2.039,4.04-4.047a0.666,0.666,0,0,1,1,0q2.025,2.015,4.04,4.042a0.678,0.678,0,0,1,.03.973,0.662,0.662,0,0,1-.99-0.018c-0.87-.853-1.72-1.714-2.58-2.572C1545.45,148.759,1545.36,148.681,1545.22,148.542Z" transform="translate(-1537.03 -146.219)"/></svg>