<svg xmlns="http://www.w3.org/2000/svg" viewBox="0 0 20.55 20.79" width="15" height="15.17"><path fill="rgb(255 255 255)" d="M10.13,11.98h.02c1.6,0,3.1-.62,4.23-1.75s1.76-2.63,1.76-4.23c0-1.6-.62-3.11-1.75-4.24-1.13-1.13-2.64-1.76-4.24-1.76h0c-1.6,0-3.1,.63-4.23,1.76-1.13,1.13-1.75,2.64-1.75,4.25,0,3.28,2.68,5.96,5.96,5.97ZM7.33,3.18c.75-.76,1.75-1.18,2.81-1.18h.01c2.2,0,3.99,1.78,3.99,3.97,0,2.2-1.77,4-3.97,4.01h-.01c-2.2,0-3.99-1.78-4-3.97,0-1.07,.41-2.07,1.16-2.83Z"/><path fill="rgb(255 255 255)" d="M20.32,19.49c-.1-.2-.19-.38-.29-.55-1.73-2.76-4.45-4.63-7.65-5.25-3.21-.62-6.42,.09-9.06,2.01-1.38,1-2.46,2.21-3.21,3.58-.17,.31-.14,.87,.06,1.16,.16,.23,.54,.36,.85,.36,.08,0,.15,0,.22-.03,.31-.08,.54-.41,.73-.71,1.77-2.84,4.81-4.55,8.13-4.58h.07c3.29,0,6.33,1.66,8.12,4.46,.03,.05,.06,.11,.09,.16,.09,.17,.2,.37,.38,.47,.27,.15,.67,.28,.99,.18,.23-.07,.38-.28,.52-.47,.05-.07,.1-.14,.16-.21l.11-.13-.08-.15c-.06-.11-.11-.21-.15-.3Z"/></svg>