<svg xmlns="http://www.w3.org/2000/svg" viewBox="0 0 18.08 14.27" width="19px" height="auto"><path fill="rgb(255 255 255)" d="M14.28,4.5l-4.69,3.33c-.29,.17-.66,.17-.9,.04L3.94,4.5c-.32-.23-.75-.15-.98,.17-.22,.31-.15,.75,.17,.98l4.8,3.41c.36,.21,.75,.31,1.16,.31s.85-.11,1.25-.35l4.74-3.37c.32-.22,.39-.66,.17-.98-.22-.31-.66-.39-.98-.17Z"/><path fill="rgb(255 255 255)" d="M18.07,3.5c0-1.93-1.58-3.49-3.5-3.49-3.69,0-7.38,0-11.07,0C1.58,0,.01,1.57,0,3.5c0,2.42,0,4.83,0,7.25,0,1.94,1.58,3.51,3.52,3.52,1.84,0,3.68,0,5.52,0s3.68,0,5.52,0c1.94,0,3.51-1.58,3.52-3.52,0-2.42,0-4.83,0-7.25Zm-1.41,7.24c0,1.16-.95,2.11-2.11,2.12-1.84,0-3.68,0-5.51,0-1.83,0-3.65,0-5.48,0-1.18,0-2.14-.97-2.14-2.15,0-2.38,0-4.77,0-7.15,0-1.17,.96-2.13,2.13-2.13,3.66,0,7.32,0,10.98,0,1.18,0,2.13,.96,2.13,2.13,0,2.39,0,4.79,0,7.18Z"/></svg>