<svg 
 xmlns="http://www.w3.org/2000/svg"
 xmlns:xlink="http://www.w3.org/1999/xlink"
 width="16px" height="15px">
<path fill-rule="evenodd"  fill="rgb(151, 151, 151)"
 d="M15.594,13.548 L12.088,10.084 C14.145,7.432 13.704,3.621 11.057,1.494 C9.748,0.441 8.098,-0.051 6.415,0.119 C4.732,0.284 3.215,1.085 2.144,2.372 C-0.067,5.030 0.334,8.960 3.038,11.133 C5.304,12.955 8.569,13.000 10.884,11.267 L14.389,14.732 C14.555,14.889 14.768,14.966 14.981,14.966 C15.205,14.966 15.427,14.880 15.594,14.711 C15.914,14.385 15.914,13.874 15.594,13.548 ZM11.679,6.322 C11.676,8.824 9.603,10.863 7.058,10.866 C4.510,10.866 2.436,8.827 2.436,6.323 C2.436,3.818 4.510,1.780 7.058,1.780 C9.606,1.780 11.679,3.818 11.679,6.322 Z"/>
</svg>