<svg width="15" height="10" viewBox="0 0 15 10" fill="none" xmlns="http://www.w3.org/2000/svg">
<g clip-path="url(#clip0_842_2920)">
<path d="M14.7171 4.73695L11.1719 0.797773C11.0962 0.714262 10.9907 0.666992 10.8788 0.666992H8.51529C8.4392 0.667075 8.36475 0.689124 8.30088 0.730491C8.23701 0.771858 8.18645 0.830784 8.15525 0.900192C8.09223 1.04279 8.11823 1.20902 8.22222 1.32405L11.5303 5.00009L8.22222 8.67535C8.11823 8.79116 8.09144 8.95739 8.15525 9.0992C8.21907 9.2418 8.36009 9.33319 8.51529 9.33319H10.8788C10.9907 9.33319 11.0962 9.28513 11.1719 9.2032L14.7171 5.26402C14.8519 5.11433 14.8519 4.88585 14.7171 4.73695Z" fill="white"/>
<path d="M1.36364 3.63641H12.0909V6.36368H0L1.36364 3.63641Z" fill="white"/>
</g>
<defs>
<clipPath id="clip0_842_2920">
<rect width="15" height="9" fill="white" transform="translate(0 0.5)"/>
</clipPath>
</defs>
</svg>
