<svg 
 xmlns="http://www.w3.org/2000/svg"
 xmlns:xlink="http://www.w3.org/1999/xlink"
 width="332px" height="75px">
<path fill-rule="evenodd"  fill="rgb(255, 101, 54)"
 d="M4.828,69.967 C6.852,69.676 8.366,69.678 10.093,70.120 C12.070,70.625 14.282,70.695 14.694,68.065 C13.180,66.734 9.762,68.489 9.107,65.447 C10.677,65.544 12.186,66.109 13.812,65.621 C14.880,63.897 12.713,63.908 11.628,63.137 C13.402,60.636 15.819,59.065 19.410,58.947 C18.814,58.051 18.819,57.257 19.706,55.941 C15.253,57.473 11.173,58.514 7.667,55.301 C12.898,53.981 17.848,52.732 22.799,51.482 C22.727,51.214 22.655,50.945 22.583,50.677 C17.905,51.372 13.293,53.644 8.493,51.539 C8.387,47.176 13.224,49.190 15.346,47.574 C12.999,46.452 11.310,44.592 7.704,44.906 C10.278,41.944 14.430,43.003 16.561,40.727 C15.322,39.882 12.597,39.898 13.090,37.535 C15.790,36.242 17.975,37.062 19.927,38.862 C20.506,37.173 20.855,35.612 22.981,35.148 C20.623,32.775 17.990,33.252 15.350,33.892 C12.251,34.644 8.957,34.475 5.883,35.434 C4.935,35.729 3.666,35.639 3.162,34.344 C5.324,32.168 8.930,32.330 12.161,30.658 C7.680,30.279 3.937,31.801 0.077,30.901 C6.779,27.459 13.971,25.400 21.811,24.724 C18.397,23.676 19.575,22.202 21.015,20.623 C19.399,19.738 17.094,20.289 15.301,18.557 C18.072,17.385 20.205,15.161 23.331,15.385 C26.744,15.630 28.847,14.415 30.809,12.147 C28.759,11.780 25.700,13.680 25.053,10.873 C24.612,8.957 27.439,9.034 29.129,8.231 C26.414,7.620 23.473,8.181 21.526,5.828 C25.390,4.033 29.610,3.624 33.708,3.585 C41.664,3.509 49.559,2.614 57.447,2.094 C61.440,1.831 65.665,1.106 69.742,0.458 C71.955,0.107 73.765,0.857 75.764,0.694 C84.810,-0.041 93.883,0.143 102.950,0.132 C110.576,0.123 118.209,0.311 125.827,0.093 C137.401,-0.239 148.931,0.647 160.485,0.810 C165.345,0.878 170.259,0.664 175.010,0.942 C181.455,1.320 187.976,1.440 194.405,2.235 C195.587,2.381 196.800,2.375 197.999,2.376 C210.147,2.388 222.170,4.052 234.290,4.386 C242.382,4.610 250.365,5.854 258.503,5.856 C264.514,5.858 270.528,7.350 276.535,7.319 C285.932,7.268 295.228,8.223 304.578,8.537 C305.511,8.568 306.157,8.912 307.231,9.664 C298.644,9.664 290.496,9.664 282.348,9.664 C296.007,10.898 309.720,12.272 323.047,15.443 C321.995,16.128 316.042,16.203 313.182,15.581 C309.742,14.832 306.289,14.149 302.558,14.148 C305.186,17.886 310.116,17.009 313.746,18.726 C311.386,19.442 309.199,18.351 306.717,18.214 C306.460,19.289 305.896,20.326 304.280,20.933 C305.850,21.684 307.366,21.715 308.281,22.665 C306.799,25.102 303.182,23.540 301.254,25.326 C305.981,27.342 314.501,28.454 316.429,27.330 C317.118,29.932 319.905,29.393 321.893,29.821 C325.317,30.558 328.874,30.900 331.078,33.980 C328.745,34.935 325.984,33.597 324.090,35.124 C324.407,36.973 327.229,36.115 327.632,37.881 C326.488,38.908 324.560,37.633 323.330,39.012 C324.070,39.663 325.799,40.257 324.814,41.408 C323.698,42.711 321.918,42.527 320.185,42.249 C314.078,41.271 307.957,40.350 301.836,39.433 C301.223,39.341 300.575,39.420 300.038,39.420 C305.201,43.103 311.732,43.246 317.847,44.421 C320.512,44.934 322.434,46.214 324.625,47.668 C322.894,49.198 321.113,49.062 319.150,48.719 C314.945,47.982 310.719,47.321 306.478,46.755 C305.380,46.609 304.079,46.406 302.460,47.639 C309.551,49.199 316.665,49.084 322.890,51.691 C322.010,54.636 320.700,55.062 316.835,54.488 C312.386,53.828 307.949,53.004 303.406,52.902 C302.729,52.887 301.891,52.670 301.313,53.606 C308.027,54.950 315.344,54.343 321.188,58.646 C319.853,59.649 318.999,60.179 317.172,59.745 C313.057,58.764 308.741,58.511 304.604,57.457 C301.705,56.718 298.853,58.346 294.948,57.745 C297.976,60.304 301.189,60.240 304.016,60.660 C306.545,61.036 309.091,61.501 311.625,61.719 C314.648,61.978 316.337,63.041 316.758,65.670 C315.837,65.737 314.788,65.814 313.498,65.908 C315.363,66.891 317.225,67.577 318.511,69.033 C316.755,71.269 314.404,69.698 311.476,69.673 C314.550,71.102 316.842,72.169 319.636,73.469 C316.987,75.582 314.062,75.032 311.774,74.609 C303.551,73.086 295.171,72.560 286.884,71.502 C278.691,70.456 270.465,69.460 262.228,68.733 C256.745,68.249 251.221,67.899 245.715,67.552 C236.092,66.946 226.476,66.214 216.850,65.643 C201.679,64.744 186.524,64.699 171.350,64.675 C163.073,64.662 154.784,64.436 146.521,64.732 C135.638,65.120 124.747,65.451 113.875,65.937 C108.595,66.174 103.311,66.069 98.053,66.400 C88.376,67.006 78.721,67.859 69.051,68.548 C65.045,68.834 61.027,69.048 57.009,69.147 C44.050,69.466 31.195,70.470 18.531,72.961 C14.998,73.656 11.650,72.519 8.455,71.543 C7.476,71.244 5.933,71.271 4.828,69.967 ZM16.356,65.682 C17.537,67.929 19.430,67.577 21.121,67.397 C25.596,66.921 30.059,65.873 34.520,65.898 C42.397,65.943 50.073,64.412 57.988,64.428 C64.134,64.440 70.447,63.522 76.671,63.095 C87.602,62.347 98.564,61.625 109.560,61.857 C111.010,61.888 111.012,61.832 112.123,60.971 C99.034,59.738 85.830,62.049 72.576,61.314 C72.150,61.290 71.714,61.378 71.285,61.430 C68.515,61.759 65.745,62.378 62.976,62.376 C51.528,62.367 40.088,62.522 28.707,63.601 C24.618,63.989 20.604,64.949 16.356,65.682 ZM273.080,65.165 C272.096,64.644 271.675,64.272 271.183,64.183 C261.229,62.388 251.025,62.290 240.981,60.903 C231.565,59.601 221.898,59.630 212.343,59.044 C209.169,58.849 205.980,58.685 202.838,58.281 C200.276,57.952 192.354,57.786 189.558,58.471 C217.267,59.588 244.788,62.358 273.080,65.165 ZM19.546,46.871 C23.164,47.660 20.499,44.059 23.140,44.224 C21.028,42.587 19.165,43.631 17.172,44.129 C18.027,45.117 18.843,46.058 19.546,46.871 Z"/>
</svg>