<svg width="33" height="42" viewBox="0 0 33 42" fill="none" xmlns="http://www.w3.org/2000/svg">
<path d="M16.5 0.328125C7.63447 0.328125 0.421875 7.54072 0.421875 16.4062C0.421875 20.7129 3.03104 26.2434 8.17686 32.8435C10.5344 35.8595 13.0875 38.7175 15.8196 41.3989C16.0028 41.5741 16.2465 41.6718 16.5 41.6718C16.7535 41.6718 16.9972 41.5741 17.1804 41.3989C19.9125 38.7175 22.4656 35.8595 24.8231 32.8435C29.969 26.2434 32.5781 20.7129 32.5781 16.4062C32.5781 7.54072 25.3655 0.328125 16.5 0.328125ZM16.5 27.8906C10.1672 27.8906 5.01562 22.7391 5.01562 16.4062C5.01562 10.0734 10.1672 4.92188 16.5 4.92188C22.8328 4.92188 27.9844 10.0734 27.9844 16.4062C27.9844 22.7391 22.8328 27.8906 16.5 27.8906Z" fill="white"/>
<path d="M24.381 15.0216L17.1622 8.45912C16.981 8.2944 16.7449 8.20312 16.5001 8.20312C16.2552 8.20312 16.0191 8.2944 15.8379 8.45912L8.61915 15.0216C8.45097 15.1745 8.34087 15.3809 8.30753 15.6058C8.27419 15.8307 8.31965 16.0601 8.43622 16.2553C8.52818 16.4039 8.65707 16.5261 8.81032 16.61C8.96356 16.694 9.13595 16.7368 9.31067 16.7343H10.2657V22.9687C10.2657 23.2298 10.3694 23.4802 10.554 23.6648C10.7386 23.8494 10.989 23.9531 11.2501 23.9531H13.5469C13.808 23.9531 14.0584 23.8494 14.243 23.6648C14.4276 23.4802 14.5313 23.2298 14.5313 22.9687V19.3593C14.5313 19.0983 14.635 18.8479 14.8196 18.6633C15.0042 18.4787 15.2546 18.375 15.5157 18.375H17.4844C17.7455 18.375 17.9959 18.4787 18.1805 18.6633C18.3651 18.8479 18.4688 19.0983 18.4688 19.3593V22.9687C18.4688 23.2298 18.5725 23.4802 18.7571 23.6648C18.9417 23.8494 19.1921 23.9531 19.4532 23.9531H21.7501C22.0111 23.9531 22.2615 23.8494 22.4461 23.6648C22.6307 23.4802 22.7344 23.2298 22.7344 22.9687V16.7343H23.6894C23.8642 16.7368 24.0365 16.694 24.1898 16.61C24.343 16.5261 24.4719 16.4039 24.5639 16.2553C24.6805 16.0601 24.7259 15.8307 24.6926 15.6058C24.6592 15.3809 24.5491 15.1745 24.381 15.0216Z" fill="white"/>
</svg>
