<svg width="45" height="36" viewBox="0 0 45 36" fill="none" xmlns="http://www.w3.org/2000/svg">
<path d="M23.9671 0.896643L43.1998 12.0721C43.3706 12.1711 43.5124 12.3132 43.611 12.4843C43.7095 12.6553 43.7614 12.8492 43.7614 13.0466C43.7614 13.244 43.7095 13.438 43.611 13.609C43.5124 13.78 43.3706 13.9222 43.1998 14.0212L23.9671 25.1966C23.387 25.534 22.7279 25.7117 22.0568 25.7117C21.3857 25.7117 20.7266 25.534 20.1465 25.1966L0.913738 14.0212C0.742955 13.9222 0.601185 13.78 0.502632 13.609C0.404079 13.438 0.352203 13.244 0.352203 13.0466C0.352203 12.8492 0.404079 12.6553 0.502632 12.4843C0.601185 12.3132 0.742955 12.1711 0.913738 12.0721L20.1465 0.896643C20.7269 0.560071 21.3859 0.382812 22.0568 0.382812C22.7277 0.382812 23.3867 0.560071 23.9671 0.896643Z" fill="white"/>
<path d="M23.9671 0.896643L43.1998 12.0721C43.3706 12.1711 43.5124 12.3132 43.611 12.4843C43.7095 12.6553 43.7614 12.8492 43.7614 13.0466C43.7614 13.244 43.7095 13.438 43.611 13.609C43.5124 13.78 43.3706 13.9222 43.1998 14.0212L23.9671 25.1966C23.387 25.534 22.7279 25.7117 22.0568 25.7117C21.3857 25.7117 20.7266 25.534 20.1465 25.1966L0.913738 14.0212C0.742955 13.9222 0.601185 13.78 0.502632 13.609C0.404079 13.438 0.352203 13.244 0.352203 13.0466C0.352203 12.8492 0.404079 12.6553 0.502632 12.4843C0.601185 12.3132 0.742955 12.1711 0.913738 12.0721L20.1465 0.896643C20.7269 0.560071 21.3859 0.382812 22.0568 0.382812C22.7277 0.382812 23.3867 0.560071 23.9671 0.896643Z" fill="white"/>
<path d="M43.193 14.0297L36.6592 17.8266L23.9713 25.1989C22.7848 25.8792 21.3293 25.8792 20.1428 25.1989L7.45489 17.8266L0.905283 14.0297C0.735117 13.9287 0.594156 13.7852 0.496251 13.6132C0.398345 13.4412 0.346863 13.2468 0.346863 13.0489C0.346863 12.851 0.398345 12.6565 0.496251 12.4845C0.594156 12.3126 0.735117 12.169 0.905283 12.068L20.1428 0.898877C21.3293 0.218603 22.7848 0.218603 23.9713 0.898877L43.193 12.068C43.9524 12.511 43.9524 13.5868 43.193 14.0297Z" fill="white"/>
<path d="M25.1642 27.25C24.2102 27.7958 23.1407 28.0821 22.057 28.0821C20.9734 28.0821 19.9039 27.7958 18.9626 27.2579L7.4549 20.5707V26.5112C7.4549 27.8401 8.15099 29.0583 9.30587 29.7227L17.3268 34.3581C18.7642 35.1822 20.3922 35.6159 22.0491 35.6159C23.706 35.6159 25.3341 35.1822 26.7715 34.3581L34.8082 29.7227C35.9473 29.0583 36.6592 27.8401 36.6592 26.5112V20.5707L25.1642 27.25ZM43.541 28.6105V16.5713L40.6918 18.2261V28.609C40.2438 28.9133 39.9052 29.3533 39.7257 29.8642C39.5461 30.3752 39.5351 30.9302 39.6941 31.4479C39.8532 31.9656 40.174 32.4187 40.6095 32.7406C41.045 33.0626 41.5723 33.2365 42.1138 33.2368C42.6554 33.2371 43.1828 33.0638 43.6187 32.7423C44.0545 32.4208 44.3759 31.9681 44.5355 31.4506C44.6952 30.9331 44.6847 30.378 44.5058 29.8669C44.3268 29.3557 43.9887 28.9154 43.541 28.6105Z" fill="white"/>
</svg>
