<svg width="35" height="40" viewBox="0 0 35 40" fill="none" xmlns="http://www.w3.org/2000/svg">
<path d="M24.3918 9.97742L27.5704 3.51898L22.5549 0L17.5047 2.52961L12.4524 0L7.43704 3.51891L10.6156 9.97734L24.3918 9.97742ZM34.3741 27.6482C34.0936 25.2388 33.0463 22.8577 31.2614 20.5709L24.9445 12.477H19.2603L20.5559 16.217L18.1939 17.0352L17.5044 15.0445L16.538 17.8328L14.1763 17.0141L15.7488 12.477H10.0555L3.74751 20.5227C1.96009 22.8031 0.910325 25.1796 0.627278 27.5861C0.379466 29.6933 0.741732 31.8206 1.67509 33.738C3.42829 37.3396 7.07673 39.9538 10.3463 39.9538L24.657 40C27.9244 40 31.5674 37.3941 33.3195 33.8039C34.2551 31.8869 34.6198 29.7583 34.3741 27.6482ZM17.7578 26.4442C18.5755 26.6163 19.5023 26.8114 20.2676 27.3161C21.2674 27.9753 21.7745 28.9928 21.7745 30.3402C21.7745 32.1038 20.4991 33.5988 18.7502 34.0905V35.9074H16.2506V34.0905C14.5017 33.5988 13.2263 32.1038 13.2263 30.3402H15.7259C15.7259 31.1244 16.522 31.7623 17.5004 31.7623C18.4788 31.7623 19.2749 31.1244 19.2749 30.3402C19.2749 29.4516 19.009 29.262 17.2429 28.8902C16.4252 28.718 15.4984 28.523 14.7331 28.0184C13.7332 27.3591 13.2263 26.3416 13.2263 24.9942C13.2263 23.2306 14.5017 21.7356 16.2506 21.244V19.4271H18.7502V21.244C20.499 21.7356 21.7745 23.2307 21.7745 24.9942H19.2749C19.2749 24.2101 18.4788 23.5721 17.5004 23.5721C16.5219 23.5721 15.7259 24.2101 15.7259 24.9942C15.7259 25.8828 15.9917 26.0725 17.7578 26.4442Z" fill="white"/>
</svg>
