<svg width="39" height="44" viewBox="0 0 39 44" fill="none" xmlns="http://www.w3.org/2000/svg">
<path d="M28.7859 31.4284C28.7859 31.8451 28.9514 32.2448 29.2461 32.5395C29.5408 32.8342 29.9406 32.9998 30.3573 32.9998H38.2145V29.8569H30.3573C29.9406 29.8569 29.5408 30.0225 29.2461 30.3172C28.9514 30.6119 28.7859 31.0116 28.7859 31.4284Z" fill="white"/>
<path d="M35.0715 19.1556V17.2856C35.0715 16.0353 34.5749 14.8362 33.6908 13.9521C32.8067 13.068 31.6076 12.5713 30.3573 12.5713H26.0201L22.8772 15.7141H30.3573C30.774 15.7141 31.1737 15.8797 31.4684 16.1744C31.7631 16.4691 31.9287 16.8688 31.9287 17.2856V18.857H5.21435C4.79758 18.857 4.39789 18.6914 4.10318 18.3967C3.80848 18.102 3.64292 17.7023 3.64292 17.2856C3.64292 16.8688 3.80848 16.4691 4.10318 16.1744C4.39789 15.8797 4.79758 15.7141 5.21435 15.7141H12.6944L9.5515 12.5713H5.21435C3.96405 12.5713 2.76495 13.068 1.88085 13.9521C0.996744 14.8362 0.500061 16.0353 0.500061 17.2856V39.2856C0.500061 40.5359 0.996744 41.735 1.88085 42.6191C2.76495 43.5032 3.96405 43.9999 5.21435 43.9999H33.5001C34.7504 43.9999 35.9495 43.5032 36.8336 42.6191C37.7177 41.735 38.2144 40.5359 38.2144 39.2856V36.1427H30.3573C29.1069 36.1427 27.9078 35.646 27.0237 34.7619C26.1396 33.8778 25.643 32.6787 25.643 31.4284C25.643 30.1781 26.1396 28.979 27.0237 28.0949C27.9078 27.2108 29.1069 26.7141 30.3573 26.7141H38.2144V23.5713C38.2084 22.6013 37.9034 21.6569 37.341 20.8666C36.7785 20.0764 35.986 19.4789 35.0715 19.1556Z" fill="white"/>
<path d="M16.6701 15.2586C16.8162 15.4059 16.99 15.5228 17.1815 15.6025C17.373 15.6823 17.5784 15.7234 17.7858 15.7234C17.9933 15.7234 18.1986 15.6823 18.3901 15.6025C18.5816 15.5228 18.7554 15.4059 18.9015 15.2586L23.6158 10.5443C23.8339 10.3233 23.9816 10.0427 24.0403 9.73785C24.099 9.43301 24.0662 9.1176 23.9458 8.83143C23.8279 8.54446 23.6277 8.2988 23.3705 8.12542C23.1132 7.95204 22.8103 7.85869 22.5001 7.85714H19.3572V1.57143C19.3572 1.15466 19.1917 0.754961 18.897 0.460261C18.6023 0.165561 18.2026 0 17.7858 0C17.369 0 16.9693 0.165561 16.6746 0.460261C16.3799 0.754961 16.2144 1.15466 16.2144 1.57143V7.85714H13.0715C12.7613 7.85869 12.4584 7.95204 12.2012 8.12542C11.9439 8.2988 11.7437 8.54446 11.6258 8.83143C11.5055 9.1176 11.4726 9.43301 11.5313 9.73785C11.59 10.0427 11.7377 10.3233 11.9558 10.5443L16.6701 15.2586Z" fill="white"/>
</svg>
