<svg width="25" height="20" viewBox="0 0 25 20" fill="none" xmlns="http://www.w3.org/2000/svg">
<path d="M21.8 6.36977C21.2 7.03977 20.57 7.82977 19.91 8.70977L21.36 10.0698L18.1 16.9998H3.84L7.34 2.99977H13.81L14.28 3.43977C14.94 2.78977 15.53 2.23977 16.01 1.82977C16.18 1.67977 16.35 1.53977 16.51 1.41977L15 0.00976562H5L0 19.9998H20L25 9.37977L21.8 6.37977V6.36977Z" fill="#EB5821"/>
<path d="M12.73 9.23986L9.84001 7.21986C9.78001 7.17986 9.72001 7.15986 9.65001 7.16986C9.58001 7.16986 9.52001 7.19986 9.47001 7.24986L8.59001 8.11986C8.59001 8.11986 8.51001 8.22986 8.51001 8.29986C8.51001 8.36986 8.52001 8.43986 8.57001 8.48986C8.60001 8.52986 11.47 12.4399 12.55 14.2799C12.58 14.3199 12.61 14.3599 12.66 14.3799C12.7 14.4099 12.75 14.4199 12.8 14.4199C12.85 14.4199 12.9 14.4099 12.94 14.3799C12.98 14.3499 13.02 14.3199 13.04 14.2699C13.05 14.2499 14.16 12.2999 15.77 9.92986C17.24 7.74986 19.45 4.74986 21.56 2.85986C21.6 2.81986 21.63 2.76986 21.65 2.70986C21.66 2.64986 21.66 2.58986 21.64 2.53986C21.62 2.48986 21.58 2.43986 21.53 2.40986C21.48 2.37986 21.42 2.35986 21.37 2.35986H19.94C19.89 2.35986 19.84 2.36986 19.79 2.39986C19.76 2.41986 18.92 2.92986 17.6 4.04986C16.43 5.04986 14.64 6.75986 12.72 9.21986L12.73 9.23986Z" fill="#EB5821"/>
</svg>
