<svg width="15" height="10" viewBox="0 0 15 10" fill="none" xmlns="http://www.w3.org/2000/svg">
<path fill-rule="evenodd" clip-rule="evenodd" d="M14.9712 4.92308C14.9712 4.45576 14.5924 4.07692 14.125 4.07692H1.43281C0.965491 4.07692 0.586658 4.45576 0.586658 4.92308C0.586658 5.39039 0.965491 5.76923 1.43281 5.76923H14.125C14.5924 5.76923 14.9712 5.39039 14.9712 4.92308Z" fill="white"/>
<path fill-rule="evenodd" clip-rule="evenodd" d="M5.73303 0.622833C5.40259 0.292389 4.86683 0.292389 4.53639 0.622833L0.834489 4.32476C0.504046 4.6552 0.504046 5.19095 0.834489 5.5214L4.53639 9.22332C4.86683 9.55376 5.40259 9.55376 5.73303 9.22332C6.06347 8.89288 6.06347 8.35712 5.73303 8.02668L2.62944 4.92308L5.73303 1.81947C6.06347 1.48903 6.06347 0.953276 5.73303 0.622833Z" fill="white"/>
</svg>
