<svg width="15" height="17" viewBox="0 0 15 17" fill="none" xmlns="http://www.w3.org/2000/svg">
<path d="M7.5 1.19922C6.10935 1.19922 4.74993 1.61159 3.59365 2.38418C2.43737 3.15677 1.53615 4.25489 1.00398 5.53966C0.471796 6.82444 0.332554 8.23816 0.603857 9.60207C0.875159 10.966 1.54482 12.2188 2.52816 13.2021C3.5115 14.1855 4.76435 14.8551 6.12828 15.1264C7.4922 15.3977 8.90595 15.2585 10.1907 14.7263C11.4755 14.1941 12.5737 13.2929 13.3463 12.1367C14.1189 10.9804 14.5313 9.62099 14.5313 8.23036C14.529 6.36627 13.7875 4.57915 12.4694 3.26103C11.1513 1.94291 9.36413 1.20142 7.5 1.19922ZM11.3865 7.04288L9.74896 8.35224C9.68138 8.40604 9.63147 8.47885 9.60566 8.56129C9.57985 8.64372 9.57933 8.732 9.60417 8.81473L10.3552 11.3178C10.3814 11.4051 10.3794 11.4983 10.3495 11.5844C10.3195 11.6704 10.2631 11.7447 10.1884 11.7968C10.1137 11.8489 10.0244 11.8761 9.93333 11.8744C9.84226 11.8728 9.75403 11.8424 9.68125 11.7876L7.75938 10.346C7.68455 10.2898 7.59354 10.2595 7.5 10.2595C7.40647 10.2595 7.31546 10.2898 7.24063 10.346L5.31875 11.7876C5.24597 11.8424 5.15775 11.8728 5.06667 11.8744C4.9756 11.8761 4.88633 11.8489 4.8116 11.7968C4.73687 11.7447 4.68051 11.6704 4.65056 11.5844C4.6206 11.4983 4.61859 11.4051 4.6448 11.3178L5.3948 8.81473C5.41975 8.7321 5.41939 8.64389 5.39377 8.56146C5.36815 8.47904 5.31844 8.40616 5.25105 8.35224L3.61459 7.04288C3.54461 6.98687 3.49377 6.9105 3.46911 6.82434C3.44445 6.73817 3.44718 6.64646 3.47693 6.56192C3.50667 6.47737 3.56196 6.40416 3.63515 6.35241C3.70833 6.30067 3.79579 6.27296 3.88542 6.2731H5.76042C5.84518 6.27317 5.92808 6.24833 5.99883 6.20166C6.06958 6.15499 6.12505 6.08855 6.15834 6.01061L7.10313 3.80647C7.13629 3.72837 7.1917 3.66175 7.26246 3.61492C7.33322 3.56809 7.41619 3.54312 7.50105 3.54312C7.5859 3.54312 7.66887 3.56809 7.73963 3.61492C7.81039 3.66175 7.8658 3.72837 7.89896 3.80647L8.84375 6.01061C8.87697 6.08839 8.93228 6.15471 9.00282 6.20137C9.07337 6.24803 9.15605 6.27297 9.24063 6.2731H11.1177C11.2076 6.27268 11.2954 6.30029 11.3688 6.35209C11.4423 6.40388 11.4978 6.47728 11.5276 6.56209C11.5574 6.64689 11.56 6.73887 11.5351 6.82523C11.5102 6.91159 11.4589 6.98803 11.3885 7.04392L11.3865 7.04288Z" fill="#B6B6B6"/>
</svg>
