<svg width="61" height="60" viewBox="0 0 61 60" fill="none" xmlns="http://www.w3.org/2000/svg">
<circle cx="30.5" cy="30" r="30" fill="#EDEDED"/>
<g clip-path="url(#clip0_78_93)">
<path d="M40.0779 38.7354C38.1903 35.4213 34.652 33.3656 30.852 33.3656C27.052 33.3656 23.5074 35.4275 21.6198 38.7354C21.5077 38.9285 21.4828 39.1652 21.5451 39.3833C21.6074 39.6013 21.7507 39.782 21.95 39.8879C22.0746 39.9626 22.2116 40 22.3674 40C22.6851 40 22.9716 39.8318 23.0962 39.5764C24.6723 36.7856 27.6375 35.0538 30.8395 35.0538C34.0415 35.0538 37.0067 36.7856 38.6077 39.5764C38.7136 39.7633 38.9005 39.9066 39.1185 39.9626C39.3365 40.0187 39.567 39.9938 39.7539 39.8816C39.9408 39.7757 40.0841 39.5889 40.1401 39.3708C40.1962 39.1528 40.1713 38.9223 40.0592 38.7354H40.0779Z" fill="#9E9E9E"/>
<path d="M30.8464 31.8456C33.8366 31.8456 36.2723 29.4099 36.2723 26.4197C36.2723 23.4295 33.8366 21 30.8464 21C27.8563 21 25.4268 23.4357 25.4268 26.4259C25.4268 29.4161 27.8625 31.8518 30.8527 31.8518L30.8464 31.8456ZM27.1087 26.4197C27.1087 24.3577 28.7845 22.682 30.8464 22.682C32.9084 22.682 34.5841 24.3577 34.5841 26.4197C34.5841 28.4817 32.9084 30.1574 30.8464 30.1574C28.7845 30.1574 27.1087 28.4817 27.1087 26.4197Z" fill="#9E9E9E"/>
</g>
<defs>
<clipPath id="clip0_78_93">
<rect width="19" height="19" fill="white" transform="translate(21.5 21)"/>
</clipPath>
</defs>
</svg>
