<svg width="13" height="10" viewBox="0 0 13 10" fill="none" xmlns="http://www.w3.org/2000/svg">
<path d="M0.794865 7.15281L0.00535704 2.02163C-0.0530449 1.64269 0.378697 1.38402 0.685415 1.61415L3.14522 3.45864C3.20916 3.50653 3.28218 3.54089 3.35985 3.55962C3.43751 3.57835 3.51817 3.58106 3.59691 3.56758C3.67566 3.5541 3.75083 3.52471 3.81783 3.48122C3.88484 3.43772 3.94228 3.38102 3.98664 3.31459L6.0346 0.243322C6.2509 -0.0811074 6.72764 -0.0811074 6.94394 0.243322L8.9919 3.31459C9.03626 3.38102 9.0937 3.43772 9.16071 3.48122C9.22771 3.52471 9.30288 3.5541 9.38163 3.56758C9.46037 3.58106 9.54103 3.57835 9.61869 3.55962C9.69636 3.54089 9.76938 3.50653 9.83332 3.45864L12.2931 1.61415C12.6003 1.38402 13.0316 1.64269 12.9732 2.02163L12.1837 7.15281H0.794865ZM11.5897 10H1.38883C1.31083 10 1.2336 9.98464 1.16153 9.95479C1.08947 9.92494 1.02399 9.8812 0.968834 9.82605C0.857443 9.71466 0.794865 9.5636 0.794865 9.40608V8.10187H12.1837V9.40608C12.1837 9.73397 11.9176 10 11.5897 10Z" fill="url(#paint0_linear_540_2127)"/>
<defs>
<linearGradient id="paint0_linear_540_2127" x1="6.48668" y1="10.002" x2="6.48668" y2="-0.00150077" gradientUnits="userSpaceOnUse">
<stop stop-color="#FD5900"/>
<stop offset="1" stop-color="#FFDE00"/>
</linearGradient>
</defs>
</svg>
