<svg xmlns="http://www.w3.org/2000/svg" width="17" height="16" fill="none" viewBox="0 0 17 16"><g clip-path="url(#a)"><path fill="url(#b)" d="M16.35 8.638c.201-.4.201-.88 0-1.28l-.212-.416a.482.482 0 0 1-.044-.292l.07-.46c.067-.445-.08-.9-.397-1.22l-.326-.33a.482.482 0 0 1-.135-.262l-.073-.457a1.425 1.425 0 0 0-.74-1.03l-.402-.237-.023-.013a.467.467 0 0 1-.208-.208l-.211-.413a1.47 1.47 0 0 0-1.069-.752l-.457-.074a.482.482 0 0 1-.263-.134l-.33-.326a1.433 1.433 0 0 0-1.219-.397l-.46.07c-.1.016-.202 0-.292-.045l-.416-.21a1.43 1.43 0 0 0-1.28 0l-.416.21c-.09.045-.192.061-.29.045l-.462-.07c-.444-.067-.899.08-1.219.397l-.33.326a.482.482 0 0 1-.262.134l-.457.074a1.477 1.477 0 0 0-1.07.752l-.21.413a.467.467 0 0 1-.208.208l-.413.211a1.47 1.47 0 0 0-.752 1.069l-.074.457a.482.482 0 0 1-.134.263l-.327.33c-.316.32-.464.774-.396 1.219l.07.46c.016.1 0 .202-.045.292l-.211.416c-.202.4-.202.88 0 1.28l.211.416c.045.09.06.192.045.29l-.07.462c-.068.444.08.899.396 1.219l.327.33c.07.07.118.163.134.262l.074.457c.073.458.361.868.752 1.07l.413.21c.09.045.163.119.208.208l.21.413c.202.39.609.679 1.07.752l.457.074c.1.016.192.064.263.134l.33.327c.32.316.774.464 1.218.396l.461-.07c.1-.016.202 0 .291.045l.416.211a1.436 1.436 0 0 0 1.28 0l.416-.211a.482.482 0 0 1 .292-.045l.46.07c.445.068.9-.08 1.22-.396l.33-.327a.482.482 0 0 1 .261-.134l.458-.074c.438-.07.822-.345 1.03-.739l.237-.403.013-.023a.467.467 0 0 1 .208-.208l.413-.21c.4-.206.681-.593.752-1.038l.073-.457a.482.482 0 0 1 .135-.263c.112-.121.224-.246.336-.37.31-.318.454-.769.387-1.21l-.07-.461c-.016-.1 0-.202.044-.291l.212-.416Z"/><path fill="url(#c)" d="M8.5 2.342c-3.104 0-5.658 2.55-5.658 5.657 0 3.108 2.55 5.658 5.658 5.658 3.107 0 5.658-2.55 5.658-5.658 0-3.107-2.554-5.657-5.658-5.657Zm3.267 4.365-.937 3.75a.469.469 0 0 1-.455.355h-3.75a.469.469 0 0 1-.455-.355l-.937-3.75a.468.468 0 0 1 .342-.57.467.467 0 0 1 .503.192c.128.189.592.73 1.017.73.077 0 .317-.18.567-.74.22-.502.37-1.145.37-1.603a.468.468 0 0 1 .935 0c0 .458.15 1.104.371 1.603.247.56.49.74.567.74.438 0 .915-.576 1.018-.73a.468.468 0 0 1 .844.374v.004Z"/></g><defs><linearGradient id="b" x1="8.5" x2="8.5" y1="15.998" y2="-.002" gradientUnits="userSpaceOnUse"><stop stop-color="#FD5900"/><stop offset="1" stop-color="#FFDE00"/></linearGradient><linearGradient id="c" x1="8.5" x2="8.5" y1="13.657" y2="2.345" gradientUnits="userSpaceOnUse"><stop stop-color="#FFE59A"/><stop offset="1" stop-color="#FFFFD5"/></linearGradient><clipPath id="a"><path fill="#fff" d="M.5 0h16v16H.5z"/></clipPath></defs></svg>