<svg xmlns="http://www.w3.org/2000/svg" width="24" height="16" viewBox="0 0 24 16">
  <defs>
    <style>
      .cls-1 {
        fill: #78899e;
        fill-rule: evenodd;
      }
    </style>
  </defs>
  <path id="Gaming" class="cls-1" d="M54.816,537.6c-1.924-4.249-3.986-4.546-5.905-3.533a4.015,4.015,0,0,0-1.446,1.217H42.328a4.012,4.012,0,0,0-1.446-1.217c-1.92-1.013-3.981-.716-5.905,3.533s-2.984,10.84-1.065,11.853c1.334,0.7,3.754-1.475,5.752-4.294H50.127c2,2.819,4.418,5,5.752,4.294C57.8,548.435,56.74,541.843,54.816,537.6Zm-12.281,2.711a0.326,0.326,0,0,1-.316.334H40.707v1.671a0.325,0.325,0,0,1-.315.334h-1.07a0.326,0.326,0,0,1-.315-0.334v-1.672H37.494a0.325,0.325,0,0,1-.316-0.333v-1.131a0.326,0.326,0,0,1,.316-0.334h1.512v-1.672a0.325,0.325,0,0,1,.315-0.333h1.07a0.324,0.324,0,0,1,.315.333v1.672h1.512a0.326,0.326,0,0,1,.316.334v1.131h0Zm8.657-3.023a1.042,1.042,0,1,1-1.039-1.122A1.083,1.083,0,0,1,51.192,537.283Zm-3.183,3.435a1.125,1.125,0,1,1,1.039-1.123A1.083,1.083,0,0,1,48.008,540.718Zm4.292,0a1.125,1.125,0,1,1,1.039-1.123A1.083,1.083,0,0,1,52.3,540.718Zm-2.148,2.313a1.125,1.125,0,1,1,1.039-1.122A1.082,1.082,0,0,1,50.152,543.031Z" transform="translate(-32.906 -533.562)"/>
</svg>
