<svg xmlns="http://www.w3.org/2000/svg" width="20.125" height="16" viewBox="0 0 20.125 16">
  <defs>
    <style>
      .cls-1 {
        fill: #78899e;
        fill-rule: evenodd;
      }
    </style>
  </defs>
  <path id="Movies" class="cls-1" d="M54.725,264H35.27a0.347,0.347,0,0,0-.347.348v15.319a0.348,0.348,0,0,0,.347.348H54.725a0.348,0.348,0,0,0,.347-0.348V264.343A0.347,0.347,0,0,0,54.725,264ZM38.4,279.314H35.617V276.18H38.4v3.134Zm0-3.83H35.617V272.35H38.4v3.134Zm0-3.83H35.617v-3.133H38.4v3.133Zm0-3.83H35.617v-3.133H38.4v3.133Zm9.593,4.54-4.385,3a0.374,0.374,0,0,1-.406.014A0.436,0.436,0,0,1,42.992,275v-6a0.435,0.435,0,0,1,.207-0.376,0.378,0.378,0,0,1,.406.014l4.385,3A0.446,0.446,0,0,1,47.989,272.364Zm6.388,6.95H51.6V276.18h2.779v3.134Zm0-3.83H51.6V272.35h2.779v3.134Zm0-3.83H51.6v-3.133h2.779v3.133Zm0-3.83H51.6v-3.133h2.779v3.133Z" transform="translate(-34.938 -264)"/>
</svg>
