<svg xmlns="http://www.w3.org/2000/svg" width="20.781" height="20" viewBox="0 0 20.781 20">
  <defs>
    <style>
      .cls-1 {
        fill: #78899e;
        fill-rule: evenodd;
      }
    </style>
  </defs>
  <path id="Music" class="cls-1" d="M54.178,363.977a14.644,14.644,0,0,0-2.337-8.4,8.771,8.771,0,0,0-7.483-3.765,8.771,8.771,0,0,0-7.483,3.765,14.645,14.645,0,0,0-2.336,8.4,5.623,5.623,0,0,0-.566,2.47,5.222,5.222,0,0,0,5.042,5.373,0.855,0.855,0,0,0,.827-0.881v-8.984a0.855,0.855,0,0,0-.827-0.881,4.788,4.788,0,0,0-2.685.829c0.558-4.342,2.871-8.33,8.029-8.33s7.471,3.988,8.029,8.33a4.788,4.788,0,0,0-2.685-.829,0.855,0.855,0,0,0-.827.881v8.984a0.855,0.855,0,0,0,.827.881,5.222,5.222,0,0,0,5.042-5.373A5.624,5.624,0,0,0,54.178,363.977Z" transform="translate(-33.969 -351.812)"/>
</svg>
