<svg xmlns="http://www.w3.org/2000/svg" width="27.969" height="18" viewBox="0 0 27.969 18">
  <defs>
    <style>
      .cls-1 {
        fill: #78899e;
        fill-rule: evenodd;
      }
    </style>
  </defs>
  <path id="Social" class="cls-1" d="M58.1,587.987c-1.068,1.945-3.3,2.537-5.482,3.623v4.2c0,0.591-.8,4.034-3.868,4.034s-4.076-1.666-4.076-2.355V593.6a3.9,3.9,0,0,1-.883-0.308v4.2c0,0.691-1.142,1.678-2.648,1.678s-4.413-2.023-4.413-3.357v-4.545s-4.029-1.5-4.964-2.584-1.4-1.531-1.143-2.172c0.25-.62,3.272,1.777,5.037,2.172a31.441,31.441,0,0,0,6.129.544,3.57,3.57,0,0,1,2.753,1.086c0.039,0.034.084,0.07,0.131,0.106v-0.483c0-.592,1.662-0.84,2.648-0.84H51.74c0.519,0,4.546-1.252,5.482-2.241S59.11,586.159,58.1,587.987Zm-9.3-.265a2.942,2.942,0,1,0-3.089-2.939A3.017,3.017,0,0,0,48.8,587.722Zm-8.141,0a2.942,2.942,0,1,0-3.089-2.939A3.017,3.017,0,0,0,40.659,587.722Z" transform="translate(-30.563 -581.844)"/>
</svg>
