<svg xmlns="http://www.w3.org/2000/svg" width="20" height="20" viewBox="0 0 20 20">
  <defs>
    <style>
      .cls-1 {
        fill: #78899e;
        fill-rule: evenodd;
      }
    </style>
  </defs>
  <path id="Spotlight" class="cls-1" d="M38.245,575.59l3.381-3.36-0.474-.47h0.022v-2.588h9.213v2.588H50.41l-0.474.47,3.381,3.36,1.757-1.746a2.363,2.363,0,0,0,0-3.359,2.4,2.4,0,0,0-3.381,0l-0.126.125v-1.438H52.8V568h-14v1.172H40v1.438l-0.126-.125a2.4,2.4,0,0,0-3.381,0,2.363,2.363,0,0,0,0,3.359Zm11.5,4.466,0.527-1.907-2.54-2.524L46.6,576.8Zm2.877-3.5-3.648-3.624-1.454.826,4.26,4.232ZM35.781,588h7.011l-1.561-5.643Zm4-10.011,4.257-4.234-1.451-.824-3.648,3.624Zm4.046-2.366-2.538,2.525L44.015,588H55.782Z" transform="translate(-35.781 -568)"/>
</svg>
