<svg xmlns="http://www.w3.org/2000/svg" width="18.219" height="18" viewBox="0 0 18.219 18">
  <defs>
    <style>
      .cls-1 {
        fill: #78899e;
        fill-rule: evenodd;
      }
    </style>
  </defs>
  <path id="Television" class="cls-1" d="M51.8,443H38.186a2.488,2.488,0,0,0-2.306,2.633v8.586a2.489,2.489,0,0,0,2.307,2.634h5.891v2.08h-2.7a1.048,1.048,0,0,0,0,2.08h7.225a1.048,1.048,0,0,0,0-2.08h-2.7v-2.08H51.8a2.489,2.489,0,0,0,2.306-2.634v-8.586A2.488,2.488,0,0,0,51.8,443Zm0.173,2.824v8.2a0.489,0.489,0,0,1-.445.522H38.458a0.489,0.489,0,0,1-.445-0.522v-8.2a0.489,0.489,0,0,1,.445-0.522H51.53A0.489,0.489,0,0,1,51.975,445.819Z" transform="translate(-35.875 -443)"/>
</svg>
