<svg xmlns="http://www.w3.org/2000/svg" width="13px" height="12px" viewBox="0 0 13 12"><path fill-rule="evenodd" fill="rgb(235, 88, 31)" d="M0.388,5.430 C1.171,3.414 3.287,2.406 6.735,2.406 L8.360,2.406 L8.360,0.485 C8.360,0.355 8.406,0.242 8.498,0.147 C8.590,0.052 8.699,0.005 8.825,0.005 C8.950,0.005 9.059,0.052 9.151,0.147 L12.865,3.990 C12.957,4.085 13.003,4.197 13.003,4.327 C13.003,4.457 12.957,4.570 12.865,4.665 L9.151,8.508 C9.059,8.602 8.950,8.650 8.825,8.650 C8.699,8.650 8.590,8.602 8.498,8.508 C8.406,8.413 8.360,8.300 8.360,8.170 L8.360,6.249 L6.735,6.249 C6.262,6.249 5.837,6.263 5.462,6.294 C5.088,6.323 4.715,6.377 4.345,6.455 C3.975,6.533 3.654,6.639 3.380,6.774 C3.107,6.909 2.852,7.083 2.615,7.295 C2.378,7.508 2.184,7.761 2.034,8.054 C1.885,8.346 1.767,8.692 1.683,9.093 C1.598,9.493 1.556,9.946 1.556,10.451 C1.556,10.726 1.568,11.034 1.592,11.374 C1.592,11.404 1.598,11.463 1.610,11.551 C1.622,11.638 1.628,11.704 1.628,11.749 C1.628,11.825 1.608,11.887 1.567,11.937 C1.525,11.987 1.468,12.012 1.396,12.012 C1.319,12.012 1.251,11.969 1.193,11.884 C1.159,11.839 1.128,11.784 1.099,11.719 C1.070,11.654 1.037,11.579 1.001,11.494 C0.964,11.409 0.939,11.350 0.925,11.314 C0.310,9.888 0.003,8.760 0.003,7.930 C0.003,6.934 0.131,6.101 0.388,5.430 Z"></path></svg>