<svg width="54" height="50" viewBox="0 0 54 50" fill="none" xmlns="http://www.w3.org/2000/svg">
<path d="M40.4615 15.3846C44.7099 15.3846 48.1538 11.9407 48.1538 7.69231C48.1538 3.44396 44.7099 0 40.4615 0C36.2132 0 32.7692 3.44396 32.7692 7.69231C32.7692 11.9407 36.2132 15.3846 40.4615 15.3846Z" fill="white"/>
<path d="M15.4615 19.2307C15.4601 18.5857 15.5181 17.942 15.6346 17.3076H9.69229C7.14213 17.3076 4.69642 18.3207 2.89319 20.1239C1.08995 21.9271 0.0769043 24.3728 0.0769043 26.923V36.5384C0.0769043 37.0484 0.279514 37.5376 0.64016 37.8982C1.00081 38.2589 1.48995 38.4615 1.99998 38.4615H9.69229C9.69439 35.844 10.4595 33.2839 11.894 31.0945C13.3286 28.9052 15.3703 27.1815 17.7692 26.1345C16.2752 24.1425 15.4657 21.7207 15.4615 19.2307ZM44.3077 17.3076H38.3654C38.4819 17.942 38.5398 18.5857 38.5384 19.2307C38.5343 21.7207 37.7248 24.1425 36.2307 26.1345C38.6297 27.1815 40.6714 28.9052 42.1059 31.0945C43.5404 33.2839 44.3056 35.844 44.3077 38.4615H52C52.51 38.4615 52.9992 38.2589 53.3598 37.8982C53.7204 37.5376 53.9231 37.0484 53.9231 36.5384V26.923C53.9231 24.3728 52.91 21.9271 51.1068 20.1239C49.3035 18.3207 46.8578 17.3076 44.3077 17.3076Z" fill="white"/>
<path d="M13.5384 15.3846C17.7868 15.3846 21.2307 11.9407 21.2307 7.69231C21.2307 3.44396 17.7868 0 13.5384 0C9.29009 0 5.84613 3.44396 5.84613 7.69231C5.84613 11.9407 9.29009 15.3846 13.5384 15.3846Z" fill="white"/>
<path d="M27 26.9232C31.2483 26.9232 34.6923 23.4792 34.6923 19.2309C34.6923 14.9825 31.2483 11.5386 27 11.5386C22.7516 11.5386 19.3077 14.9825 19.3077 19.2309C19.3077 23.4792 22.7516 26.9232 27 26.9232Z" fill="white"/>
<path d="M30.8461 28.8462H23.1538C20.6037 28.8462 18.158 29.8592 16.3547 31.6625C14.5515 33.4657 13.5385 35.9114 13.5385 38.4616V48.077C13.5385 48.587 13.7411 49.0761 14.1017 49.4368C14.4624 49.7974 14.9515 50 15.4615 50H38.5385C39.0485 50 39.5376 49.7974 39.8983 49.4368C40.2589 49.0761 40.4615 48.587 40.4615 48.077V38.4616C40.4615 37.1989 40.2128 35.9485 39.7296 34.7819C39.2464 33.6153 38.5381 32.5553 37.6452 31.6625C36.7524 30.7696 35.6924 30.0613 34.5258 29.5781C33.3592 29.0949 32.1089 28.8462 30.8461 28.8462Z" fill="white"/>
</svg>
