<svg width="61" height="41" viewBox="0 0 61 41" fill="none" xmlns="http://www.w3.org/2000/svg">
<path d="M55.6077 7.88644C47.6315 -5.21801 35.6159 3.89891 35.6159 3.89891C34.8367 4.48786 33.3998 4.97209 32.4234 4.97434L29.205 4.97659C28.2287 4.97772 26.7918 4.49349 26.0137 3.90454C26.0137 3.90454 13.997 -5.21463 6.01969 7.88981C-1.95537 20.9898 1.25852 35.2563 1.25852 35.2563C1.82158 38.7495 3.6774 41.0805 7.17958 40.7877C10.6716 40.4961 18.2514 31.3803 18.2514 31.3803C18.8775 30.6292 20.1894 30.0155 21.1635 30.0155L40.4582 30.0121C41.4334 30.0121 42.7442 30.6258 43.3692 31.3769C43.3692 31.3769 50.9501 40.4927 54.4478 40.7844C57.9454 41.0771 59.8058 38.7439 60.3654 35.253C60.3643 35.253 63.5838 20.9886 55.6077 7.88644ZM23.5621 18.5529H19.4248V22.5404C19.4248 22.5404 18.5487 23.2093 17.1929 23.1924C15.8393 23.1721 15.2267 22.4627 15.2267 22.4627V18.554H11.3191C11.3191 18.554 10.8315 18.054 10.7009 16.7376C10.5725 15.4212 11.2403 14.357 11.2403 14.357H15.3787V10.2197C15.3787 10.2197 16.2301 9.76365 17.4541 9.79856C18.188 9.82078 18.9099 9.99043 19.5768 10.2974L19.56 14.3559H23.4675C23.4675 14.3559 24.15 15.232 24.2063 16.2905C24.2626 17.3502 23.5621 18.5529 23.5621 18.5529ZM42.5392 23.0978C42.1092 23.0981 41.6833 23.0136 41.286 22.8491C40.8887 22.6846 40.5278 22.4434 40.2238 22.1392C39.9198 21.835 39.6788 21.4739 39.5146 21.0765C39.3504 20.679 39.2662 20.2531 39.2668 19.8231C39.2659 19.393 39.3499 18.967 39.514 18.5694C39.6781 18.1718 39.9191 17.8106 40.2231 17.5064C40.5271 17.2021 40.8882 16.9609 41.2857 16.7965C41.6831 16.6321 42.1091 16.5478 42.5392 16.5484C42.9765 16.5369 43.4116 16.6132 43.819 16.7726C44.2263 16.932 44.5976 17.1714 44.9109 17.4766C45.2242 17.7818 45.4733 18.1467 45.6433 18.5497C45.8133 18.9527 45.9009 19.3857 45.9009 19.8231C45.9009 20.2605 45.8133 20.6935 45.6433 21.0965C45.4733 21.4995 45.2242 21.8644 44.9109 22.1696C44.5976 22.4749 44.2263 22.7142 43.819 22.8736C43.4116 23.0331 42.9765 23.1093 42.5392 23.0978ZM42.5392 14.0879C42.1093 14.0883 41.6834 14.0039 41.2861 13.8396C40.8888 13.6752 40.5278 13.4341 40.2239 13.13C39.9199 12.8259 39.6789 12.4648 39.5146 12.0675C39.3504 11.6701 39.2662 11.2443 39.2668 10.8143C39.2659 10.3842 39.3499 9.95815 39.514 9.56059C39.6781 9.16303 39.9191 8.80178 40.2231 8.49755C40.5271 8.19332 40.8882 7.95209 41.2857 7.7877C41.6831 7.62332 42.1091 7.539 42.5392 7.5396C43.4078 7.5396 44.2409 7.88457 44.8552 8.49867C45.4695 9.11276 45.8148 9.94569 45.8151 10.8143C45.8142 11.6826 45.4687 12.5151 44.8545 13.1289C44.2403 13.7427 43.4076 14.0876 42.5392 14.0879ZM50.6945 18.9245C50.2644 18.9249 49.8385 18.8405 49.4411 18.6761C49.0437 18.5116 48.6827 18.2704 48.3787 17.9662C48.0747 17.662 47.8337 17.3008 47.6696 16.9033C47.5054 16.5058 47.4213 16.0798 47.422 15.6498C47.4213 15.2197 47.5054 14.7937 47.6696 14.3963C47.8337 13.9988 48.0747 13.6376 48.3787 13.3334C48.6827 13.0292 49.0437 12.7879 49.4411 12.6235C49.8385 12.459 50.2644 12.3746 50.6945 12.3751C51.563 12.3754 52.3959 12.7204 53.0101 13.3345C53.6243 13.9485 53.9697 14.7813 53.9703 15.6498C53.9697 16.5183 53.6243 17.3511 53.0101 17.9651C52.3959 18.5791 51.563 18.9242 50.6945 18.9245Z" fill="white"/>
</svg>
