<svg width="52" height="48" viewBox="0 0 52 48" fill="none" xmlns="http://www.w3.org/2000/svg">
<path d="M38.7183 16.6763C31.4485 16.6763 25.5348 22.5899 25.5348 29.8597C25.5348 37.1294 31.4484 43.0431 38.7182 43.0431C45.9879 43.0431 51.9992 37.1294 51.9992 29.8597C51.9992 22.5899 45.988 16.6763 38.7183 16.6763ZM40.2216 36.9191C40.2089 36.9238 40.1956 36.9217 40.1829 36.9261V38.6486C40.1829 39.4583 39.5277 40.1135 38.7181 40.1135C37.9084 40.1135 37.2532 39.4583 37.2532 38.6486V36.9161C36.2885 36.5901 35.3641 35.9716 34.5738 35.0295C34.0531 34.4101 34.1332 33.4859 34.7541 32.9667C35.3735 32.446 36.3005 32.5261 36.8169 33.147C37.5922 34.0696 38.4691 34.4358 39.2188 34.1669C39.7952 33.9566 40.1829 33.403 40.1829 32.7894C40.1829 31.9812 39.5263 31.3245 38.7181 31.3245C36.2948 31.3245 34.3236 29.3532 34.3236 26.9301C34.3225 26.0662 34.5765 25.2212 35.0536 24.5011C35.5308 23.7809 36.2099 23.2176 37.0059 22.8818C37.0865 22.8477 37.172 22.8496 37.2533 22.8205V21.0708C37.2533 20.2611 37.9085 19.606 38.7182 19.606C39.5278 19.606 40.183 20.2611 40.183 21.0708V22.8231C40.9415 23.0794 41.6812 23.4867 42.3416 24.1264C42.9224 24.6886 42.9367 25.6155 42.373 26.1978C41.8108 26.7785 40.8824 26.7914 40.3017 26.2292C39.5893 25.5383 38.8011 25.3008 38.1487 25.5798C37.8831 25.6917 37.6564 25.8796 37.4971 26.1198C37.3378 26.36 37.253 26.6419 37.2532 26.9302C37.2532 27.7384 37.9099 28.395 38.7181 28.395C41.1413 28.395 43.1125 30.3663 43.1125 32.7895C43.1127 34.6304 41.9511 36.2897 40.2216 36.9191ZM1.46484 31.3245C0.655176 31.3245 0 31.9797 0 32.7894V46.5353C0 47.3449 0.655176 48.0001 1.46484 48.0001H6.85928V31.3245H1.46484Z" fill="white"/>
<path d="M36.7413 9.14302L26.4875 0.354053C25.941 -0.118018 25.1285 -0.118018 24.582 0.354053L14.3283 9.14302C14.1008 9.33734 13.9384 9.59686 13.8632 9.88649C13.7879 10.1761 13.8035 10.4819 13.9077 10.7624C14.0112 11.0432 14.1984 11.2856 14.4439 11.4568C14.6895 11.6279 14.9817 11.7196 15.2811 11.7194H19.6755V48.0001H29.9293C30.739 48.0001 31.3941 47.345 31.3941 46.5353V44.1941C26.185 41.5213 22.6052 36.1063 22.6052 29.8598C22.6052 23.6134 26.1851 18.1983 31.3941 15.5255V11.7195H35.7886C36.0879 11.7197 36.3801 11.628 36.6257 11.4568C36.8713 11.2857 37.0584 11.0433 37.1619 10.7625C37.2662 10.4819 37.2818 10.1762 37.2065 9.88652C37.1313 9.59687 36.9689 9.33733 36.7413 9.14302Z" fill="white"/>
<path d="M11.3514 19.606C10.5417 19.606 9.88652 20.2611 9.88652 21.0708V48H16.7458V19.606H11.3514Z" fill="white"/>
</svg>
