<svg width="50" height="50" viewBox="0 0 50 50" fill="none" xmlns="http://www.w3.org/2000/svg">
<path d="M26.0547 23.9926C26.0465 23.984 26.0441 23.9726 26.0357 23.9642L17.676 15.6044V10.3515C17.676 9.96236 17.5215 9.59048 17.2469 9.31578L8.45781 0.429157C8.25289 0.22436 7.99185 0.0848983 7.7077 0.0283907C7.42355 -0.0281169 7.12902 0.000865612 6.86133 0.111676C6.59359 0.222393 6.36475 0.410097 6.20379 0.651003C6.04284 0.891909 5.95703 1.17517 5.95723 1.4649V5.85943H1.46504C1.17533 5.85919 0.892072 5.94498 0.651176 6.10592C0.410281 6.26686 0.222596 6.4957 0.111914 6.76343C0.000815467 7.03108 -0.0283111 7.32569 0.0282271 7.60991C0.0847652 7.89413 0.224422 8.15516 0.429492 8.35992L9.31621 17.2465C9.45216 17.3826 9.61361 17.4906 9.79131 17.5642C9.96902 17.6379 10.1595 17.6758 10.3519 17.6757H15.6047L23.9645 26.0355C23.9729 26.0439 23.9843 26.0462 23.9929 26.0545C24.5632 26.5988 25.4295 26.606 26.0074 26.0545C26.616 25.4736 26.6023 24.5664 26.0547 23.9926Z" fill="white"/>
<path d="M25.0001 0.000244141C21.2519 0.000244141 17.7081 0.953857 14.5169 2.44341L19.0104 6.93696C20.8964 6.30981 22.9064 5.95728 25.0002 5.95728C35.5001 5.95718 44.043 14.5001 44.043 25C44.043 35.5 35.5001 44.0429 25.0001 44.0429C14.5001 44.0429 5.95722 35.5 5.95722 25C5.95722 22.9063 6.30986 20.8962 6.93691 19.0103L2.44336 14.5167C0.954001 17.7081 0.000289917 21.2519 0.000289917 25C0.000289917 38.7314 11.2687 50 25.0001 50C38.7314 50 50 38.7314 50 25C50 11.2687 38.7316 0.000244141 25.0001 0.000244141Z" fill="white"/>
<path d="M25.0001 11.8167C23.4518 11.8167 21.9869 12.134 20.6056 12.6265V14.3916L23.992 17.778C24.3246 17.7315 24.6549 17.676 25.0001 17.676C29.0385 17.676 32.3243 20.9619 32.3243 25.0002C32.3243 29.0386 29.0385 32.3245 25.0001 32.3245C20.9617 32.3245 17.6759 29.0386 17.6759 25.0002C17.6759 24.6549 17.7314 24.3247 17.7778 23.9921L14.3915 20.6056H12.6265C12.134 21.987 11.8166 23.4518 11.8166 25.0001C11.8166 32.27 17.7304 38.1836 25.0001 38.1836C32.2698 38.1836 38.1837 32.27 38.1837 25.0001C38.1837 17.7303 32.2699 11.8167 25.0001 11.8167Z" fill="white"/>
</svg>
